{"glyphs":{"0":{"ha":517,"x_min":69,"x_max":447,"o":"m 69 238 l 69 683 q 88 781 69 744 q 135 835 106 817 q 196 858 164 853 q 257 864 228 864 q 321 858 288 864 q 383 835 354 853 q 429 780 411 817 q 447 682 447 743 l 447 238 l 419 238 l 419 679 q 394 784 419 750 q 331 828 368 818 q 257 839 293 839 q 187 828 224 839 q 124 783 150 817 q 99 681 99 750 l 99 238 l 69 238 m 257 -8 q 196 -3 228 -8 q 135 21 164 3 q 88 75 106 39 q 69 172 69 111 l 69 618 l 99 618 l 99 176 q 124 73 99 107 q 187 28 150 39 q 257 17 224 17 q 331 28 293 17 q 394 74 368 39 q 419 178 419 108 l 419 618 l 447 618 l 447 174 q 429 76 447 113 q 383 21 411 39 q 321 -3 354 3 q 257 -8 288 -8 z "},"1":{"ha":344,"x_min":28,"x_max":247,"o":"m 219 0 l 219 818 l 46 606 l 28 622 l 219 861 l 247 861 l 247 0 l 219 0 z "},"2":{"ha":476,"x_min":57,"x_max":421,"o":"m 57 0 l 57 19 q 70 158 58 101 q 105 256 82 215 q 160 329 128 297 q 232 393 192 361 q 256 412 244 403 q 278 429 268 421 q 366 528 339 482 q 393 647 393 574 l 393 688 q 358 804 393 769 q 265 839 324 839 l 225 839 q 143 815 172 839 q 103 757 114 790 q 93 696 93 724 l 93 556 l 65 558 l 65 678 q 84 786 65 746 q 140 844 103 826 q 235 861 178 861 l 269 861 q 353 843 319 861 q 404 788 388 825 q 421 692 421 750 l 421 629 q 385 507 421 557 q 288 404 349 457 q 256 376 272 390 q 219 347 239 363 q 128 238 157 296 q 92 125 100 181 q 85 24 85 69 l 421 24 l 413 0 l 57 0 z "},"3":{"ha":499,"x_min":65,"x_max":429,"o":"m 226 0 q 135 19 171 0 q 82 78 99 38 q 65 182 65 118 l 65 304 l 93 296 l 93 196 q 122 69 93 115 q 226 24 151 24 l 269 24 q 374 72 347 24 q 401 193 401 121 l 401 267 q 383 371 401 335 q 332 421 364 407 q 257 435 300 435 l 178 435 l 178 457 l 257 457 q 330 472 297 457 q 382 523 363 486 q 401 624 401 560 l 401 689 q 372 808 401 776 q 272 839 342 839 l 221 839 q 142 817 169 839 q 103 760 114 794 q 93 688 93 725 l 93 567 l 65 579 l 65 689 q 103 818 65 775 q 210 861 142 861 l 279 861 q 361 847 328 861 q 412 794 394 832 q 429 686 429 757 l 429 622 q 418 546 429 579 q 388 490 407 513 q 344 457 368 468 q 294 446 319 446 l 294 444 q 344 436 319 444 q 388 409 368 428 q 418 360 407 390 q 429 286 429 329 l 429 183 q 388 44 429 88 q 272 0 346 0 l 226 0 z "},"4":{"ha":550,"x_min":17,"x_max":540,"o":"m 367 0 l 368 182 l 29 182 l 17 199 l 368 861 l 397 861 l 396 206 l 540 206 l 532 182 l 397 182 l 397 0 l 367 0 m 51 206 l 368 206 l 368 814 l 51 206 z "},"5":{"ha":496,"x_min":75,"x_max":439,"o":"m 221 -3 q 135 17 168 -3 q 89 78 103 38 q 75 182 75 119 l 75 300 l 103 290 l 103 181 q 126 67 103 114 q 221 21 149 21 l 278 21 q 374 63 338 21 q 411 174 411 106 l 411 314 q 397 443 411 399 q 353 503 382 488 q 278 519 324 519 l 246 519 q 171 500 201 519 q 124 458 140 481 q 104 426 107 436 l 75 433 l 75 861 l 419 861 l 419 838 l 103 838 l 103 463 q 124 488 107 468 q 173 524 142 507 q 250 542 204 542 l 285 542 q 359 530 329 542 q 406 492 389 518 q 431 422 424 465 q 439 315 439 379 l 439 186 q 425 96 439 132 q 388 38 411 60 q 336 6 364 15 q 281 -3 308 -3 l 221 -3 z "},"6":{"ha":499,"x_min":69,"x_max":433,"o":"m 247 -4 q 176 5 208 -4 q 119 38 143 14 q 83 108 96 63 q 69 224 69 153 l 69 701 q 87 788 69 751 q 144 845 104 825 q 253 865 185 865 q 359 845 319 865 q 416 790 399 825 q 433 706 433 754 l 433 625 l 406 615 l 406 701 q 370 804 406 768 q 253 840 335 840 q 134 804 171 840 q 97 701 97 768 l 97 444 q 149 517 107 488 q 258 546 192 546 q 371 518 333 546 q 421 449 408 490 q 433 363 433 407 l 433 224 q 421 108 433 153 q 385 38 408 63 q 326 5 361 14 q 247 -4 292 -4 m 246 19 q 331 35 294 19 q 386 94 367 50 q 406 226 406 139 l 406 360 q 394 435 406 397 q 351 499 383 474 q 251 524 318 524 q 134 478 171 524 q 97 360 97 433 l 97 226 q 119 94 97 139 q 174 35 140 50 q 246 19 208 19 z "},"7":{"ha":440,"x_min":28,"x_max":440,"o":"m 32 0 l 399 838 l 28 838 l 33 861 l 440 861 l 65 0 l 32 0 z "},"8":{"ha":506,"x_min":67,"x_max":439,"o":"m 242 -3 q 145 17 185 -3 q 86 81 106 36 q 67 203 67 126 l 67 267 q 81 363 67 325 q 121 422 94 401 q 185 446 147 443 q 124 474 150 456 q 85 528 99 492 q 71 625 71 564 l 71 676 q 90 785 71 744 q 147 845 108 826 q 242 864 185 864 l 269 864 q 393 821 351 864 q 435 675 435 778 l 435 626 q 421 529 435 565 q 382 474 407 493 q 321 446 357 456 q 385 422 358 443 q 425 363 411 401 q 439 267 439 325 l 439 225 q 418 88 439 138 q 356 18 397 39 q 253 -3 315 -3 l 242 -3 m 247 21 q 333 35 296 21 q 390 92 369 49 q 410 225 410 136 l 410 271 q 398 360 410 324 q 353 417 386 397 q 253 438 319 438 q 153 417 188 438 q 108 360 119 397 q 96 271 96 324 l 96 206 q 118 87 96 126 q 175 34 140 47 q 247 21 210 21 m 253 460 q 335 473 300 460 q 388 522 369 486 q 407 626 407 558 l 407 674 q 396 761 407 724 q 352 820 385 799 q 253 842 319 842 q 154 820 188 842 q 110 762 121 799 q 99 678 99 725 l 99 625 q 117 522 99 557 q 171 473 136 486 q 253 460 206 460 z "},"9":{"ha":499,"x_min":67,"x_max":429,"o":"m 247 -6 q 141 15 181 -6 q 84 71 101 35 q 67 154 67 107 l 67 251 l 94 243 l 94 158 q 131 56 94 92 q 247 19 167 19 q 366 56 331 19 q 401 158 401 92 l 401 415 q 351 343 392 372 q 243 314 310 314 q 129 342 167 314 q 79 412 92 369 q 67 497 67 454 l 67 636 q 79 752 67 707 q 115 822 92 797 q 174 855 139 846 q 253 864 208 864 q 324 855 292 864 q 381 822 357 846 q 417 752 404 797 q 429 636 429 707 l 429 158 q 413 72 429 108 q 356 15 396 35 q 247 -6 317 -6 m 249 336 q 366 382 331 336 q 401 500 401 428 l 401 633 q 381 765 401 721 q 326 825 360 810 q 254 840 293 840 q 169 825 206 840 q 114 765 133 810 q 94 633 94 721 l 94 500 q 106 425 94 463 q 150 362 117 388 q 249 336 183 336 z "},"\r":{"ha":60,"x_min":0,"x_max":0,"o":""}," ":{"ha":236,"x_min":0,"x_max":0,"o":""}," ":{"ha":236,"x_min":0,"x_max":0,"o":""},"A":{"ha":508,"x_min":33,"x_max":472,"o":"m 33 0 l 217 861 l 292 861 l 472 0 l 443 0 l 396 222 l 406 214 l 100 214 l 108 222 l 63 0 l 33 0 m 108 232 l 104 238 l 401 238 l 396 232 l 272 831 l 269 832 l 239 832 l 236 831 l 108 232 z "},"Æ":{"ha":774,"x_min":32,"x_max":726,"o":"m 363 861 l 726 861 l 726 838 l 392 838 l 392 503 l 707 503 l 700 481 l 392 481 l 392 22 l 726 22 l 726 0 l 363 0 l 363 861 m 92 214 l 92 238 l 375 238 l 375 214 l 92 214 m 32 0 l 222 861 l 247 861 l 60 0 l 32 0 m 225 838 l 225 861 l 376 861 l 376 838 l 225 838 z "},"Ǽ":{"ha":774,"x_min":32,"x_max":726,"o":"m 363 861 l 726 861 l 726 838 l 392 838 l 392 503 l 707 503 l 700 481 l 392 481 l 392 22 l 726 22 l 726 0 l 363 0 l 363 861 m 92 214 l 92 238 l 375 238 l 375 214 l 92 214 m 32 0 l 222 861 l 247 861 l 60 0 l 32 0 m 225 838 l 225 861 l 376 861 l 376 838 l 225 838 m 338 956 l 454 1083 l 492 1083 l 358 956 l 338 956 z "},"Á":{"ha":508,"x_min":33,"x_max":472,"o":"m 33 0 l 217 861 l 292 861 l 472 0 l 443 0 l 396 222 l 406 214 l 100 214 l 108 222 l 63 0 l 33 0 m 108 232 l 104 238 l 401 238 l 396 232 l 272 831 l 269 832 l 239 832 l 236 831 l 108 232 m 203 956 l 333 1069 l 371 1069 l 224 956 l 203 956 z "},"Ă":{"ha":508,"x_min":33,"x_max":472,"o":"m 33 0 l 217 861 l 292 861 l 472 0 l 443 0 l 396 222 l 406 214 l 100 214 l 108 222 l 63 0 l 33 0 m 108 232 l 104 238 l 401 238 l 396 232 l 272 831 l 269 832 l 239 832 l 236 831 l 108 232 m 250 950 q 174 969 200 950 q 140 1017 149 989 q 132 1068 132 1044 l 153 1068 q 174 1002 153 1035 q 250 969 194 969 q 331 1002 308 969 q 354 1068 353 1035 l 374 1068 q 346 984 374 1018 q 250 950 318 950 z "},"Ắ":{"ha":508,"x_min":33,"x_max":472,"o":"m 33 0 l 217 861 l 292 861 l 472 0 l 443 0 l 396 222 l 406 214 l 100 214 l 108 222 l 63 0 l 33 0 m 108 232 l 104 238 l 401 238 l 396 232 l 272 831 l 269 832 l 239 832 l 236 831 l 108 232 m 251 931 q 190 947 211 931 q 161 985 168 963 q 154 1026 154 1007 l 175 1026 q 192 975 175 1000 q 251 950 208 950 q 314 975 296 950 q 333 1026 332 1000 l 353 1026 q 330 958 353 986 q 251 931 307 931 m 210 1054 l 307 1157 l 340 1157 l 232 1054 l 210 1054 z "},"Ặ":{"ha":508,"x_min":33,"x_max":472,"o":"m 33 0 l 217 861 l 292 861 l 472 0 l 443 0 l 396 222 l 406 214 l 100 214 l 108 222 l 63 0 l 33 0 m 108 232 l 104 238 l 401 238 l 396 232 l 272 831 l 269 832 l 239 832 l 236 831 l 108 232 m 251 -114 q 232 -108 235 -114 q 229 -92 229 -101 q 232 -74 229 -81 q 251 -67 235 -67 q 271 -74 268 -67 q 274 -92 274 -81 q 271 -108 274 -101 q 251 -114 268 -114 m 250 950 q 174 969 200 950 q 140 1017 149 989 q 132 1068 132 1044 l 153 1068 q 174 1002 153 1035 q 250 969 194 969 q 331 1002 308 969 q 354 1068 353 1035 l 374 1068 q 346 984 374 1018 q 250 950 318 950 z "},"Ằ":{"ha":508,"x_min":33,"x_max":472,"o":"m 33 0 l 217 861 l 292 861 l 472 0 l 443 0 l 396 222 l 406 214 l 100 214 l 108 222 l 63 0 l 33 0 m 108 232 l 104 238 l 401 238 l 396 232 l 272 831 l 269 832 l 239 832 l 236 831 l 108 232 m 250 931 q 188 947 210 931 q 160 985 167 963 q 153 1026 153 1008 l 172 1026 q 190 975 172 1000 q 251 950 208 950 q 313 975 296 950 q 331 1026 331 1000 l 353 1026 q 329 958 353 986 q 250 931 306 931 m 258 1054 l 149 1157 l 185 1157 l 278 1054 l 258 1054 z "},"Ẳ":{"ha":508,"x_min":33,"x_max":472,"o":"m 33 0 l 217 861 l 292 861 l 472 0 l 443 0 l 396 222 l 406 214 l 100 214 l 108 222 l 63 0 l 33 0 m 108 232 l 104 238 l 401 238 l 396 232 l 272 831 l 269 832 l 239 832 l 236 831 l 108 232 m 251 931 q 190 947 211 931 q 161 985 168 963 q 154 1026 154 1007 l 175 1026 q 192 975 175 1000 q 251 950 208 950 q 314 975 296 950 q 333 1026 332 1000 l 353 1026 q 330 958 353 986 q 251 931 307 931 m 240 1054 q 256 1083 240 1072 q 287 1107 271 1094 q 303 1142 303 1119 q 288 1171 303 1160 q 256 1182 272 1182 q 214 1167 226 1182 q 197 1132 201 1151 l 182 1138 q 203 1182 185 1165 q 257 1199 222 1199 q 308 1183 290 1199 q 325 1143 325 1167 q 310 1102 325 1115 q 281 1080 296 1089 q 265 1054 265 1071 l 240 1054 z "},"Ẵ":{"ha":508,"x_min":33,"x_max":472,"o":"m 33 0 l 217 861 l 292 861 l 472 0 l 443 0 l 396 222 l 406 214 l 100 214 l 108 222 l 63 0 l 33 0 m 108 232 l 104 238 l 401 238 l 396 232 l 272 831 l 269 832 l 239 832 l 236 831 l 108 232 m 251 931 q 190 947 211 931 q 161 985 168 963 q 154 1026 154 1008 l 175 1026 q 192 976 175 1001 q 251 950 208 950 q 314 975 296 950 q 332 1026 332 1000 l 353 1026 q 330 959 353 988 q 251 931 307 931 m 150 1047 q 165 1106 150 1088 q 203 1124 181 1124 q 240 1111 225 1124 q 269 1086 256 1099 q 300 1074 283 1074 q 331 1091 325 1074 q 338 1122 338 1108 l 356 1122 q 339 1067 356 1082 q 303 1051 322 1051 q 266 1065 282 1051 q 237 1090 250 1078 q 207 1103 224 1103 q 178 1088 188 1103 q 169 1047 169 1072 l 150 1047 z "},"Ǎ":{"ha":508,"x_min":33,"x_max":472,"o":"m 115 1074 l 139 1074 l 253 974 l 367 1074 l 388 1074 l 271 956 l 232 956 l 115 1074 m 33 0 l 217 861 l 292 861 l 472 0 l 443 0 l 396 222 l 406 214 l 100 214 l 108 222 l 63 0 l 33 0 m 108 232 l 104 238 l 401 238 l 396 232 l 272 831 l 269 832 l 239 832 l 236 831 l 108 232 z "},"Â":{"ha":508,"x_min":33,"x_max":472,"o":"m 33 0 l 217 861 l 292 861 l 472 0 l 443 0 l 396 222 l 406 214 l 100 214 l 108 222 l 63 0 l 33 0 m 108 232 l 104 238 l 401 238 l 396 232 l 272 831 l 269 832 l 239 832 l 236 831 l 108 232 m 115 956 l 232 1074 l 271 1074 l 388 956 l 367 956 l 253 1056 l 139 956 l 115 956 z "},"Ấ":{"ha":508,"x_min":33,"x_max":485,"o":"m 33 0 l 217 861 l 292 861 l 472 0 l 443 0 l 396 222 l 406 214 l 100 214 l 108 222 l 63 0 l 33 0 m 108 232 l 104 238 l 401 238 l 396 232 l 272 831 l 269 832 l 239 832 l 236 831 l 108 232 m 139 936 l 232 1031 l 269 1031 l 363 936 l 342 936 l 253 1014 l 164 936 l 139 936 m 354 1018 l 449 1121 l 485 1121 l 376 1018 l 354 1018 z "},"Ậ":{"ha":508,"x_min":33,"x_max":472,"o":"m 33 0 l 217 861 l 292 861 l 472 0 l 443 0 l 396 222 l 406 214 l 100 214 l 108 222 l 63 0 l 33 0 m 108 232 l 104 238 l 401 238 l 396 232 l 272 831 l 269 832 l 239 832 l 236 831 l 108 232 m 251 -114 q 232 -108 235 -114 q 229 -92 229 -101 q 232 -74 229 -81 q 251 -67 235 -67 q 271 -74 268 -67 q 274 -92 274 -81 q 271 -108 274 -101 q 251 -114 268 -114 m 115 956 l 232 1074 l 271 1074 l 388 956 l 367 956 l 253 1056 l 139 956 l 115 956 z "},"Ầ":{"ha":508,"x_min":33,"x_max":472,"o":"m 33 0 l 217 861 l 292 861 l 472 0 l 443 0 l 396 222 l 406 214 l 100 214 l 108 222 l 63 0 l 33 0 m 108 232 l 104 238 l 401 238 l 396 232 l 272 831 l 269 832 l 239 832 l 236 831 l 108 232 m 139 936 l 232 1031 l 269 1031 l 363 936 l 342 936 l 253 1014 l 164 936 l 139 936 m 385 1018 l 276 1121 l 310 1121 l 406 1018 l 385 1018 z "},"Ẩ":{"ha":508,"x_min":33,"x_max":472,"o":"m 33 0 l 217 861 l 292 861 l 472 0 l 443 0 l 396 222 l 406 214 l 100 214 l 108 222 l 63 0 l 33 0 m 108 232 l 104 238 l 401 238 l 396 232 l 272 831 l 269 832 l 239 832 l 236 831 l 108 232 m 139 936 l 232 1031 l 269 1031 l 363 936 l 342 936 l 253 1014 l 164 936 l 139 936 m 378 1018 q 393 1047 378 1036 q 424 1071 408 1058 q 439 1106 439 1083 q 424 1135 439 1124 q 390 1146 408 1146 q 351 1131 364 1146 q 333 1096 338 1115 l 318 1101 q 340 1145 321 1129 q 393 1161 360 1161 q 444 1146 425 1161 q 463 1107 463 1131 q 453 1074 463 1086 q 432 1053 444 1061 q 410 1037 419 1044 q 401 1018 401 1029 l 378 1018 z "},"Ẫ":{"ha":508,"x_min":33,"x_max":472,"o":"m 33 0 l 217 861 l 292 861 l 472 0 l 443 0 l 396 222 l 406 214 l 100 214 l 108 222 l 63 0 l 33 0 m 108 232 l 104 238 l 401 238 l 396 232 l 272 831 l 269 832 l 239 832 l 236 831 l 108 232 m 139 936 l 232 1031 l 269 1031 l 363 936 l 342 936 l 253 1014 l 164 936 l 139 936 m 146 1057 q 162 1116 146 1097 q 200 1135 178 1135 q 238 1122 222 1135 q 267 1095 253 1108 q 297 1082 281 1082 q 328 1100 321 1082 q 335 1132 335 1118 l 353 1132 q 336 1077 353 1093 q 299 1061 319 1061 q 263 1074 278 1061 q 233 1100 247 1088 q 203 1113 219 1113 q 174 1098 183 1113 q 165 1057 165 1083 l 146 1057 z "},"Ȁ":{"ha":508,"x_min":33,"x_max":472,"o":"m 33 0 l 217 861 l 292 861 l 472 0 l 443 0 l 396 222 l 406 214 l 100 214 l 108 222 l 63 0 l 33 0 m 108 232 l 104 238 l 401 238 l 396 232 l 272 831 l 269 832 l 239 832 l 236 831 l 108 232 m 201 956 l 68 1083 l 106 1083 l 222 956 l 201 956 m 286 956 l 153 1083 l 190 1083 l 307 956 l 286 956 z "},"Ä":{"ha":508,"x_min":33,"x_max":472,"o":"m 33 0 l 217 861 l 292 861 l 472 0 l 443 0 l 396 222 l 406 214 l 100 214 l 108 222 l 63 0 l 33 0 m 108 232 l 104 238 l 401 238 l 396 232 l 272 831 l 269 832 l 239 832 l 236 831 l 108 232 m 310 951 q 292 958 294 951 q 289 974 289 964 q 292 991 289 985 q 310 997 294 997 q 331 991 328 997 q 333 974 333 985 q 331 958 333 964 q 310 951 328 951 m 193 951 q 174 958 176 951 q 171 974 171 964 q 174 991 171 985 q 193 997 176 997 q 213 991 210 997 q 215 974 215 985 q 213 958 215 964 q 193 951 210 951 z "},"Ạ":{"ha":508,"x_min":33,"x_max":472,"o":"m 33 0 l 217 861 l 292 861 l 472 0 l 443 0 l 396 222 l 406 214 l 100 214 l 108 222 l 63 0 l 33 0 m 108 232 l 104 238 l 401 238 l 396 232 l 272 831 l 269 832 l 239 832 l 236 831 l 108 232 m 251 -114 q 232 -108 235 -114 q 229 -92 229 -101 q 232 -74 229 -81 q 251 -67 235 -67 q 271 -74 268 -67 q 274 -92 274 -81 q 271 -108 274 -101 q 251 -114 268 -114 z "},"À":{"ha":508,"x_min":33,"x_max":472,"o":"m 33 0 l 217 861 l 292 861 l 472 0 l 443 0 l 396 222 l 406 214 l 100 214 l 108 222 l 63 0 l 33 0 m 108 232 l 104 238 l 401 238 l 396 232 l 272 831 l 269 832 l 239 832 l 236 831 l 108 232 m 260 956 l 113 1069 l 150 1069 l 281 956 l 260 956 z "},"Ả":{"ha":508,"x_min":33,"x_max":472,"o":"m 33 0 l 217 861 l 292 861 l 472 0 l 443 0 l 396 222 l 406 214 l 100 214 l 108 222 l 63 0 l 33 0 m 108 232 l 104 238 l 401 238 l 396 232 l 272 831 l 269 832 l 239 832 l 236 831 l 108 232 m 239 956 q 251 984 239 972 q 278 1006 263 996 q 306 1031 294 1017 q 318 1065 318 1044 q 298 1103 318 1089 q 254 1117 278 1117 q 202 1097 218 1117 q 182 1053 186 1078 l 165 1058 q 192 1115 168 1094 q 257 1135 215 1135 q 318 1115 297 1135 q 339 1067 339 1094 q 327 1025 339 1040 q 301 1000 315 1010 q 274 981 286 990 q 263 956 263 971 l 239 956 z "},"Ȃ":{"ha":508,"x_min":33,"x_max":472,"o":"m 250 1065 q 346 1030 318 1065 q 374 947 374 994 l 354 947 q 331 1016 354 988 q 250 1044 308 1044 q 173 1015 194 1044 q 151 947 151 985 l 132 947 q 140 999 132 971 q 174 1046 149 1026 q 250 1065 200 1065 m 33 0 l 217 861 l 292 861 l 472 0 l 443 0 l 396 222 l 406 214 l 100 214 l 108 222 l 63 0 l 33 0 m 108 232 l 104 238 l 401 238 l 396 232 l 272 831 l 269 832 l 239 832 l 236 831 l 108 232 z "},"Ā":{"ha":508,"x_min":33,"x_max":472,"o":"m 33 0 l 217 861 l 292 861 l 472 0 l 443 0 l 396 222 l 406 214 l 100 214 l 108 222 l 63 0 l 33 0 m 108 232 l 104 238 l 401 238 l 396 232 l 272 831 l 269 832 l 239 832 l 236 831 l 108 232 m 121 967 l 121 988 l 383 988 l 383 967 l 121 967 z "},"Ą":{"ha":508,"x_min":33,"x_max":506,"o":"m 33 0 l 217 861 l 292 861 l 472 0 l 443 0 l 396 222 l 406 214 l 100 214 l 108 222 l 63 0 l 33 0 m 108 232 l 104 238 l 401 238 l 396 232 l 272 831 l 269 832 l 239 832 l 236 831 l 108 232 m 410 -222 q 349 -194 372 -222 q 326 -126 326 -167 q 356 -52 326 -90 q 450 8 386 -14 l 469 3 q 384 -49 418 -19 q 350 -125 350 -79 q 369 -178 350 -156 q 418 -201 388 -201 q 462 -195 443 -201 q 503 -171 481 -189 l 506 -192 q 459 -216 481 -210 q 410 -222 438 -222 z "},"Å":{"ha":508,"x_min":33,"x_max":472,"o":"m 33 0 l 217 861 l 292 861 l 472 0 l 443 0 l 396 222 l 406 214 l 100 214 l 108 222 l 63 0 l 33 0 m 108 232 l 104 238 l 401 238 l 396 232 l 272 831 l 269 832 l 239 832 l 236 831 l 108 232 m 253 949 q 186 974 213 949 q 160 1035 160 1000 q 186 1097 160 1071 q 253 1122 213 1122 q 317 1097 290 1122 q 343 1035 343 1071 q 317 974 343 1000 q 253 949 290 949 m 253 964 q 304 985 282 964 q 326 1033 326 1006 q 304 1086 326 1064 q 253 1108 282 1108 q 199 1086 221 1108 q 178 1033 178 1064 q 199 985 178 1006 q 253 964 221 964 z "},"Ǻ":{"ha":508,"x_min":33,"x_max":472,"o":"m 33 0 l 217 861 l 292 861 l 472 0 l 443 0 l 396 222 l 406 214 l 100 214 l 108 222 l 63 0 l 33 0 m 108 232 l 104 238 l 401 238 l 396 232 l 272 831 l 269 832 l 239 832 l 236 831 l 108 232 m 253 949 q 186 974 213 949 q 160 1035 160 1000 q 186 1097 160 1071 q 253 1122 213 1122 q 317 1097 290 1122 q 343 1035 343 1071 q 317 974 343 1000 q 253 949 290 949 m 253 964 q 304 985 282 964 q 326 1033 326 1006 q 304 1086 326 1064 q 253 1108 282 1108 q 199 1086 221 1108 q 178 1033 178 1064 q 199 985 178 1006 q 253 964 221 964 m 203 1144 l 333 1258 l 371 1258 l 224 1144 l 203 1144 z "},"Ã":{"ha":508,"x_min":33,"x_max":472,"o":"m 33 0 l 217 861 l 292 861 l 472 0 l 443 0 l 396 222 l 406 214 l 100 214 l 108 222 l 63 0 l 33 0 m 108 232 l 104 238 l 401 238 l 396 232 l 272 831 l 269 832 l 239 832 l 236 831 l 108 232 m 128 947 q 147 1017 128 996 q 192 1039 165 1039 q 238 1023 219 1039 q 273 991 256 1007 q 311 975 290 975 q 351 997 343 975 q 358 1036 358 1018 l 378 1036 q 358 971 378 989 q 314 953 338 953 q 268 969 288 953 q 232 1002 249 986 q 194 1018 215 1018 q 158 999 169 1018 q 147 947 147 979 l 128 947 z "},"B":{"ha":539,"x_min":97,"x_max":461,"o":"m 97 0 l 97 861 l 297 861 q 389 851 357 861 q 433 813 421 842 q 446 728 446 785 l 446 639 q 430 553 446 588 q 390 502 414 519 q 346 481 367 485 l 347 481 q 414 453 389 472 q 450 405 439 435 q 461 332 461 375 l 461 154 q 449 61 461 94 q 405 14 438 28 q 310 0 372 0 l 97 0 m 125 24 l 304 24 q 375 32 347 24 q 417 69 403 40 q 431 161 431 99 l 431 343 q 387 439 431 410 q 278 468 343 468 l 125 468 l 125 24 m 125 492 l 297 492 q 353 505 325 492 q 399 551 381 518 q 418 647 418 585 l 418 704 q 411 785 418 756 q 379 826 404 814 q 299 839 354 839 l 125 839 l 125 492 z "},"C":{"ha":513,"x_min":81,"x_max":439,"o":"m 258 -8 q 127 25 174 -8 q 81 128 81 58 l 81 728 q 122 835 81 797 q 254 872 163 872 q 395 836 351 872 q 439 726 439 800 l 439 542 l 411 536 l 411 721 q 379 813 411 778 q 258 847 347 847 q 140 813 172 847 q 108 722 108 778 l 108 132 q 144 48 108 81 q 258 15 181 15 q 374 48 338 15 q 411 133 411 81 l 411 311 l 439 318 l 439 129 q 392 25 439 58 q 258 -8 344 -8 z "},"Ć":{"ha":513,"x_min":81,"x_max":439,"o":"m 258 -8 q 127 25 174 -8 q 81 128 81 58 l 81 728 q 122 835 81 797 q 254 872 163 872 q 395 836 351 872 q 439 726 439 800 l 439 542 l 411 536 l 411 721 q 379 813 411 778 q 258 847 347 847 q 140 813 172 847 q 108 722 108 778 l 108 132 q 144 48 108 81 q 258 15 181 15 q 374 48 338 15 q 411 133 411 81 l 411 311 l 439 318 l 439 129 q 392 25 439 58 q 258 -8 344 -8 m 207 956 l 338 1069 l 375 1069 l 228 956 l 207 956 z "},"Č":{"ha":513,"x_min":81,"x_max":439,"o":"m 119 1074 l 143 1074 l 257 974 l 371 1074 l 392 1074 l 275 956 l 236 956 l 119 1074 m 258 -8 q 127 25 174 -8 q 81 128 81 58 l 81 728 q 122 835 81 797 q 254 872 163 872 q 395 836 351 872 q 439 726 439 800 l 439 542 l 411 536 l 411 721 q 379 813 411 778 q 258 847 347 847 q 140 813 172 847 q 108 722 108 778 l 108 132 q 144 48 108 81 q 258 15 181 15 q 374 48 338 15 q 411 133 411 81 l 411 311 l 439 318 l 439 129 q 392 25 439 58 q 258 -8 344 -8 z "},"Ç":{"ha":513,"x_min":81,"x_max":439,"o":"m 258 -8 q 127 25 174 -8 q 81 128 81 58 l 81 728 q 122 835 81 797 q 254 872 163 872 q 395 836 351 872 q 439 726 439 800 l 439 542 l 411 536 l 411 721 q 379 813 411 778 q 258 847 347 847 q 140 813 172 847 q 108 722 108 778 l 108 132 q 144 48 108 81 q 258 15 181 15 q 374 48 338 15 q 411 133 411 81 l 411 311 l 439 318 l 439 129 q 392 25 439 58 q 258 -8 344 -8 m 274 -232 q 226 -221 247 -232 q 193 -199 204 -210 l 207 -183 q 233 -204 214 -193 q 272 -215 251 -215 q 328 -190 308 -215 q 349 -137 349 -164 q 333 -91 349 -112 q 279 -69 317 -69 q 236 -80 256 -69 q 203 -106 217 -90 l 185 -89 l 257 0 l 276 0 l 217 -76 q 282 -53 249 -53 q 351 -79 331 -53 q 371 -135 371 -106 q 346 -200 371 -168 q 274 -232 321 -232 z "},"Ĉ":{"ha":513,"x_min":81,"x_max":439,"o":"m 258 -8 q 127 25 174 -8 q 81 128 81 58 l 81 728 q 122 835 81 797 q 254 872 163 872 q 395 836 351 872 q 439 726 439 800 l 439 542 l 411 536 l 411 721 q 379 813 411 778 q 258 847 347 847 q 140 813 172 847 q 108 722 108 778 l 108 132 q 144 48 108 81 q 258 15 181 15 q 374 48 338 15 q 411 133 411 81 l 411 311 l 439 318 l 439 129 q 392 25 439 58 q 258 -8 344 -8 m 119 956 l 236 1074 l 275 1074 l 392 956 l 371 956 l 257 1056 l 143 956 l 119 956 z "},"Ċ":{"ha":513,"x_min":81,"x_max":439,"o":"m 258 -8 q 127 25 174 -8 q 81 128 81 58 l 81 728 q 122 835 81 797 q 254 872 163 872 q 395 836 351 872 q 439 726 439 800 l 439 542 l 411 536 l 411 721 q 379 813 411 778 q 258 847 347 847 q 140 813 172 847 q 108 722 108 778 l 108 132 q 144 48 108 81 q 258 15 181 15 q 374 48 338 15 q 411 133 411 81 l 411 311 l 439 318 l 439 129 q 392 25 439 58 q 258 -8 344 -8 m 256 953 q 236 959 239 953 q 233 975 233 965 q 236 993 233 986 q 256 1000 239 1000 q 275 993 272 1000 q 278 975 278 986 q 275 959 278 965 q 256 953 272 953 z "},"D":{"ha":539,"x_min":97,"x_max":458,"o":"m 97 861 l 338 861 q 431 826 403 861 q 458 725 458 790 l 458 138 q 434 31 458 63 q 326 0 410 0 l 97 0 l 97 861 m 314 24 q 406 47 382 24 q 431 142 431 69 l 431 721 q 403 809 431 781 q 329 838 376 838 l 125 838 l 125 24 l 314 24 z "},"Ǆ":{"ha":931,"x_min":97,"x_max":897,"o":"m 597 1074 l 621 1074 l 735 974 l 849 1074 l 869 1074 l 753 956 l 714 956 l 597 1074 m 97 861 l 338 861 q 431 826 403 861 q 458 725 458 790 l 458 138 q 434 31 458 63 q 326 0 410 0 l 97 0 l 97 861 m 314 24 q 406 47 382 24 q 431 142 431 69 l 431 721 q 403 809 431 781 q 329 838 376 838 l 125 838 l 125 24 l 314 24 m 561 0 l 850 838 l 585 838 l 585 861 l 885 861 l 597 24 l 897 24 l 897 0 l 561 0 z "},"Ď":{"ha":539,"x_min":97,"x_max":458,"o":"m 135 1074 l 158 1074 l 272 974 l 386 1074 l 407 1074 l 290 956 l 251 956 l 135 1074 m 97 861 l 338 861 q 431 826 403 861 q 458 725 458 790 l 458 138 q 434 31 458 63 q 326 0 410 0 l 97 0 l 97 861 m 314 24 q 406 47 382 24 q 431 142 431 69 l 431 721 q 403 809 431 781 q 329 838 376 838 l 125 838 l 125 24 l 314 24 z "},"Đ":{"ha":539,"x_min":-3,"x_max":458,"o":"m -3 272 l -3 297 l 197 297 l 197 272 l -3 272 m 97 861 l 338 861 q 431 826 403 861 q 458 725 458 790 l 458 138 q 434 31 458 63 q 326 0 410 0 l 97 0 l 97 861 m 314 24 q 406 47 382 24 q 431 142 431 69 l 431 721 q 403 809 431 781 q 329 838 376 838 l 125 838 l 125 24 l 314 24 z "},"ǅ":{"ha":925,"x_min":97,"x_max":894,"o":"m 596 865 l 619 865 l 733 765 l 847 865 l 868 865 l 751 747 l 713 747 l 596 865 m 97 861 l 338 861 q 431 826 403 861 q 458 725 458 790 l 458 138 q 434 31 458 63 q 326 0 410 0 l 97 0 l 97 861 m 314 24 q 406 47 382 24 q 431 142 431 69 l 431 721 q 403 809 431 781 q 329 838 376 838 l 125 838 l 125 24 l 314 24 m 574 13 l 851 629 l 575 629 l 583 653 l 883 653 l 883 633 l 608 24 l 894 24 l 881 0 l 574 0 l 574 13 z "},"E":{"ha":507,"x_min":97,"x_max":458,"o":"m 97 861 l 458 861 l 458 838 l 125 838 l 125 503 l 439 503 l 432 481 l 125 481 l 125 22 l 458 22 l 458 0 l 97 0 l 97 861 z "},"É":{"ha":507,"x_min":97,"x_max":458,"o":"m 97 861 l 458 861 l 458 838 l 125 838 l 125 503 l 439 503 l 432 481 l 125 481 l 125 22 l 458 22 l 458 0 l 97 0 l 97 861 m 207 956 l 338 1069 l 375 1069 l 228 956 l 207 956 z "},"Ĕ":{"ha":507,"x_min":97,"x_max":458,"o":"m 97 861 l 458 861 l 458 838 l 125 838 l 125 503 l 439 503 l 432 481 l 125 481 l 125 22 l 458 22 l 458 0 l 97 0 l 97 861 m 254 950 q 178 969 204 950 q 144 1017 153 989 q 136 1068 136 1044 l 157 1068 q 178 1002 157 1035 q 254 969 199 969 q 335 1002 313 969 q 358 1068 357 1035 l 378 1068 q 350 984 378 1018 q 254 950 322 950 z "},"Ě":{"ha":507,"x_min":97,"x_max":458,"o":"m 119 1074 l 143 1074 l 257 974 l 371 1074 l 392 1074 l 275 956 l 236 956 l 119 1074 m 97 861 l 458 861 l 458 838 l 125 838 l 125 503 l 439 503 l 432 481 l 125 481 l 125 22 l 458 22 l 458 0 l 97 0 l 97 861 z "},"Ê":{"ha":507,"x_min":97,"x_max":458,"o":"m 97 861 l 458 861 l 458 838 l 125 838 l 125 503 l 439 503 l 432 481 l 125 481 l 125 22 l 458 22 l 458 0 l 97 0 l 97 861 m 119 956 l 236 1074 l 275 1074 l 392 956 l 371 956 l 257 1056 l 143 956 l 119 956 z "},"Ế":{"ha":507,"x_min":97,"x_max":489,"o":"m 97 861 l 458 861 l 458 838 l 125 838 l 125 503 l 439 503 l 432 481 l 125 481 l 125 22 l 458 22 l 458 0 l 97 0 l 97 861 m 143 936 l 236 1031 l 274 1031 l 367 936 l 346 936 l 257 1014 l 168 936 l 143 936 m 358 1018 l 453 1121 l 489 1121 l 381 1018 l 358 1018 z "},"Ệ":{"ha":507,"x_min":97,"x_max":458,"o":"m 97 861 l 458 861 l 458 838 l 125 838 l 125 503 l 439 503 l 432 481 l 125 481 l 125 22 l 458 22 l 458 0 l 97 0 l 97 861 m 256 -114 q 236 -108 239 -114 q 233 -92 233 -101 q 236 -74 233 -81 q 256 -67 239 -67 q 275 -74 272 -67 q 278 -92 278 -81 q 275 -108 278 -101 q 256 -114 272 -114 m 119 956 l 236 1074 l 275 1074 l 392 956 l 371 956 l 257 1056 l 143 956 l 119 956 z "},"Ề":{"ha":507,"x_min":97,"x_max":458,"o":"m 97 861 l 458 861 l 458 838 l 125 838 l 125 503 l 439 503 l 432 481 l 125 481 l 125 22 l 458 22 l 458 0 l 97 0 l 97 861 m 143 936 l 236 1031 l 274 1031 l 367 936 l 346 936 l 257 1014 l 168 936 l 143 936 m 389 1018 l 281 1121 l 314 1121 l 410 1018 l 389 1018 z "},"Ể":{"ha":507,"x_min":97,"x_max":467,"o":"m 97 861 l 458 861 l 458 838 l 125 838 l 125 503 l 439 503 l 432 481 l 125 481 l 125 22 l 458 22 l 458 0 l 97 0 l 97 861 m 143 936 l 236 1031 l 274 1031 l 367 936 l 346 936 l 257 1014 l 168 936 l 143 936 m 382 1018 q 397 1047 382 1036 q 428 1071 413 1058 q 443 1106 443 1083 q 428 1135 443 1124 q 394 1146 413 1146 q 355 1131 368 1146 q 338 1096 342 1115 l 322 1101 q 344 1145 325 1129 q 397 1161 364 1161 q 448 1146 429 1161 q 467 1107 467 1131 q 458 1074 467 1086 q 436 1053 449 1061 q 415 1037 424 1044 q 406 1018 406 1029 l 382 1018 z "},"Ễ":{"ha":507,"x_min":97,"x_max":458,"o":"m 97 861 l 458 861 l 458 838 l 125 838 l 125 503 l 439 503 l 432 481 l 125 481 l 125 22 l 458 22 l 458 0 l 97 0 l 97 861 m 143 936 l 236 1031 l 274 1031 l 367 936 l 346 936 l 257 1014 l 168 936 l 143 936 m 150 1057 q 166 1116 150 1097 q 204 1135 182 1135 q 242 1122 226 1135 q 271 1095 257 1108 q 301 1082 285 1082 q 332 1100 325 1082 q 339 1132 339 1118 l 357 1132 q 340 1077 357 1093 q 303 1061 324 1061 q 267 1074 282 1061 q 238 1100 251 1088 q 207 1113 224 1113 q 178 1098 188 1113 q 169 1057 169 1083 l 150 1057 z "},"Ȅ":{"ha":507,"x_min":72,"x_max":458,"o":"m 97 861 l 458 861 l 458 838 l 125 838 l 125 503 l 439 503 l 432 481 l 125 481 l 125 22 l 458 22 l 458 0 l 97 0 l 97 861 m 206 956 l 72 1083 l 110 1083 l 226 956 l 206 956 m 290 956 l 157 1083 l 194 1083 l 311 956 l 290 956 z "},"Ë":{"ha":507,"x_min":97,"x_max":458,"o":"m 97 861 l 458 861 l 458 838 l 125 838 l 125 503 l 439 503 l 432 481 l 125 481 l 125 22 l 458 22 l 458 0 l 97 0 l 97 861 m 314 951 q 296 958 299 951 q 293 974 293 964 q 296 991 293 985 q 314 997 299 997 q 335 991 332 997 q 338 974 338 985 q 335 958 338 964 q 314 951 332 951 m 197 951 q 178 958 181 951 q 175 974 175 964 q 178 991 175 985 q 197 997 181 997 q 217 991 214 997 q 219 974 219 985 q 217 958 219 964 q 197 951 214 951 z "},"Ė":{"ha":507,"x_min":97,"x_max":458,"o":"m 97 861 l 458 861 l 458 838 l 125 838 l 125 503 l 439 503 l 432 481 l 125 481 l 125 22 l 458 22 l 458 0 l 97 0 l 97 861 m 256 953 q 236 959 239 953 q 233 975 233 965 q 236 993 233 986 q 256 1000 239 1000 q 275 993 272 1000 q 278 975 278 986 q 275 959 278 965 q 256 953 272 953 z "},"Ẹ":{"ha":507,"x_min":97,"x_max":458,"o":"m 97 861 l 458 861 l 458 838 l 125 838 l 125 503 l 439 503 l 432 481 l 125 481 l 125 22 l 458 22 l 458 0 l 97 0 l 97 861 m 256 -114 q 236 -108 239 -114 q 233 -92 233 -101 q 236 -74 233 -81 q 256 -67 239 -67 q 275 -74 272 -67 q 278 -92 278 -81 q 275 -108 278 -101 q 256 -114 272 -114 z "},"È":{"ha":507,"x_min":97,"x_max":458,"o":"m 97 861 l 458 861 l 458 838 l 125 838 l 125 503 l 439 503 l 432 481 l 125 481 l 125 22 l 458 22 l 458 0 l 97 0 l 97 861 m 264 956 l 117 1069 l 154 1069 l 285 956 l 264 956 z "},"Ẻ":{"ha":507,"x_min":97,"x_max":458,"o":"m 97 861 l 458 861 l 458 838 l 125 838 l 125 503 l 439 503 l 432 481 l 125 481 l 125 22 l 458 22 l 458 0 l 97 0 l 97 861 m 243 956 q 255 984 243 972 q 283 1006 267 996 q 310 1031 299 1017 q 322 1065 322 1044 q 302 1103 322 1089 q 258 1117 282 1117 q 206 1097 222 1117 q 186 1053 190 1078 l 169 1058 q 196 1115 172 1094 q 261 1135 219 1135 q 322 1115 301 1135 q 343 1067 343 1094 q 331 1025 343 1040 q 305 1000 319 1010 q 278 981 290 990 q 267 956 267 971 l 243 956 z "},"Ȇ":{"ha":507,"x_min":97,"x_max":458,"o":"m 254 1065 q 350 1030 322 1065 q 378 947 378 994 l 358 947 q 335 1016 358 988 q 254 1044 313 1044 q 177 1015 199 1044 q 156 947 156 985 l 136 947 q 144 999 136 971 q 178 1046 153 1026 q 254 1065 204 1065 m 97 861 l 458 861 l 458 838 l 125 838 l 125 503 l 439 503 l 432 481 l 125 481 l 125 22 l 458 22 l 458 0 l 97 0 l 97 861 z "},"Ē":{"ha":507,"x_min":97,"x_max":458,"o":"m 97 861 l 458 861 l 458 838 l 125 838 l 125 503 l 439 503 l 432 481 l 125 481 l 125 22 l 458 22 l 458 0 l 97 0 l 97 861 m 125 967 l 125 988 l 388 988 l 388 967 l 125 967 z "},"Ŋ":{"ha":560,"x_min":97,"x_max":463,"o":"m 285 -239 l 279 -217 l 369 -217 q 422 -194 410 -217 q 435 -129 435 -172 l 435 -12 l 129 774 l 126 782 l 125 783 l 125 0 l 97 0 l 97 861 l 126 861 l 431 61 l 433 54 l 435 51 l 435 861 l 463 861 l 463 -131 q 443 -215 463 -190 q 371 -239 424 -239 l 285 -239 z "},"Ę":{"ha":507,"x_min":97,"x_max":490,"o":"m 97 861 l 458 861 l 458 838 l 125 838 l 125 503 l 439 503 l 432 481 l 125 481 l 125 22 l 458 22 l 458 0 l 97 0 l 97 861 m 394 -219 q 334 -192 357 -219 q 311 -124 311 -164 q 341 -49 311 -87 q 435 11 371 -11 l 454 6 q 369 -47 403 -17 q 335 -122 335 -76 q 353 -176 335 -153 q 403 -199 372 -199 q 447 -192 428 -199 q 488 -168 465 -186 l 490 -189 q 444 -213 465 -207 q 394 -219 422 -219 z "},"Ð":{"ha":515,"x_min":3,"x_max":461,"o":"m 96 861 l 338 861 q 432 826 403 861 q 461 725 461 790 l 461 138 q 436 31 461 63 q 326 0 411 0 l 96 0 l 96 861 m 3 247 l 3 267 l 289 267 l 289 247 l 3 247 m 315 24 q 408 47 383 24 q 432 142 432 69 l 432 721 q 404 809 432 781 q 329 838 376 838 l 125 838 l 125 24 l 315 24 z "},"Ẽ":{"ha":507,"x_min":97,"x_max":458,"o":"m 97 861 l 458 861 l 458 838 l 125 838 l 125 503 l 439 503 l 432 481 l 125 481 l 125 22 l 458 22 l 458 0 l 97 0 l 97 861 m 132 947 q 151 1017 132 996 q 196 1039 169 1039 q 242 1023 224 1039 q 277 991 260 1007 q 315 975 294 975 q 355 997 347 975 q 363 1036 363 1018 l 382 1036 q 362 971 382 989 q 318 953 342 953 q 272 969 292 953 q 236 1002 253 986 q 199 1018 219 1018 q 163 999 174 1018 q 151 947 151 979 l 132 947 z "},"F":{"ha":500,"x_min":97,"x_max":458,"o":"m 97 861 l 458 861 l 458 838 l 125 838 l 125 503 l 439 503 l 432 481 l 125 481 l 125 0 l 97 0 l 97 861 z "},"G":{"ha":521,"x_min":81,"x_max":444,"o":"m 268 -3 q 169 5 211 -3 q 103 38 126 13 q 81 114 81 63 l 81 754 q 131 845 81 824 q 268 867 182 867 q 399 844 354 867 q 444 753 444 822 l 444 594 l 417 588 l 417 750 q 377 825 417 807 q 268 843 338 843 q 154 828 200 843 q 108 751 108 813 l 108 117 q 129 52 108 72 q 186 26 150 32 q 268 21 222 21 q 344 26 311 21 q 397 52 378 32 q 417 117 417 72 l 417 439 l 229 439 l 236 463 l 444 463 l 444 114 q 424 38 444 63 q 365 5 404 13 q 268 -3 325 -3 z "},"Ğ":{"ha":521,"x_min":81,"x_max":444,"o":"m 268 -3 q 169 5 211 -3 q 103 38 126 13 q 81 114 81 63 l 81 754 q 131 845 81 824 q 268 867 182 867 q 399 844 354 867 q 444 753 444 822 l 444 594 l 417 588 l 417 750 q 377 825 417 807 q 268 843 338 843 q 154 828 200 843 q 108 751 108 813 l 108 117 q 129 52 108 72 q 186 26 150 32 q 268 21 222 21 q 344 26 311 21 q 397 52 378 32 q 417 117 417 72 l 417 439 l 229 439 l 236 463 l 444 463 l 444 114 q 424 38 444 63 q 365 5 404 13 q 268 -3 325 -3 m 257 950 q 181 969 207 950 q 147 1017 156 989 q 139 1068 139 1044 l 160 1068 q 181 1002 160 1035 q 257 969 201 969 q 338 1002 315 969 q 361 1068 360 1035 l 381 1068 q 353 984 381 1018 q 257 950 325 950 z "},"Ǧ":{"ha":521,"x_min":81,"x_max":444,"o":"m 122 1074 l 146 1074 l 260 974 l 374 1074 l 394 1074 l 278 956 l 239 956 l 122 1074 m 268 -3 q 169 5 211 -3 q 103 38 126 13 q 81 114 81 63 l 81 754 q 131 845 81 824 q 268 867 182 867 q 399 844 354 867 q 444 753 444 822 l 444 594 l 417 588 l 417 750 q 377 825 417 807 q 268 843 338 843 q 154 828 200 843 q 108 751 108 813 l 108 117 q 129 52 108 72 q 186 26 150 32 q 268 21 222 21 q 344 26 311 21 q 397 52 378 32 q 417 117 417 72 l 417 439 l 229 439 l 236 463 l 444 463 l 444 114 q 424 38 444 63 q 365 5 404 13 q 268 -3 325 -3 z "},"Ĝ":{"ha":521,"x_min":81,"x_max":444,"o":"m 268 -3 q 169 5 211 -3 q 103 38 126 13 q 81 114 81 63 l 81 754 q 131 845 81 824 q 268 867 182 867 q 399 844 354 867 q 444 753 444 822 l 444 594 l 417 588 l 417 750 q 377 825 417 807 q 268 843 338 843 q 154 828 200 843 q 108 751 108 813 l 108 117 q 129 52 108 72 q 186 26 150 32 q 268 21 222 21 q 344 26 311 21 q 397 52 378 32 q 417 117 417 72 l 417 439 l 229 439 l 236 463 l 444 463 l 444 114 q 424 38 444 63 q 365 5 404 13 q 268 -3 325 -3 m 122 956 l 239 1074 l 278 1074 l 394 956 l 374 956 l 260 1056 l 146 956 l 122 956 z "},"Ģ":{"ha":521,"x_min":81,"x_max":444,"o":"m 268 -3 q 169 5 211 -3 q 103 38 126 13 q 81 114 81 63 l 81 754 q 131 845 81 824 q 268 867 182 867 q 399 844 354 867 q 444 753 444 822 l 444 594 l 417 588 l 417 750 q 377 825 417 807 q 268 843 338 843 q 154 828 200 843 q 108 751 108 813 l 108 117 q 129 52 108 72 q 186 26 150 32 q 268 21 222 21 q 344 26 311 21 q 397 52 378 32 q 417 117 417 72 l 417 439 l 229 439 l 236 463 l 444 463 l 444 114 q 424 38 444 63 q 365 5 404 13 q 268 -3 325 -3 m 229 -207 q 257 -157 246 -183 q 268 -100 268 -131 q 247 -96 250 -100 q 243 -86 243 -92 q 246 -72 243 -78 q 267 -67 249 -67 q 285 -72 282 -67 q 288 -85 288 -76 q 283 -128 288 -106 q 269 -172 278 -151 q 247 -207 260 -192 l 229 -207 z "},"Ġ":{"ha":521,"x_min":81,"x_max":444,"o":"m 268 -3 q 169 5 211 -3 q 103 38 126 13 q 81 114 81 63 l 81 754 q 131 845 81 824 q 268 867 182 867 q 399 844 354 867 q 444 753 444 822 l 444 594 l 417 588 l 417 750 q 377 825 417 807 q 268 843 338 843 q 154 828 200 843 q 108 751 108 813 l 108 117 q 129 52 108 72 q 186 26 150 32 q 268 21 222 21 q 344 26 311 21 q 397 52 378 32 q 417 117 417 72 l 417 439 l 229 439 l 236 463 l 444 463 l 444 114 q 424 38 444 63 q 365 5 404 13 q 268 -3 325 -3 m 258 953 q 239 959 242 953 q 236 975 236 965 q 239 993 236 986 q 258 1000 242 1000 q 278 993 275 1000 q 281 975 281 986 q 278 959 281 965 q 258 953 275 953 z "},"ẞ":{"ha":613,"x_min":97,"x_max":532,"o":"m 347 -8 q 213 32 254 -8 q 172 146 172 72 l 199 151 q 210 85 199 117 q 254 34 222 54 q 347 14 286 14 q 463 39 421 14 q 506 147 506 64 q 500 215 506 189 q 476 265 494 242 q 418 317 458 288 q 369 345 400 328 q 314 376 339 363 q 267 407 286 392 q 237 444 247 422 q 226 494 226 465 q 241 554 226 528 q 288 610 256 581 l 354 667 q 392 713 379 690 q 404 768 404 736 q 372 827 404 813 q 289 842 340 842 l 242 842 q 147 823 169 842 q 125 749 125 804 l 125 0 l 97 0 l 97 751 q 124 838 97 814 q 232 861 150 861 l 297 861 q 398 842 364 861 q 432 772 432 822 q 419 706 432 732 q 379 654 407 681 l 306 590 q 268 544 282 567 q 254 494 254 522 q 271 442 254 465 q 326 397 288 418 q 376 371 357 382 q 408 352 394 360 q 432 338 421 344 q 498 283 476 307 q 526 230 519 258 q 532 157 532 201 q 490 30 532 68 q 347 -8 449 -8 z "},"H":{"ha":556,"x_min":97,"x_max":458,"o":"m 97 861 l 125 861 l 125 503 l 431 503 l 431 861 l 458 861 l 458 0 l 431 0 l 431 481 l 125 481 l 125 0 l 97 0 l 97 861 z "},"Ħ":{"ha":503,"x_min":14,"x_max":492,"o":"m 14 735 l 14 760 l 492 760 l 492 735 l 14 735 m 115 861 l 143 861 l 143 503 l 449 503 l 449 861 l 476 861 l 476 0 l 449 0 l 449 481 l 143 481 l 143 0 l 115 0 l 115 861 z "},"Ĥ":{"ha":556,"x_min":97,"x_max":458,"o":"m 97 861 l 125 861 l 125 503 l 431 503 l 431 861 l 458 861 l 458 0 l 431 0 l 431 481 l 125 481 l 125 0 l 97 0 l 97 861 m 140 956 l 257 1074 l 296 1074 l 413 956 l 392 956 l 278 1056 l 164 956 l 140 956 z "},"I":{"ha":222,"x_min":97,"x_max":125,"o":"m 97 861 l 125 861 l 125 0 l 97 0 l 97 861 z "},"Í":{"ha":222,"x_min":61,"x_max":229,"o":"m 97 861 l 125 861 l 125 0 l 97 0 l 97 861 m 61 956 l 192 1069 l 229 1069 l 82 956 l 61 956 z "},"Ĭ":{"ha":222,"x_min":-10,"x_max":232,"o":"m 97 861 l 125 861 l 125 0 l 97 0 l 97 861 m 108 950 q 33 969 58 950 q -1 1017 7 989 q -10 1068 -10 1044 l 11 1068 q 32 1002 11 1035 q 108 969 53 969 q 189 1002 167 969 q 213 1068 211 1035 l 232 1068 q 204 984 232 1018 q 108 950 176 950 z "},"Ǐ":{"ha":222,"x_min":-26,"x_max":246,"o":"m -26 1074 l -3 1074 l 111 974 l 225 1074 l 246 1074 l 129 956 l 90 956 l -26 1074 m 97 861 l 125 861 l 125 0 l 97 0 l 97 861 z "},"Î":{"ha":222,"x_min":-26,"x_max":246,"o":"m 97 861 l 125 861 l 125 0 l 97 0 l 97 861 m -26 956 l 90 1074 l 129 1074 l 246 956 l 225 956 l 111 1056 l -3 956 l -26 956 z "},"Ȉ":{"ha":222,"x_min":-74,"x_max":165,"o":"m 97 861 l 125 861 l 125 0 l 97 0 l 97 861 m 60 956 l -74 1083 l -36 1083 l 81 956 l 60 956 m 144 956 l 11 1083 l 49 1083 l 165 956 l 144 956 z "},"Ï":{"ha":222,"x_min":29,"x_max":192,"o":"m 97 861 l 125 861 l 125 0 l 97 0 l 97 861 m 168 951 q 150 958 153 951 q 147 974 147 964 q 150 991 147 985 q 168 997 153 997 q 189 991 186 997 q 192 974 192 985 q 189 958 192 964 q 168 951 186 951 m 51 951 q 32 958 35 951 q 29 974 29 964 q 32 991 29 985 q 51 997 35 997 q 71 991 68 997 q 74 974 74 985 q 71 958 74 964 q 51 951 68 951 z "},"İ":{"ha":222,"x_min":88,"x_max":132,"o":"m 97 861 l 125 861 l 125 0 l 97 0 l 97 861 m 110 953 q 90 959 93 953 q 88 975 88 965 q 90 993 88 986 q 110 1000 93 1000 q 129 993 126 1000 q 132 975 132 986 q 129 959 132 965 q 110 953 126 953 z "},"Ị":{"ha":222,"x_min":88,"x_max":132,"o":"m 97 861 l 125 861 l 125 0 l 97 0 l 97 861 m 110 -114 q 90 -108 93 -114 q 88 -92 88 -101 q 90 -74 88 -81 q 110 -67 93 -67 q 129 -74 126 -67 q 132 -92 132 -81 q 129 -108 132 -101 q 110 -114 126 -114 z "},"Ì":{"ha":222,"x_min":-29,"x_max":139,"o":"m 97 861 l 125 861 l 125 0 l 97 0 l 97 861 m 118 956 l -29 1069 l 8 1069 l 139 956 l 118 956 z "},"Ỉ":{"ha":222,"x_min":24,"x_max":197,"o":"m 97 861 l 125 861 l 125 0 l 97 0 l 97 861 m 97 956 q 109 984 97 972 q 137 1006 121 996 q 165 1031 153 1017 q 176 1065 176 1044 q 156 1103 176 1089 q 113 1117 136 1117 q 60 1097 76 1117 q 40 1053 44 1078 l 24 1058 q 50 1115 26 1094 q 115 1135 74 1135 q 176 1115 156 1135 q 197 1067 197 1094 q 185 1025 197 1040 q 159 1000 174 1010 q 133 981 144 990 q 121 956 121 971 l 97 956 z "},"Ȋ":{"ha":222,"x_min":-10,"x_max":232,"o":"m 108 1065 q 204 1030 176 1065 q 232 947 232 994 l 213 947 q 190 1016 213 988 q 108 1044 167 1044 q 31 1015 53 1044 q 10 947 10 985 l -10 947 q -1 999 -10 971 q 33 1046 7 1026 q 108 1065 58 1065 m 97 861 l 125 861 l 125 0 l 97 0 l 97 861 z "},"Ī":{"ha":222,"x_min":-21,"x_max":242,"o":"m 97 861 l 125 861 l 125 0 l 97 0 l 97 861 m -21 967 l -21 988 l 242 988 l 242 967 l -21 967 z "},"Į":{"ha":222,"x_min":-21,"x_max":158,"o":"m 97 861 l 125 861 l 125 0 l 97 0 l 97 861 m 63 -218 q 2 -190 25 -218 q -21 -122 -21 -162 q 9 -48 -21 -86 q 103 13 39 -10 l 122 7 q 37 -45 71 -15 q 3 -121 3 -75 q 22 -174 3 -151 q 71 -197 40 -197 q 115 -191 96 -197 q 156 -167 133 -185 l 158 -187 q 112 -212 133 -206 q 63 -218 90 -218 z "},"Ĩ":{"ha":222,"x_min":-14,"x_max":236,"o":"m 97 861 l 125 861 l 125 0 l 97 0 l 97 861 m -14 947 q 5 1017 -14 996 q 50 1039 24 1039 q 96 1023 78 1039 q 131 991 114 1007 q 169 975 149 975 q 209 997 201 975 q 217 1036 217 1018 l 236 1036 q 216 971 236 989 q 172 953 196 953 q 126 969 146 953 q 90 1002 107 986 q 53 1018 74 1018 q 17 999 28 1018 q 6 947 6 979 l -14 947 z "},"J":{"ha":243,"x_min":0,"x_max":151,"o":"m 7 0 l 0 24 l 71 24 q 108 31 97 24 q 122 58 119 38 q 124 122 124 79 l 124 861 l 151 861 l 151 118 q 148 40 151 65 q 127 7 144 14 q 68 0 110 0 l 7 0 z "},"Ĵ":{"ha":243,"x_min":0,"x_max":272,"o":"m 7 0 l 0 24 l 71 24 q 108 31 97 24 q 122 58 119 38 q 124 122 124 79 l 124 861 l 151 861 l 151 118 q 148 40 151 65 q 127 7 144 14 q 68 0 110 0 l 7 0 m 0 956 l 117 1074 l 156 1074 l 272 956 l 251 956 l 138 1056 l 24 956 l 0 956 z "},"K":{"ha":474,"x_min":97,"x_max":454,"o":"m 428 -8 l 183 465 l 411 865 l 433 853 l 214 465 l 454 4 l 428 -8 m 97 861 l 125 861 l 125 0 l 97 0 l 97 861 z "},"Ķ":{"ha":474,"x_min":97,"x_max":454,"o":"m 428 -8 l 183 465 l 411 865 l 433 853 l 214 465 l 454 4 l 428 -8 m 97 861 l 125 861 l 125 0 l 97 0 l 97 861 m 213 -207 q 240 -157 229 -183 q 251 -100 251 -131 q 230 -96 233 -100 q 226 -86 226 -92 q 229 -72 226 -78 q 250 -67 232 -67 q 268 -72 265 -67 q 271 -85 271 -76 q 266 -128 271 -106 q 252 -172 261 -151 q 231 -207 243 -192 l 213 -207 z "},"L":{"ha":440,"x_min":97,"x_max":418,"o":"m 97 861 l 125 861 l 125 22 l 418 22 l 418 0 l 97 0 l 97 861 z "},"Ǉ":{"ha":683,"x_min":97,"x_max":592,"o":"m 97 861 l 125 861 l 125 22 l 418 22 l 418 0 l 97 0 l 97 861 m 447 0 l 440 24 l 511 24 q 549 31 538 24 q 562 58 560 38 q 564 122 564 79 l 564 861 l 592 861 l 592 118 q 588 40 592 65 q 567 7 585 14 q 508 0 550 0 l 447 0 z "},"Ĺ":{"ha":440,"x_min":68,"x_max":418,"o":"m 97 861 l 125 861 l 125 22 l 418 22 l 418 0 l 97 0 l 97 861 m 68 956 l 199 1069 l 236 1069 l 89 956 l 68 956 z "},"Ľ":{"ha":440,"x_min":97,"x_max":418,"o":"m 97 861 l 125 861 l 125 22 l 418 22 l 418 0 l 97 0 l 97 861 m 244 707 l 282 901 l 307 901 l 260 707 l 244 707 z "},"Ļ":{"ha":440,"x_min":97,"x_max":418,"o":"m 97 861 l 125 861 l 125 22 l 418 22 l 418 0 l 97 0 l 97 861 m 221 -207 q 249 -157 238 -183 q 260 -100 260 -131 q 238 -96 242 -100 q 235 -86 235 -92 q 238 -72 235 -78 q 258 -67 240 -67 q 276 -72 274 -67 q 279 -85 279 -76 q 274 -128 279 -106 q 260 -172 269 -151 q 239 -207 251 -192 l 221 -207 z "},"Ŀ":{"ha":410,"x_min":97,"x_max":418,"o":"m 97 861 l 125 861 l 125 22 l 418 22 l 418 0 l 97 0 l 97 861 m 354 329 q 335 335 338 329 q 332 351 332 342 q 335 369 332 363 q 354 376 338 376 q 374 369 371 376 q 378 351 378 363 q 374 335 378 342 q 354 329 371 329 z "},"ǈ":{"ha":656,"x_min":97,"x_max":565,"o":"m 97 861 l 125 861 l 125 22 l 418 22 l 418 0 l 97 0 l 97 861 m 376 -236 l 371 -214 l 465 -214 q 518 -192 506 -214 q 531 -125 531 -169 l 531 653 l 558 653 l 558 -129 q 539 -212 558 -189 q 467 -236 519 -236 l 376 -236 m 544 758 q 526 762 531 758 q 522 778 522 765 q 526 795 522 790 q 544 800 531 800 q 562 795 558 800 q 565 778 565 790 q 562 762 565 765 q 544 758 558 758 z "},"Ł":{"ha":463,"x_min":-6,"x_max":396,"o":"m 74 861 l 101 861 l 101 22 l 396 22 l 396 0 l 74 0 l 74 861 m 1 304 l -6 326 l 229 389 l 236 367 l 1 304 z "},"M":{"ha":756,"x_min":97,"x_max":658,"o":"m 97 0 l 97 861 l 133 861 l 375 125 l 376 121 l 378 121 l 379 125 l 619 861 l 658 861 l 658 0 l 631 0 l 631 807 l 631 810 l 628 799 l 389 72 l 365 72 l 128 792 l 126 797 l 125 801 l 125 0 l 97 0 z "},"N":{"ha":560,"x_min":97,"x_max":463,"o":"m 97 0 l 97 861 l 126 861 l 431 68 l 433 61 l 435 58 l 435 861 l 463 861 l 463 0 l 431 0 l 129 779 l 125 789 l 125 789 l 125 0 l 97 0 z "},"Ǌ":{"ha":803,"x_min":97,"x_max":711,"o":"m 97 0 l 97 861 l 126 861 l 431 68 l 433 61 l 435 58 l 435 861 l 463 861 l 463 0 l 431 0 l 129 779 l 125 789 l 125 789 l 125 0 l 97 0 m 567 0 l 560 24 l 631 24 q 668 31 657 24 q 681 58 679 38 q 683 122 683 79 l 683 861 l 711 861 l 711 118 q 708 40 711 65 q 687 7 704 14 q 628 0 669 0 l 567 0 z "},"Ń":{"ha":560,"x_min":97,"x_max":463,"o":"m 97 0 l 97 861 l 126 861 l 431 68 l 433 61 l 435 58 l 435 861 l 463 861 l 463 0 l 431 0 l 129 779 l 125 789 l 125 789 l 125 0 l 97 0 m 231 956 l 361 1069 l 399 1069 l 251 956 l 231 956 z "},"Ň":{"ha":560,"x_min":97,"x_max":463,"o":"m 143 1074 l 167 1074 l 281 974 l 394 1074 l 415 1074 l 299 956 l 260 956 l 143 1074 m 97 0 l 97 861 l 126 861 l 431 68 l 433 61 l 435 58 l 435 861 l 463 861 l 463 0 l 431 0 l 129 779 l 125 789 l 125 789 l 125 0 l 97 0 z "},"Ņ":{"ha":560,"x_min":97,"x_max":463,"o":"m 97 0 l 97 861 l 126 861 l 431 68 l 433 61 l 435 58 l 435 861 l 463 861 l 463 0 l 431 0 l 129 779 l 125 789 l 125 789 l 125 0 l 97 0 m 250 -207 q 278 -157 267 -183 q 289 -100 289 -131 q 267 -96 271 -100 q 264 -86 264 -92 q 267 -72 264 -78 q 288 -67 269 -67 q 306 -72 303 -67 q 308 -85 308 -76 q 303 -128 308 -106 q 290 -172 299 -151 q 268 -207 281 -192 l 250 -207 z "},"ǋ":{"ha":775,"x_min":97,"x_max":685,"o":"m 97 0 l 97 861 l 126 861 l 431 68 l 433 61 l 435 58 l 435 861 l 463 861 l 463 0 l 431 0 l 129 779 l 125 789 l 125 789 l 125 0 l 97 0 m 496 -236 l 490 -214 l 585 -214 q 638 -192 625 -214 q 650 -125 650 -169 l 650 653 l 678 653 l 678 -129 q 658 -212 678 -189 q 586 -236 639 -236 l 496 -236 m 664 758 q 646 762 650 758 q 642 778 642 765 q 646 795 642 790 q 664 800 650 800 q 681 795 678 800 q 685 778 685 790 q 681 762 685 765 q 664 758 678 758 z "},"Ñ":{"ha":560,"x_min":97,"x_max":463,"o":"m 97 0 l 97 861 l 126 861 l 431 68 l 433 61 l 435 58 l 435 861 l 463 861 l 463 0 l 431 0 l 129 779 l 125 789 l 125 789 l 125 0 l 97 0 m 156 947 q 174 1017 156 996 q 219 1039 193 1039 q 265 1023 247 1039 q 301 991 283 1007 q 339 975 318 975 q 378 997 371 975 q 386 1036 386 1018 l 406 1036 q 385 971 406 989 q 342 953 365 953 q 296 969 315 953 q 260 1002 276 986 q 222 1018 243 1018 q 186 999 197 1018 q 175 947 175 979 l 156 947 z "},"O":{"ha":525,"x_min":81,"x_max":444,"o":"m 261 -3 q 128 28 176 -3 q 81 119 81 60 l 81 754 q 123 839 81 804 q 261 872 165 874 q 401 838 358 871 q 444 753 444 804 l 444 121 q 397 29 444 61 q 261 -3 350 -3 m 261 21 q 379 51 342 21 q 417 125 417 82 l 417 749 q 383 817 417 785 q 258 849 350 849 q 141 817 174 849 q 108 750 108 786 l 108 124 q 146 51 108 81 q 261 21 183 21 z "},"Œ":{"ha":813,"x_min":81,"x_max":764,"o":"m 261 -3 q 128 28 176 -3 q 81 119 81 60 l 81 753 q 124 840 81 806 q 261 872 167 874 q 397 838 356 871 q 438 751 438 804 l 438 121 q 392 29 438 61 q 261 -3 346 -3 m 261 21 q 379 51 342 21 q 417 125 417 82 l 417 746 q 403 794 417 771 q 355 833 389 818 q 258 847 321 847 q 141 815 174 847 q 108 747 108 783 l 108 124 q 146 51 108 82 q 261 21 183 21 m 417 0 l 417 861 l 764 861 l 764 838 l 444 838 l 444 503 l 746 503 l 738 481 l 444 481 l 444 22 l 764 22 l 764 0 l 417 0 z "},"Ó":{"ha":525,"x_min":81,"x_max":444,"o":"m 261 -3 q 128 28 176 -3 q 81 119 81 60 l 81 754 q 123 839 81 804 q 261 872 165 874 q 401 838 358 871 q 444 753 444 804 l 444 121 q 397 29 444 61 q 261 -3 350 -3 m 261 21 q 379 51 342 21 q 417 125 417 82 l 417 749 q 383 817 417 785 q 258 849 350 849 q 141 817 174 849 q 108 750 108 786 l 108 124 q 146 51 108 81 q 261 21 183 21 m 213 956 l 343 1069 l 381 1069 l 233 956 l 213 956 z "},"Ŏ":{"ha":525,"x_min":81,"x_max":444,"o":"m 261 -3 q 128 28 176 -3 q 81 119 81 60 l 81 754 q 123 839 81 804 q 261 872 165 874 q 401 838 358 871 q 444 753 444 804 l 444 121 q 397 29 444 61 q 261 -3 350 -3 m 261 21 q 379 51 342 21 q 417 125 417 82 l 417 749 q 383 817 417 785 q 258 849 350 849 q 141 817 174 849 q 108 750 108 786 l 108 124 q 146 51 108 81 q 261 21 183 21 m 260 950 q 184 969 210 950 q 150 1017 158 989 q 142 1068 142 1044 l 163 1068 q 183 1002 163 1035 q 260 969 204 969 q 340 1002 318 969 q 364 1068 363 1035 l 383 1068 q 356 984 383 1018 q 260 950 328 950 z "},"Ǒ":{"ha":525,"x_min":81,"x_max":444,"o":"m 125 1074 l 149 1074 l 263 974 l 376 1074 l 397 1074 l 281 956 l 242 956 l 125 1074 m 261 -3 q 128 28 176 -3 q 81 119 81 60 l 81 754 q 123 839 81 804 q 261 872 165 874 q 401 838 358 871 q 444 753 444 804 l 444 121 q 397 29 444 61 q 261 -3 350 -3 m 261 21 q 379 51 342 21 q 417 125 417 82 l 417 749 q 383 817 417 785 q 258 849 350 849 q 141 817 174 849 q 108 750 108 786 l 108 124 q 146 51 108 81 q 261 21 183 21 z "},"Ô":{"ha":525,"x_min":81,"x_max":444,"o":"m 261 -3 q 128 28 176 -3 q 81 119 81 60 l 81 754 q 123 839 81 804 q 261 872 165 874 q 401 838 358 871 q 444 753 444 804 l 444 121 q 397 29 444 61 q 261 -3 350 -3 m 261 21 q 379 51 342 21 q 417 125 417 82 l 417 749 q 383 817 417 785 q 258 849 350 849 q 141 817 174 849 q 108 750 108 786 l 108 124 q 146 51 108 81 q 261 21 183 21 m 125 956 l 242 1074 l 281 1074 l 397 956 l 376 956 l 263 1056 l 149 956 l 125 956 z "},"Ố":{"ha":525,"x_min":81,"x_max":494,"o":"m 261 -3 q 128 28 176 -3 q 81 119 81 60 l 81 754 q 123 839 81 804 q 261 872 165 874 q 401 838 358 871 q 444 753 444 804 l 444 121 q 397 29 444 61 q 261 -3 350 -3 m 261 21 q 379 51 342 21 q 417 125 417 82 l 417 749 q 383 817 417 785 q 258 849 350 849 q 141 817 174 849 q 108 750 108 786 l 108 124 q 146 51 108 81 q 261 21 183 21 m 149 936 l 242 1031 l 279 1031 l 372 936 l 351 936 l 263 1014 l 174 936 l 149 936 m 364 1018 l 458 1121 l 494 1121 l 386 1018 l 364 1018 z "},"Ộ":{"ha":525,"x_min":81,"x_max":444,"o":"m 261 -3 q 128 28 176 -3 q 81 119 81 60 l 81 754 q 123 839 81 804 q 261 872 165 874 q 401 838 358 871 q 444 753 444 804 l 444 121 q 397 29 444 61 q 261 -3 350 -3 m 261 21 q 379 51 342 21 q 417 125 417 82 l 417 749 q 383 817 417 785 q 258 849 350 849 q 141 817 174 849 q 108 750 108 786 l 108 124 q 146 51 108 81 q 261 21 183 21 m 261 -114 q 242 -108 244 -114 q 239 -92 239 -101 q 242 -74 239 -81 q 261 -67 244 -67 q 281 -74 278 -67 q 283 -92 283 -81 q 281 -108 283 -101 q 261 -114 278 -114 m 125 956 l 242 1074 l 281 1074 l 397 956 l 376 956 l 263 1056 l 149 956 l 125 956 z "},"Ồ":{"ha":525,"x_min":81,"x_max":444,"o":"m 261 -3 q 128 28 176 -3 q 81 119 81 60 l 81 754 q 123 839 81 804 q 261 872 165 874 q 401 838 358 871 q 444 753 444 804 l 444 121 q 397 29 444 61 q 261 -3 350 -3 m 261 21 q 379 51 342 21 q 417 125 417 82 l 417 749 q 383 817 417 785 q 258 849 350 849 q 141 817 174 849 q 108 750 108 786 l 108 124 q 146 51 108 81 q 261 21 183 21 m 149 936 l 242 1031 l 279 1031 l 372 936 l 351 936 l 263 1014 l 174 936 l 149 936 m 394 1018 l 286 1121 l 319 1121 l 415 1018 l 394 1018 z "},"Ổ":{"ha":525,"x_min":81,"x_max":472,"o":"m 261 -3 q 128 28 176 -3 q 81 119 81 60 l 81 754 q 123 839 81 804 q 261 872 165 874 q 401 838 358 871 q 444 753 444 804 l 444 121 q 397 29 444 61 q 261 -3 350 -3 m 261 21 q 379 51 342 21 q 417 125 417 82 l 417 749 q 383 817 417 785 q 258 849 350 849 q 141 817 174 849 q 108 750 108 786 l 108 124 q 146 51 108 81 q 261 21 183 21 m 149 936 l 242 1031 l 279 1031 l 372 936 l 351 936 l 263 1014 l 174 936 l 149 936 m 388 1018 q 403 1047 388 1036 q 433 1071 418 1058 q 449 1106 449 1083 q 433 1135 449 1124 q 400 1146 418 1146 q 360 1131 374 1146 q 343 1096 347 1115 l 328 1101 q 350 1145 331 1129 q 403 1161 369 1161 q 453 1146 435 1161 q 472 1107 472 1131 q 463 1074 472 1086 q 442 1053 454 1061 q 420 1037 429 1044 q 411 1018 411 1029 l 388 1018 z "},"Ỗ":{"ha":525,"x_min":81,"x_max":444,"o":"m 261 -3 q 128 28 176 -3 q 81 119 81 60 l 81 754 q 123 839 81 804 q 261 872 165 874 q 401 838 358 871 q 444 753 444 804 l 444 121 q 397 29 444 61 q 261 -3 350 -3 m 261 21 q 379 51 342 21 q 417 125 417 82 l 417 749 q 383 817 417 785 q 258 849 350 849 q 141 817 174 849 q 108 750 108 786 l 108 124 q 146 51 108 81 q 261 21 183 21 m 149 936 l 242 1031 l 279 1031 l 372 936 l 351 936 l 263 1014 l 174 936 l 149 936 m 156 1057 q 172 1116 156 1097 q 210 1135 188 1135 q 247 1122 232 1135 q 276 1095 263 1108 q 307 1082 290 1082 q 338 1100 331 1082 q 344 1132 344 1118 l 363 1132 q 346 1077 363 1093 q 308 1061 329 1061 q 272 1074 288 1061 q 243 1100 257 1088 q 213 1113 229 1113 q 184 1098 193 1113 q 175 1057 175 1083 l 156 1057 z "},"Ȍ":{"ha":525,"x_min":78,"x_max":444,"o":"m 261 -3 q 128 28 176 -3 q 81 119 81 60 l 81 754 q 123 839 81 804 q 261 872 165 874 q 401 838 358 871 q 444 753 444 804 l 444 121 q 397 29 444 61 q 261 -3 350 -3 m 261 21 q 379 51 342 21 q 417 125 417 82 l 417 749 q 383 817 417 785 q 258 849 350 849 q 141 817 174 849 q 108 750 108 786 l 108 124 q 146 51 108 81 q 261 21 183 21 m 211 956 l 78 1083 l 115 1083 l 232 956 l 211 956 m 296 956 l 163 1083 l 200 1083 l 317 956 l 296 956 z "},"Ö":{"ha":525,"x_min":81,"x_max":444,"o":"m 261 -3 q 128 28 176 -3 q 81 119 81 60 l 81 754 q 123 839 81 804 q 261 872 165 874 q 401 838 358 871 q 444 753 444 804 l 444 121 q 397 29 444 61 q 261 -3 350 -3 m 261 21 q 379 51 342 21 q 417 125 417 82 l 417 749 q 383 817 417 785 q 258 849 350 849 q 141 817 174 849 q 108 750 108 786 l 108 124 q 146 51 108 81 q 261 21 183 21 m 319 951 q 301 958 304 951 q 299 974 299 964 q 301 991 299 985 q 319 997 304 997 q 340 991 338 997 q 343 974 343 985 q 340 958 343 964 q 319 951 338 951 m 203 951 q 183 958 186 951 q 181 974 181 964 q 183 991 181 985 q 203 997 186 997 q 222 991 219 997 q 225 974 225 985 q 222 958 225 964 q 203 951 219 951 z "},"Ȫ":{"ha":525,"x_min":81,"x_max":444,"o":"m 261 -3 q 128 28 176 -3 q 81 119 81 60 l 81 754 q 123 839 81 804 q 261 872 165 874 q 401 838 358 871 q 444 753 444 804 l 444 121 q 397 29 444 61 q 261 -3 350 -3 m 261 21 q 379 51 342 21 q 417 125 417 82 l 417 749 q 383 817 417 785 q 258 849 350 849 q 141 817 174 849 q 108 750 108 786 l 108 124 q 146 51 108 81 q 261 21 183 21 m 319 951 q 301 958 304 951 q 299 974 299 964 q 301 991 299 985 q 319 997 304 997 q 340 991 338 997 q 343 974 343 985 q 340 958 343 964 q 319 951 338 951 m 203 951 q 183 958 186 951 q 181 974 181 964 q 183 991 181 985 q 203 997 186 997 q 222 991 219 997 q 225 974 225 985 q 222 958 225 964 q 203 951 219 951 m 131 1032 l 131 1053 l 393 1053 l 393 1032 l 131 1032 z "},"Ȱ":{"ha":525,"x_min":81,"x_max":444,"o":"m 261 -3 q 128 28 176 -3 q 81 119 81 60 l 81 754 q 123 839 81 804 q 261 872 165 874 q 401 838 358 871 q 444 753 444 804 l 444 121 q 397 29 444 61 q 261 -3 350 -3 m 261 21 q 379 51 342 21 q 417 125 417 82 l 417 749 q 383 817 417 785 q 258 849 350 849 q 141 817 174 849 q 108 750 108 786 l 108 124 q 146 51 108 81 q 261 21 183 21 m 261 953 q 242 959 244 953 q 239 975 239 965 q 242 993 239 986 q 261 1000 244 1000 q 281 993 278 1000 q 283 975 283 986 q 281 959 283 965 q 261 953 278 953 m 131 1032 l 131 1053 l 393 1053 l 393 1032 l 131 1032 z "},"Ọ":{"ha":525,"x_min":81,"x_max":444,"o":"m 261 -3 q 128 28 176 -3 q 81 119 81 60 l 81 754 q 123 839 81 804 q 261 872 165 874 q 401 838 358 871 q 444 753 444 804 l 444 121 q 397 29 444 61 q 261 -3 350 -3 m 261 21 q 379 51 342 21 q 417 125 417 82 l 417 749 q 383 817 417 785 q 258 849 350 849 q 141 817 174 849 q 108 750 108 786 l 108 124 q 146 51 108 81 q 261 21 183 21 m 261 -114 q 242 -108 244 -114 q 239 -92 239 -101 q 242 -74 239 -81 q 261 -67 244 -67 q 281 -74 278 -67 q 283 -92 283 -81 q 281 -108 283 -101 q 261 -114 278 -114 z "},"Ò":{"ha":525,"x_min":81,"x_max":444,"o":"m 261 -3 q 128 28 176 -3 q 81 119 81 60 l 81 754 q 123 839 81 804 q 261 872 165 874 q 401 838 358 871 q 444 753 444 804 l 444 121 q 397 29 444 61 q 261 -3 350 -3 m 261 21 q 379 51 342 21 q 417 125 417 82 l 417 749 q 383 817 417 785 q 258 849 350 849 q 141 817 174 849 q 108 750 108 786 l 108 124 q 146 51 108 81 q 261 21 183 21 m 269 956 l 122 1069 l 160 1069 l 290 956 l 269 956 z "},"Ỏ":{"ha":525,"x_min":81,"x_max":444,"o":"m 261 -3 q 128 28 176 -3 q 81 119 81 60 l 81 754 q 123 839 81 804 q 261 872 165 874 q 401 838 358 871 q 444 753 444 804 l 444 121 q 397 29 444 61 q 261 -3 350 -3 m 261 21 q 379 51 342 21 q 417 125 417 82 l 417 749 q 383 817 417 785 q 258 849 350 849 q 141 817 174 849 q 108 750 108 786 l 108 124 q 146 51 108 81 q 261 21 183 21 m 249 956 q 260 984 249 972 q 288 1006 272 996 q 316 1031 304 1017 q 328 1065 328 1044 q 308 1103 328 1089 q 264 1117 288 1117 q 212 1097 228 1117 q 192 1053 196 1078 l 175 1058 q 201 1115 178 1094 q 267 1135 225 1135 q 328 1115 307 1135 q 349 1067 349 1094 q 337 1025 349 1040 q 310 1000 325 1010 q 284 981 296 990 q 272 956 272 971 l 249 956 z "},"Ơ":{"ha":525,"x_min":81,"x_max":456,"o":"m 261 -3 q 128 28 176 -3 q 81 119 81 60 l 81 754 q 123 839 81 804 q 261 872 165 874 q 401 838 358 871 q 444 753 444 804 l 444 121 q 397 29 444 61 q 261 -3 350 -3 m 261 21 q 379 51 342 21 q 417 125 417 82 l 417 749 q 383 817 417 785 q 258 849 350 849 q 141 817 174 849 q 108 750 108 786 l 108 124 q 146 51 108 81 q 261 21 183 21 m 351 844 l 349 861 q 419 878 401 861 q 435 931 436 894 l 456 931 q 432 862 456 879 q 351 844 408 844 z "},"Ớ":{"ha":525,"x_min":81,"x_max":456,"o":"m 261 -3 q 128 28 176 -3 q 81 119 81 60 l 81 754 q 123 839 81 804 q 261 872 165 874 q 401 838 358 871 q 444 753 444 804 l 444 121 q 397 29 444 61 q 261 -3 350 -3 m 261 21 q 379 51 342 21 q 417 125 417 82 l 417 749 q 383 817 417 785 q 258 849 350 849 q 141 817 174 849 q 108 750 108 786 l 108 124 q 146 51 108 81 q 261 21 183 21 m 351 844 l 349 861 q 419 878 401 861 q 435 931 436 894 l 456 931 q 432 862 456 879 q 351 844 408 844 m 213 956 l 343 1069 l 381 1069 l 233 956 l 213 956 z "},"Ợ":{"ha":525,"x_min":81,"x_max":456,"o":"m 261 -3 q 128 28 176 -3 q 81 119 81 60 l 81 754 q 123 839 81 804 q 261 872 165 874 q 401 838 358 871 q 444 753 444 804 l 444 121 q 397 29 444 61 q 261 -3 350 -3 m 261 21 q 379 51 342 21 q 417 125 417 82 l 417 749 q 383 817 417 785 q 258 849 350 849 q 141 817 174 849 q 108 750 108 786 l 108 124 q 146 51 108 81 q 261 21 183 21 m 351 844 l 349 861 q 419 878 401 861 q 435 931 436 894 l 456 931 q 432 862 456 879 q 351 844 408 844 m 261 -114 q 242 -108 244 -114 q 239 -92 239 -101 q 242 -74 239 -81 q 261 -67 244 -67 q 281 -74 278 -67 q 283 -92 283 -81 q 281 -108 283 -101 q 261 -114 278 -114 z "},"Ờ":{"ha":525,"x_min":81,"x_max":456,"o":"m 261 -3 q 128 28 176 -3 q 81 119 81 60 l 81 754 q 123 839 81 804 q 261 872 165 874 q 401 838 358 871 q 444 753 444 804 l 444 121 q 397 29 444 61 q 261 -3 350 -3 m 261 21 q 379 51 342 21 q 417 125 417 82 l 417 749 q 383 817 417 785 q 258 849 350 849 q 141 817 174 849 q 108 750 108 786 l 108 124 q 146 51 108 81 q 261 21 183 21 m 351 844 l 349 861 q 419 878 401 861 q 435 931 436 894 l 456 931 q 432 862 456 879 q 351 844 408 844 m 269 956 l 122 1069 l 160 1069 l 290 956 l 269 956 z "},"Ở":{"ha":525,"x_min":81,"x_max":456,"o":"m 261 -3 q 128 28 176 -3 q 81 119 81 60 l 81 754 q 123 839 81 804 q 261 872 165 874 q 401 838 358 871 q 444 753 444 804 l 444 121 q 397 29 444 61 q 261 -3 350 -3 m 261 21 q 379 51 342 21 q 417 125 417 82 l 417 749 q 383 817 417 785 q 258 849 350 849 q 141 817 174 849 q 108 750 108 786 l 108 124 q 146 51 108 81 q 261 21 183 21 m 351 844 l 349 861 q 419 878 401 861 q 435 931 436 894 l 456 931 q 432 862 456 879 q 351 844 408 844 m 249 956 q 260 984 249 972 q 288 1006 272 996 q 316 1031 304 1017 q 328 1065 328 1044 q 308 1103 328 1089 q 264 1117 288 1117 q 212 1097 228 1117 q 192 1053 196 1078 l 175 1058 q 201 1115 178 1094 q 267 1135 225 1135 q 328 1115 307 1135 q 349 1067 349 1094 q 337 1025 349 1040 q 310 1000 325 1010 q 284 981 296 990 q 272 956 272 971 l 249 956 z "},"Ỡ":{"ha":525,"x_min":81,"x_max":456,"o":"m 261 -3 q 128 28 176 -3 q 81 119 81 60 l 81 754 q 123 839 81 804 q 261 872 165 874 q 401 838 358 871 q 444 753 444 804 l 444 121 q 397 29 444 61 q 261 -3 350 -3 m 261 21 q 379 51 342 21 q 417 125 417 82 l 417 749 q 383 817 417 785 q 258 849 350 849 q 141 817 174 849 q 108 750 108 786 l 108 124 q 146 51 108 81 q 261 21 183 21 m 351 844 l 349 861 q 419 878 401 861 q 435 931 436 894 l 456 931 q 432 862 456 879 q 351 844 408 844 m 138 947 q 156 1017 138 996 q 201 1039 175 1039 q 247 1023 229 1039 q 283 991 265 1007 q 321 975 300 975 q 360 997 353 975 q 368 1036 368 1018 l 388 1036 q 367 971 388 989 q 324 953 347 953 q 278 969 297 953 q 242 1002 258 986 q 204 1018 225 1018 q 168 999 179 1018 q 157 947 157 979 l 138 947 z "},"Ő":{"ha":525,"x_min":81,"x_max":444,"o":"m 261 -3 q 128 28 176 -3 q 81 119 81 60 l 81 754 q 123 839 81 804 q 261 872 165 874 q 401 838 358 871 q 444 753 444 804 l 444 121 q 397 29 444 61 q 261 -3 350 -3 m 261 21 q 379 51 342 21 q 417 125 417 82 l 417 749 q 383 817 417 785 q 258 849 350 849 q 141 817 174 849 q 108 750 108 786 l 108 124 q 146 51 108 81 q 261 21 183 21 m 211 956 l 260 1083 l 296 1083 l 232 956 l 211 956 m 293 956 l 342 1083 l 379 1083 l 314 956 l 293 956 z "},"Ȏ":{"ha":525,"x_min":81,"x_max":444,"o":"m 260 1065 q 356 1030 328 1065 q 383 947 383 994 l 364 947 q 341 1016 364 988 q 260 1044 318 1044 q 183 1015 204 1044 q 161 947 161 985 l 142 947 q 150 999 142 971 q 184 1046 158 1026 q 260 1065 210 1065 m 261 -3 q 128 28 176 -3 q 81 119 81 60 l 81 754 q 123 839 81 804 q 261 872 165 874 q 401 838 358 871 q 444 753 444 804 l 444 121 q 397 29 444 61 q 261 -3 350 -3 m 261 21 q 379 51 342 21 q 417 125 417 82 l 417 749 q 383 817 417 785 q 258 849 350 849 q 141 817 174 849 q 108 750 108 786 l 108 124 q 146 51 108 81 q 261 21 183 21 z "},"Ō":{"ha":525,"x_min":81,"x_max":444,"o":"m 261 -3 q 128 28 176 -3 q 81 119 81 60 l 81 754 q 123 839 81 804 q 261 872 165 874 q 401 838 358 871 q 444 753 444 804 l 444 121 q 397 29 444 61 q 261 -3 350 -3 m 261 21 q 379 51 342 21 q 417 125 417 82 l 417 749 q 383 817 417 785 q 258 849 350 849 q 141 817 174 849 q 108 750 108 786 l 108 124 q 146 51 108 81 q 261 21 183 21 m 131 967 l 131 988 l 393 988 l 393 967 l 131 967 z "},"Ω":{"ha":788,"x_min":44,"x_max":744,"o":"m 44 24 l 229 24 q 141 134 181 64 q 78 294 101 204 q 54 486 54 385 q 65 642 54 574 q 109 760 75 711 q 212 835 143 810 q 397 861 281 861 q 552 844 490 861 q 651 794 614 826 q 706 715 688 761 q 731 610 725 668 q 736 486 736 553 q 710 295 736 385 q 644 135 685 206 q 556 24 603 65 l 744 24 l 744 0 l 536 0 l 528 24 q 586 90 556 44 q 644 198 617 135 q 688 334 671 261 q 704 483 704 407 q 697 616 704 553 q 663 730 690 679 q 572 810 635 781 q 397 839 510 839 q 222 811 286 839 q 129 735 158 783 q 92 622 100 686 q 85 485 85 558 q 98 350 85 419 q 135 217 111 281 q 191 102 160 153 q 258 24 222 51 l 250 0 l 44 0 l 44 24 z "},"Ǫ":{"ha":525,"x_min":81,"x_max":444,"o":"m 261 -3 q 128 28 176 -3 q 81 119 81 60 l 81 754 q 123 839 81 804 q 261 872 165 874 q 401 838 358 871 q 444 753 444 804 l 444 121 q 397 29 444 61 q 261 -3 350 -3 m 261 21 q 379 51 342 21 q 417 125 417 82 l 417 749 q 383 817 417 785 q 258 849 350 849 q 141 817 174 849 q 108 750 108 786 l 108 124 q 146 51 108 81 q 261 21 183 21 m 275 -217 q 215 -189 238 -217 q 192 -121 192 -161 q 222 -47 192 -85 q 315 14 251 -8 l 335 8 q 249 -44 283 -14 q 215 -119 215 -74 q 234 -173 215 -150 q 283 -196 253 -196 q 327 -190 308 -196 q 368 -165 346 -183 l 371 -186 q 324 -210 346 -204 q 275 -217 303 -217 z "},"Ø":{"ha":518,"x_min":76,"x_max":440,"o":"m 257 -3 q 124 28 172 -3 q 76 119 76 60 l 76 753 q 119 840 76 806 q 256 872 161 874 q 397 838 354 871 q 440 751 440 804 l 440 121 q 392 29 440 61 q 257 -3 343 -3 m 256 21 q 375 51 338 21 q 413 125 413 82 l 413 746 q 399 794 413 771 q 350 833 385 818 q 253 847 315 847 q 136 815 168 847 q 104 747 104 783 l 104 124 q 142 51 104 82 q 256 21 179 21 m 86 -61 l 400 876 l 421 876 l 103 -61 l 86 -61 z "},"Ǿ":{"ha":518,"x_min":76,"x_max":440,"o":"m 257 -3 q 124 28 172 -3 q 76 119 76 60 l 76 753 q 119 840 76 806 q 256 872 161 874 q 397 838 354 871 q 440 751 440 804 l 440 121 q 392 29 440 61 q 257 -3 343 -3 m 256 21 q 375 51 338 21 q 413 125 413 82 l 413 746 q 399 794 413 771 q 350 833 385 818 q 253 847 315 847 q 136 815 168 847 q 104 747 104 783 l 104 124 q 142 51 104 82 q 256 21 179 21 m 86 -61 l 400 876 l 421 876 l 103 -61 l 86 -61 m 210 956 l 340 1069 l 378 1069 l 231 956 l 210 956 z "},"Õ":{"ha":525,"x_min":81,"x_max":444,"o":"m 261 -3 q 128 28 176 -3 q 81 119 81 60 l 81 754 q 123 839 81 804 q 261 872 165 874 q 401 838 358 871 q 444 753 444 804 l 444 121 q 397 29 444 61 q 261 -3 350 -3 m 261 21 q 379 51 342 21 q 417 125 417 82 l 417 749 q 383 817 417 785 q 258 849 350 849 q 141 817 174 849 q 108 750 108 786 l 108 124 q 146 51 108 81 q 261 21 183 21 m 138 947 q 156 1017 138 996 q 201 1039 175 1039 q 247 1023 229 1039 q 283 991 265 1007 q 321 975 300 975 q 360 997 353 975 q 368 1036 368 1018 l 388 1036 q 367 971 388 989 q 324 953 347 953 q 278 969 297 953 q 242 1002 258 986 q 204 1018 225 1018 q 168 999 179 1018 q 157 947 157 979 l 138 947 z "},"Ȭ":{"ha":525,"x_min":81,"x_max":444,"o":"m 261 -3 q 128 28 176 -3 q 81 119 81 60 l 81 754 q 123 839 81 804 q 261 872 165 874 q 401 838 358 871 q 444 753 444 804 l 444 121 q 397 29 444 61 q 261 -3 350 -3 m 261 21 q 379 51 342 21 q 417 125 417 82 l 417 749 q 383 817 417 785 q 258 849 350 849 q 141 817 174 849 q 108 750 108 786 l 108 124 q 146 51 108 81 q 261 21 183 21 m 138 947 q 156 1017 138 996 q 201 1039 175 1039 q 247 1023 229 1039 q 283 991 265 1007 q 321 975 300 975 q 360 997 353 975 q 368 1036 368 1018 l 388 1036 q 367 971 388 989 q 324 953 347 953 q 278 969 297 953 q 242 1002 258 986 q 204 1018 225 1018 q 168 999 179 1018 q 157 947 157 979 l 138 947 m 131 1086 l 131 1107 l 393 1107 l 393 1086 l 131 1086 z "},"P":{"ha":510,"x_min":97,"x_max":461,"o":"m 97 861 l 326 861 q 415 847 386 861 q 452 802 443 832 q 461 728 461 772 l 461 511 q 453 417 461 461 q 410 347 444 374 q 296 319 375 319 l 125 319 l 125 0 l 97 0 l 97 861 m 297 343 q 398 376 363 343 q 433 486 433 410 l 433 724 q 409 811 433 785 q 319 838 385 838 l 125 838 l 125 343 l 297 343 z "},"Q":{"ha":517,"x_min":81,"x_max":479,"o":"m 261 -8 q 128 25 176 -8 q 81 128 81 58 l 81 728 q 124 836 81 799 q 261 872 167 874 q 401 835 358 871 q 444 726 444 799 l 444 129 q 396 25 444 58 q 261 -8 347 -8 m 261 15 q 379 48 342 15 q 417 132 417 81 l 417 721 q 384 813 417 778 q 261 847 351 847 q 141 813 174 847 q 108 722 108 778 l 108 129 q 146 47 108 78 q 261 15 183 15 m 458 -146 l 314 0 l 333 19 l 479 -128 l 458 -146 z "},"R":{"ha":535,"x_min":97,"x_max":486,"o":"m 97 861 l 326 861 q 415 847 386 861 q 452 802 443 832 q 461 728 461 772 l 461 585 q 453 491 461 535 q 410 420 444 447 q 296 393 375 393 l 125 393 l 125 0 l 97 0 l 97 861 m 460 -14 l 299 396 l 319 401 l 326 399 l 331 388 l 486 -4 l 460 -14 m 297 417 q 398 449 363 417 q 433 560 433 482 l 433 724 q 409 811 433 785 q 319 838 385 838 l 125 838 l 125 417 l 297 417 z "},"Ŕ":{"ha":535,"x_min":97,"x_max":486,"o":"m 97 861 l 326 861 q 415 847 386 861 q 452 802 443 832 q 461 728 461 772 l 461 585 q 453 491 461 535 q 410 420 444 447 q 296 393 375 393 l 125 393 l 125 0 l 97 0 l 97 861 m 460 -14 l 299 396 l 319 401 l 326 399 l 331 388 l 486 -4 l 460 -14 m 297 417 q 398 449 363 417 q 433 560 433 482 l 433 724 q 409 811 433 785 q 319 838 385 838 l 125 838 l 125 417 l 297 417 m 207 956 l 338 1069 l 375 1069 l 228 956 l 207 956 z "},"Ř":{"ha":535,"x_min":97,"x_max":486,"o":"m 119 1074 l 143 1074 l 257 974 l 371 1074 l 392 1074 l 275 956 l 236 956 l 119 1074 m 97 861 l 326 861 q 415 847 386 861 q 452 802 443 832 q 461 728 461 772 l 461 585 q 453 491 461 535 q 410 420 444 447 q 296 393 375 393 l 125 393 l 125 0 l 97 0 l 97 861 m 460 -14 l 299 396 l 319 401 l 326 399 l 331 388 l 486 -4 l 460 -14 m 297 417 q 398 449 363 417 q 433 560 433 482 l 433 724 q 409 811 433 785 q 319 838 385 838 l 125 838 l 125 417 l 297 417 z "},"Ŗ":{"ha":535,"x_min":97,"x_max":486,"o":"m 97 861 l 326 861 q 415 847 386 861 q 452 802 443 832 q 461 728 461 772 l 461 585 q 453 491 461 535 q 410 420 444 447 q 296 393 375 393 l 125 393 l 125 0 l 97 0 l 97 861 m 460 -14 l 299 396 l 319 401 l 326 399 l 331 388 l 486 -4 l 460 -14 m 297 417 q 398 449 363 417 q 433 560 433 482 l 433 724 q 409 811 433 785 q 319 838 385 838 l 125 838 l 125 417 l 297 417 m 238 -207 q 265 -157 254 -183 q 276 -100 276 -131 q 255 -96 258 -100 q 251 -86 251 -92 q 254 -72 251 -78 q 275 -67 257 -67 q 293 -72 290 -67 q 296 -85 296 -76 q 291 -128 296 -106 q 277 -172 286 -151 q 256 -207 268 -192 l 238 -207 z "},"Ȑ":{"ha":535,"x_min":72,"x_max":486,"o":"m 97 861 l 326 861 q 415 847 386 861 q 452 802 443 832 q 461 728 461 772 l 461 585 q 453 491 461 535 q 410 420 444 447 q 296 393 375 393 l 125 393 l 125 0 l 97 0 l 97 861 m 460 -14 l 299 396 l 319 401 l 326 399 l 331 388 l 486 -4 l 460 -14 m 297 417 q 398 449 363 417 q 433 560 433 482 l 433 724 q 409 811 433 785 q 319 838 385 838 l 125 838 l 125 417 l 297 417 m 206 956 l 72 1083 l 110 1083 l 226 956 l 206 956 m 290 956 l 157 1083 l 194 1083 l 311 956 l 290 956 z "},"Ȓ":{"ha":535,"x_min":97,"x_max":486,"o":"m 254 1065 q 350 1030 322 1065 q 378 947 378 994 l 358 947 q 335 1016 358 988 q 254 1044 313 1044 q 177 1015 199 1044 q 156 947 156 985 l 136 947 q 144 999 136 971 q 178 1046 153 1026 q 254 1065 204 1065 m 97 861 l 326 861 q 415 847 386 861 q 452 802 443 832 q 461 728 461 772 l 461 585 q 453 491 461 535 q 410 420 444 447 q 296 393 375 393 l 125 393 l 125 0 l 97 0 l 97 861 m 460 -14 l 299 396 l 319 401 l 326 399 l 331 388 l 486 -4 l 460 -14 m 297 417 q 398 449 363 417 q 433 560 433 482 l 433 724 q 409 811 433 785 q 319 838 385 838 l 125 838 l 125 417 l 297 417 z "},"S":{"ha":508,"x_min":71,"x_max":435,"o":"m 261 -3 q 160 8 203 -1 q 94 40 118 17 q 71 108 71 64 l 71 279 l 99 286 l 99 114 q 134 44 99 68 q 260 21 169 21 q 353 33 321 21 q 396 72 385 44 q 407 143 407 99 l 407 288 q 378 376 407 346 q 301 421 350 407 l 188 451 q 98 499 125 469 q 71 588 71 528 l 71 726 q 94 815 71 786 q 159 854 117 844 q 261 864 201 864 q 358 854 319 864 q 415 821 396 844 q 435 753 435 797 l 435 582 l 407 574 l 407 746 q 378 818 407 794 q 260 842 350 842 q 133 814 168 842 q 99 721 99 786 l 99 585 q 130 508 99 533 q 203 472 161 483 l 318 442 q 408 390 382 425 q 435 293 435 356 l 435 139 q 416 48 435 78 q 359 8 397 18 q 261 -3 321 -1 z "},"Ś":{"ha":508,"x_min":71,"x_max":435,"o":"m 261 -3 q 160 8 203 -1 q 94 40 118 17 q 71 108 71 64 l 71 279 l 99 286 l 99 114 q 134 44 99 68 q 260 21 169 21 q 353 33 321 21 q 396 72 385 44 q 407 143 407 99 l 407 288 q 378 376 407 346 q 301 421 350 407 l 188 451 q 98 499 125 469 q 71 588 71 528 l 71 726 q 94 815 71 786 q 159 854 117 844 q 261 864 201 864 q 358 854 319 864 q 415 821 396 844 q 435 753 435 797 l 435 582 l 407 574 l 407 746 q 378 818 407 794 q 260 842 350 842 q 133 814 168 842 q 99 721 99 786 l 99 585 q 130 508 99 533 q 203 472 161 483 l 318 442 q 408 390 382 425 q 435 293 435 356 l 435 139 q 416 48 435 78 q 359 8 397 18 q 261 -3 321 -1 m 204 956 l 335 1069 l 372 1069 l 225 956 l 204 956 z "},"Š":{"ha":508,"x_min":71,"x_max":435,"o":"m 117 1074 l 140 1074 l 254 974 l 368 1074 l 389 1074 l 272 956 l 233 956 l 117 1074 m 261 -3 q 160 8 203 -1 q 94 40 118 17 q 71 108 71 64 l 71 279 l 99 286 l 99 114 q 134 44 99 68 q 260 21 169 21 q 353 33 321 21 q 396 72 385 44 q 407 143 407 99 l 407 288 q 378 376 407 346 q 301 421 350 407 l 188 451 q 98 499 125 469 q 71 588 71 528 l 71 726 q 94 815 71 786 q 159 854 117 844 q 261 864 201 864 q 358 854 319 864 q 415 821 396 844 q 435 753 435 797 l 435 582 l 407 574 l 407 746 q 378 818 407 794 q 260 842 350 842 q 133 814 168 842 q 99 721 99 786 l 99 585 q 130 508 99 533 q 203 472 161 483 l 318 442 q 408 390 382 425 q 435 293 435 356 l 435 139 q 416 48 435 78 q 359 8 397 18 q 261 -3 321 -1 z "},"Ş":{"ha":508,"x_min":71,"x_max":435,"o":"m 261 -3 q 160 8 203 -1 q 94 40 118 17 q 71 108 71 64 l 71 279 l 99 286 l 99 114 q 134 44 99 68 q 260 21 169 21 q 353 33 321 21 q 396 72 385 44 q 407 143 407 99 l 407 288 q 378 376 407 346 q 301 421 350 407 l 188 451 q 98 499 125 469 q 71 588 71 528 l 71 726 q 94 815 71 786 q 159 854 117 844 q 261 864 201 864 q 358 854 319 864 q 415 821 396 844 q 435 753 435 797 l 435 582 l 407 574 l 407 746 q 378 818 407 794 q 260 842 350 842 q 133 814 168 842 q 99 721 99 786 l 99 585 q 130 508 99 533 q 203 472 161 483 l 318 442 q 408 390 382 425 q 435 293 435 356 l 435 139 q 416 48 435 78 q 359 8 397 18 q 261 -3 321 -1 m 271 -232 q 223 -221 244 -232 q 190 -199 201 -210 l 204 -183 q 230 -204 211 -193 q 269 -215 249 -215 q 326 -190 306 -215 q 346 -137 346 -164 q 330 -91 346 -112 q 276 -69 314 -69 q 233 -80 253 -69 q 200 -106 214 -90 l 182 -89 l 254 0 l 274 0 l 214 -76 q 279 -53 246 -53 q 348 -79 328 -53 q 368 -135 368 -106 q 343 -200 368 -168 q 271 -232 318 -232 z "},"Ə":{"ha":471,"x_min":53,"x_max":417,"o":"m 238 -4 q 122 25 161 -4 q 67 97 82 54 q 53 182 53 140 l 53 428 l 389 428 l 389 679 q 347 804 389 767 q 240 842 304 842 q 126 801 172 842 q 81 663 81 761 l 81 551 l 53 544 l 53 653 q 67 758 53 710 q 123 835 82 806 q 240 865 164 865 q 353 837 315 865 q 404 766 392 808 q 417 683 417 724 l 417 182 q 403 98 417 142 q 352 25 390 54 q 238 -4 314 -4 m 238 19 q 316 37 282 19 q 369 91 350 54 q 389 185 389 128 l 389 407 l 81 407 l 81 185 q 100 91 81 128 q 155 37 119 54 q 238 19 190 19 z "},"Ŝ":{"ha":508,"x_min":71,"x_max":435,"o":"m 261 -3 q 160 8 203 -1 q 94 40 118 17 q 71 108 71 64 l 71 279 l 99 286 l 99 114 q 134 44 99 68 q 260 21 169 21 q 353 33 321 21 q 396 72 385 44 q 407 143 407 99 l 407 288 q 378 376 407 346 q 301 421 350 407 l 188 451 q 98 499 125 469 q 71 588 71 528 l 71 726 q 94 815 71 786 q 159 854 117 844 q 261 864 201 864 q 358 854 319 864 q 415 821 396 844 q 435 753 435 797 l 435 582 l 407 574 l 407 746 q 378 818 407 794 q 260 842 350 842 q 133 814 168 842 q 99 721 99 786 l 99 585 q 130 508 99 533 q 203 472 161 483 l 318 442 q 408 390 382 425 q 435 293 435 356 l 435 139 q 416 48 435 78 q 359 8 397 18 q 261 -3 321 -1 m 117 956 l 233 1074 l 272 1074 l 389 956 l 368 956 l 254 1056 l 140 956 l 117 956 z "},"Ș":{"ha":508,"x_min":71,"x_max":435,"o":"m 261 -3 q 160 8 203 -1 q 94 40 118 17 q 71 108 71 64 l 71 279 l 99 286 l 99 114 q 134 44 99 68 q 260 21 169 21 q 353 33 321 21 q 396 72 385 44 q 407 143 407 99 l 407 288 q 378 376 407 346 q 301 421 350 407 l 188 451 q 98 499 125 469 q 71 588 71 528 l 71 726 q 94 815 71 786 q 159 854 117 844 q 261 864 201 864 q 358 854 319 864 q 415 821 396 844 q 435 753 435 797 l 435 582 l 407 574 l 407 746 q 378 818 407 794 q 260 842 350 842 q 133 814 168 842 q 99 721 99 786 l 99 585 q 130 508 99 533 q 203 472 161 483 l 318 442 q 408 390 382 425 q 435 293 435 356 l 435 139 q 416 48 435 78 q 359 8 397 18 q 261 -3 321 -1 m 224 -207 q 251 -157 240 -183 q 263 -100 263 -131 q 241 -96 244 -100 q 238 -86 238 -92 q 240 -72 238 -78 q 261 -67 243 -67 q 279 -72 276 -67 q 282 -85 282 -76 q 277 -128 282 -106 q 263 -172 272 -151 q 242 -207 254 -192 l 224 -207 z "},"T":{"ha":404,"x_min":31,"x_max":374,"o":"m 186 838 l 31 838 l 31 861 l 374 861 l 374 838 l 215 838 l 215 0 l 186 0 l 186 838 z "},"Ŧ":{"ha":404,"x_min":31,"x_max":374,"o":"m 186 838 l 31 838 l 31 861 l 374 861 l 374 838 l 215 838 l 215 0 l 186 0 l 186 838 m 54 594 l 54 613 l 350 613 l 350 594 l 54 594 z "},"Ť":{"ha":404,"x_min":31,"x_max":374,"o":"m 64 1074 l 88 1074 l 201 974 l 315 1074 l 336 1074 l 219 956 l 181 956 l 64 1074 m 186 838 l 31 838 l 31 861 l 374 861 l 374 838 l 215 838 l 215 0 l 186 0 l 186 838 z "},"Ţ":{"ha":404,"x_min":31,"x_max":374,"o":"m 186 838 l 31 838 l 31 861 l 374 861 l 374 838 l 215 838 l 215 0 l 186 0 l 186 838 m 199 -232 q 151 -221 172 -232 q 118 -199 129 -210 l 132 -183 q 158 -204 139 -193 q 197 -215 176 -215 q 253 -190 233 -215 q 274 -137 274 -164 q 258 -91 274 -112 q 204 -69 242 -69 q 161 -80 181 -69 q 128 -106 142 -90 l 110 -89 l 182 0 l 201 0 l 142 -76 q 207 -53 174 -53 q 276 -79 256 -53 q 296 -135 296 -106 q 271 -200 296 -168 q 199 -232 246 -232 z "},"Ț":{"ha":404,"x_min":31,"x_max":374,"o":"m 186 838 l 31 838 l 31 861 l 374 861 l 374 838 l 215 838 l 215 0 l 186 0 l 186 838 m 171 -207 q 199 -157 188 -183 q 210 -100 210 -131 q 188 -96 192 -100 q 185 -86 185 -92 q 188 -72 185 -78 q 208 -67 190 -67 q 226 -72 224 -67 q 229 -85 229 -76 q 224 -128 229 -106 q 210 -172 219 -151 q 189 -207 201 -192 l 171 -207 z "},"Þ":{"ha":531,"x_min":53,"x_max":417,"o":"m 53 947 l 81 947 l 81 807 l 282 807 q 370 792 342 807 q 408 748 399 778 q 417 674 417 718 l 417 457 q 408 363 417 407 q 365 292 400 319 q 251 265 331 265 l 81 265 l 81 0 l 53 0 l 53 947 m 254 289 q 354 322 319 289 q 389 432 389 356 l 389 669 q 366 757 389 731 q 275 783 343 783 l 81 783 l 81 289 l 254 289 z "},"U":{"ha":544,"x_min":92,"x_max":453,"o":"m 272 -7 q 183 6 224 -7 q 117 47 142 18 q 92 124 92 75 l 92 861 l 119 861 l 119 135 q 132 77 119 104 q 177 33 144 50 q 272 17 210 17 q 372 33 339 17 q 415 77 404 50 q 425 135 425 104 l 425 861 l 453 861 l 453 124 q 430 47 453 75 q 366 6 407 18 q 272 -7 325 -7 z "},"Ú":{"ha":544,"x_min":92,"x_max":453,"o":"m 272 -7 q 183 6 224 -7 q 117 47 142 18 q 92 124 92 75 l 92 861 l 119 861 l 119 135 q 132 77 119 104 q 177 33 144 50 q 272 17 210 17 q 372 33 339 17 q 415 77 404 50 q 425 135 425 104 l 425 861 l 453 861 l 453 124 q 430 47 453 75 q 366 6 407 18 q 272 -7 325 -7 m 222 956 l 353 1069 l 390 1069 l 243 956 l 222 956 z "},"Ŭ":{"ha":544,"x_min":92,"x_max":453,"o":"m 272 -7 q 183 6 224 -7 q 117 47 142 18 q 92 124 92 75 l 92 861 l 119 861 l 119 135 q 132 77 119 104 q 177 33 144 50 q 272 17 210 17 q 372 33 339 17 q 415 77 404 50 q 425 135 425 104 l 425 861 l 453 861 l 453 124 q 430 47 453 75 q 366 6 407 18 q 272 -7 325 -7 m 269 950 q 194 969 219 950 q 160 1017 168 989 q 151 1068 151 1044 l 172 1068 q 193 1002 172 1035 q 269 969 214 969 q 350 1002 328 969 q 374 1068 372 1035 l 393 1068 q 365 984 393 1018 q 269 950 338 950 z "},"Ǔ":{"ha":544,"x_min":92,"x_max":453,"o":"m 135 1074 l 158 1074 l 272 974 l 386 1074 l 407 1074 l 290 956 l 251 956 l 135 1074 m 272 -7 q 183 6 224 -7 q 117 47 142 18 q 92 124 92 75 l 92 861 l 119 861 l 119 135 q 132 77 119 104 q 177 33 144 50 q 272 17 210 17 q 372 33 339 17 q 415 77 404 50 q 425 135 425 104 l 425 861 l 453 861 l 453 124 q 430 47 453 75 q 366 6 407 18 q 272 -7 325 -7 z "},"Û":{"ha":544,"x_min":92,"x_max":453,"o":"m 272 -7 q 183 6 224 -7 q 117 47 142 18 q 92 124 92 75 l 92 861 l 119 861 l 119 135 q 132 77 119 104 q 177 33 144 50 q 272 17 210 17 q 372 33 339 17 q 415 77 404 50 q 425 135 425 104 l 425 861 l 453 861 l 453 124 q 430 47 453 75 q 366 6 407 18 q 272 -7 325 -7 m 135 956 l 251 1074 l 290 1074 l 407 956 l 386 956 l 272 1056 l 158 956 l 135 956 z "},"Ȕ":{"ha":544,"x_min":88,"x_max":453,"o":"m 272 -7 q 183 6 224 -7 q 117 47 142 18 q 92 124 92 75 l 92 861 l 119 861 l 119 135 q 132 77 119 104 q 177 33 144 50 q 272 17 210 17 q 372 33 339 17 q 415 77 404 50 q 425 135 425 104 l 425 861 l 453 861 l 453 124 q 430 47 453 75 q 366 6 407 18 q 272 -7 325 -7 m 221 956 l 88 1083 l 125 1083 l 242 956 l 221 956 m 306 956 l 172 1083 l 210 1083 l 326 956 l 306 956 z "},"Ü":{"ha":544,"x_min":92,"x_max":453,"o":"m 272 -7 q 183 6 224 -7 q 117 47 142 18 q 92 124 92 75 l 92 861 l 119 861 l 119 135 q 132 77 119 104 q 177 33 144 50 q 272 17 210 17 q 372 33 339 17 q 415 77 404 50 q 425 135 425 104 l 425 861 l 453 861 l 453 124 q 430 47 453 75 q 366 6 407 18 q 272 -7 325 -7 m 329 951 q 311 958 314 951 q 308 974 308 964 q 311 991 308 985 q 329 997 314 997 q 350 991 347 997 q 353 974 353 985 q 350 958 353 964 q 329 951 347 951 m 213 951 q 193 958 196 951 q 190 974 190 964 q 193 991 190 985 q 213 997 196 997 q 232 991 229 997 q 235 974 235 985 q 232 958 235 964 q 213 951 229 951 z "},"Ǘ":{"ha":544,"x_min":92,"x_max":453,"o":"m 272 -7 q 183 6 224 -7 q 117 47 142 18 q 92 124 92 75 l 92 861 l 119 861 l 119 135 q 132 77 119 104 q 177 33 144 50 q 272 17 210 17 q 372 33 339 17 q 415 77 404 50 q 425 135 425 104 l 425 861 l 453 861 l 453 124 q 430 47 453 75 q 366 6 407 18 q 272 -7 325 -7 m 329 951 q 311 958 314 951 q 308 974 308 964 q 311 991 308 985 q 329 997 314 997 q 350 991 347 997 q 353 974 353 985 q 350 958 353 964 q 329 951 347 951 m 213 951 q 193 958 196 951 q 190 974 190 964 q 193 991 190 985 q 213 997 196 997 q 232 991 229 997 q 235 974 235 985 q 232 958 235 964 q 213 951 229 951 m 222 1021 l 353 1135 l 390 1135 l 243 1021 l 222 1021 z "},"Ǚ":{"ha":544,"x_min":92,"x_max":453,"o":"m 135 1139 l 158 1139 l 272 1039 l 386 1139 l 407 1139 l 290 1021 l 251 1021 l 135 1139 m 272 -7 q 183 6 224 -7 q 117 47 142 18 q 92 124 92 75 l 92 861 l 119 861 l 119 135 q 132 77 119 104 q 177 33 144 50 q 272 17 210 17 q 372 33 339 17 q 415 77 404 50 q 425 135 425 104 l 425 861 l 453 861 l 453 124 q 430 47 453 75 q 366 6 407 18 q 272 -7 325 -7 m 329 951 q 311 958 314 951 q 308 974 308 964 q 311 991 308 985 q 329 997 314 997 q 350 991 347 997 q 353 974 353 985 q 350 958 353 964 q 329 951 347 951 m 213 951 q 193 958 196 951 q 190 974 190 964 q 193 991 190 985 q 213 997 196 997 q 232 991 229 997 q 235 974 235 985 q 232 958 235 964 q 213 951 229 951 z "},"Ǜ":{"ha":544,"x_min":92,"x_max":453,"o":"m 272 -7 q 183 6 224 -7 q 117 47 142 18 q 92 124 92 75 l 92 861 l 119 861 l 119 135 q 132 77 119 104 q 177 33 144 50 q 272 17 210 17 q 372 33 339 17 q 415 77 404 50 q 425 135 425 104 l 425 861 l 453 861 l 453 124 q 430 47 453 75 q 366 6 407 18 q 272 -7 325 -7 m 329 951 q 311 958 314 951 q 308 974 308 964 q 311 991 308 985 q 329 997 314 997 q 350 991 347 997 q 353 974 353 985 q 350 958 353 964 q 329 951 347 951 m 213 951 q 193 958 196 951 q 190 974 190 964 q 193 991 190 985 q 213 997 196 997 q 232 991 229 997 q 235 974 235 985 q 232 958 235 964 q 213 951 229 951 m 279 1021 l 132 1135 l 169 1135 l 300 1021 l 279 1021 z "},"Ǖ":{"ha":544,"x_min":92,"x_max":453,"o":"m 272 -7 q 183 6 224 -7 q 117 47 142 18 q 92 124 92 75 l 92 861 l 119 861 l 119 135 q 132 77 119 104 q 177 33 144 50 q 272 17 210 17 q 372 33 339 17 q 415 77 404 50 q 425 135 425 104 l 425 861 l 453 861 l 453 124 q 430 47 453 75 q 366 6 407 18 q 272 -7 325 -7 m 329 951 q 311 958 314 951 q 308 974 308 964 q 311 991 308 985 q 329 997 314 997 q 350 991 347 997 q 353 974 353 985 q 350 958 353 964 q 329 951 347 951 m 213 951 q 193 958 196 951 q 190 974 190 964 q 193 991 190 985 q 213 997 196 997 q 232 991 229 997 q 235 974 235 985 q 232 958 235 964 q 213 951 229 951 m 140 1032 l 140 1053 l 403 1053 l 403 1032 l 140 1032 z "},"Ụ":{"ha":544,"x_min":92,"x_max":453,"o":"m 272 -7 q 183 6 224 -7 q 117 47 142 18 q 92 124 92 75 l 92 861 l 119 861 l 119 135 q 132 77 119 104 q 177 33 144 50 q 272 17 210 17 q 372 33 339 17 q 415 77 404 50 q 425 135 425 104 l 425 861 l 453 861 l 453 124 q 430 47 453 75 q 366 6 407 18 q 272 -7 325 -7 m 271 -114 q 251 -108 254 -114 q 249 -92 249 -101 q 251 -74 249 -81 q 271 -67 254 -67 q 290 -74 288 -67 q 293 -92 293 -81 q 290 -108 293 -101 q 271 -114 288 -114 z "},"Ù":{"ha":544,"x_min":92,"x_max":453,"o":"m 272 -7 q 183 6 224 -7 q 117 47 142 18 q 92 124 92 75 l 92 861 l 119 861 l 119 135 q 132 77 119 104 q 177 33 144 50 q 272 17 210 17 q 372 33 339 17 q 415 77 404 50 q 425 135 425 104 l 425 861 l 453 861 l 453 124 q 430 47 453 75 q 366 6 407 18 q 272 -7 325 -7 m 279 956 l 132 1069 l 169 1069 l 300 956 l 279 956 z "},"Ủ":{"ha":544,"x_min":92,"x_max":453,"o":"m 272 -7 q 183 6 224 -7 q 117 47 142 18 q 92 124 92 75 l 92 861 l 119 861 l 119 135 q 132 77 119 104 q 177 33 144 50 q 272 17 210 17 q 372 33 339 17 q 415 77 404 50 q 425 135 425 104 l 425 861 l 453 861 l 453 124 q 430 47 453 75 q 366 6 407 18 q 272 -7 325 -7 m 258 956 q 270 984 258 972 q 298 1006 282 996 q 326 1031 314 1017 q 338 1065 338 1044 q 317 1103 338 1089 q 274 1117 297 1117 q 222 1097 238 1117 q 201 1053 206 1078 l 185 1058 q 211 1115 188 1094 q 276 1135 235 1135 q 338 1115 317 1135 q 358 1067 358 1094 q 347 1025 358 1040 q 320 1000 335 1010 q 294 981 306 990 q 282 956 282 971 l 258 956 z "},"Ư":{"ha":544,"x_min":92,"x_max":540,"o":"m 272 -7 q 183 6 224 -7 q 117 47 142 18 q 92 124 92 75 l 92 861 l 119 861 l 119 135 q 132 77 119 104 q 177 33 144 50 q 272 17 210 17 q 372 33 339 17 q 415 77 404 50 q 425 135 425 104 l 425 861 l 453 861 l 453 124 q 430 47 453 75 q 366 6 407 18 q 272 -7 325 -7 m 436 844 l 433 861 q 503 878 486 861 q 519 931 521 894 l 540 931 q 517 862 540 879 q 436 844 493 844 z "},"Ứ":{"ha":544,"x_min":92,"x_max":540,"o":"m 272 -7 q 183 6 224 -7 q 117 47 142 18 q 92 124 92 75 l 92 861 l 119 861 l 119 135 q 132 77 119 104 q 177 33 144 50 q 272 17 210 17 q 372 33 339 17 q 415 77 404 50 q 425 135 425 104 l 425 861 l 453 861 l 453 124 q 430 47 453 75 q 366 6 407 18 q 272 -7 325 -7 m 436 844 l 433 861 q 503 878 486 861 q 519 931 521 894 l 540 931 q 517 862 540 879 q 436 844 493 844 m 222 956 l 353 1069 l 390 1069 l 243 956 l 222 956 z "},"Ự":{"ha":544,"x_min":92,"x_max":540,"o":"m 272 -7 q 183 6 224 -7 q 117 47 142 18 q 92 124 92 75 l 92 861 l 119 861 l 119 135 q 132 77 119 104 q 177 33 144 50 q 272 17 210 17 q 372 33 339 17 q 415 77 404 50 q 425 135 425 104 l 425 861 l 453 861 l 453 124 q 430 47 453 75 q 366 6 407 18 q 272 -7 325 -7 m 436 844 l 433 861 q 503 878 486 861 q 519 931 521 894 l 540 931 q 517 862 540 879 q 436 844 493 844 m 271 -114 q 251 -108 254 -114 q 249 -92 249 -101 q 251 -74 249 -81 q 271 -67 254 -67 q 290 -74 288 -67 q 293 -92 293 -81 q 290 -108 293 -101 q 271 -114 288 -114 z "},"Ừ":{"ha":544,"x_min":92,"x_max":540,"o":"m 272 -7 q 183 6 224 -7 q 117 47 142 18 q 92 124 92 75 l 92 861 l 119 861 l 119 135 q 132 77 119 104 q 177 33 144 50 q 272 17 210 17 q 372 33 339 17 q 415 77 404 50 q 425 135 425 104 l 425 861 l 453 861 l 453 124 q 430 47 453 75 q 366 6 407 18 q 272 -7 325 -7 m 436 844 l 433 861 q 503 878 486 861 q 519 931 521 894 l 540 931 q 517 862 540 879 q 436 844 493 844 m 279 956 l 132 1069 l 169 1069 l 300 956 l 279 956 z "},"Ử":{"ha":544,"x_min":92,"x_max":540,"o":"m 272 -7 q 183 6 224 -7 q 117 47 142 18 q 92 124 92 75 l 92 861 l 119 861 l 119 135 q 132 77 119 104 q 177 33 144 50 q 272 17 210 17 q 372 33 339 17 q 415 77 404 50 q 425 135 425 104 l 425 861 l 453 861 l 453 124 q 430 47 453 75 q 366 6 407 18 q 272 -7 325 -7 m 436 844 l 433 861 q 503 878 486 861 q 519 931 521 894 l 540 931 q 517 862 540 879 q 436 844 493 844 m 258 956 q 270 984 258 972 q 298 1006 282 996 q 326 1031 314 1017 q 338 1065 338 1044 q 317 1103 338 1089 q 274 1117 297 1117 q 222 1097 238 1117 q 201 1053 206 1078 l 185 1058 q 211 1115 188 1094 q 276 1135 235 1135 q 338 1115 317 1135 q 358 1067 358 1094 q 347 1025 358 1040 q 320 1000 335 1010 q 294 981 306 990 q 282 956 282 971 l 258 956 z "},"Ữ":{"ha":544,"x_min":92,"x_max":540,"o":"m 272 -7 q 183 6 224 -7 q 117 47 142 18 q 92 124 92 75 l 92 861 l 119 861 l 119 135 q 132 77 119 104 q 177 33 144 50 q 272 17 210 17 q 372 33 339 17 q 415 77 404 50 q 425 135 425 104 l 425 861 l 453 861 l 453 124 q 430 47 453 75 q 366 6 407 18 q 272 -7 325 -7 m 436 844 l 433 861 q 503 878 486 861 q 519 931 521 894 l 540 931 q 517 862 540 879 q 436 844 493 844 m 147 947 q 166 1017 147 996 q 211 1039 185 1039 q 257 1023 239 1039 q 292 991 275 1007 q 331 975 310 975 q 370 997 363 975 q 378 1036 378 1018 l 397 1036 q 377 971 397 989 q 333 953 357 953 q 288 969 307 953 q 251 1002 268 986 q 214 1018 235 1018 q 178 999 189 1018 q 167 947 167 979 l 147 947 z "},"Ű":{"ha":544,"x_min":92,"x_max":453,"o":"m 272 -7 q 183 6 224 -7 q 117 47 142 18 q 92 124 92 75 l 92 861 l 119 861 l 119 135 q 132 77 119 104 q 177 33 144 50 q 272 17 210 17 q 372 33 339 17 q 415 77 404 50 q 425 135 425 104 l 425 861 l 453 861 l 453 124 q 430 47 453 75 q 366 6 407 18 q 272 -7 325 -7 m 221 956 l 269 1083 l 306 1083 l 242 956 l 221 956 m 303 956 l 351 1083 l 389 1083 l 324 956 l 303 956 z "},"Ȗ":{"ha":544,"x_min":92,"x_max":453,"o":"m 269 1065 q 365 1030 338 1065 q 393 947 393 994 l 374 947 q 351 1016 374 988 q 269 1044 328 1044 q 192 1015 214 1044 q 171 947 171 985 l 151 947 q 160 999 151 971 q 194 1046 168 1026 q 269 1065 219 1065 m 272 -7 q 183 6 224 -7 q 117 47 142 18 q 92 124 92 75 l 92 861 l 119 861 l 119 135 q 132 77 119 104 q 177 33 144 50 q 272 17 210 17 q 372 33 339 17 q 415 77 404 50 q 425 135 425 104 l 425 861 l 453 861 l 453 124 q 430 47 453 75 q 366 6 407 18 q 272 -7 325 -7 z "},"Ū":{"ha":544,"x_min":92,"x_max":453,"o":"m 272 -7 q 183 6 224 -7 q 117 47 142 18 q 92 124 92 75 l 92 861 l 119 861 l 119 135 q 132 77 119 104 q 177 33 144 50 q 272 17 210 17 q 372 33 339 17 q 415 77 404 50 q 425 135 425 104 l 425 861 l 453 861 l 453 124 q 430 47 453 75 q 366 6 407 18 q 272 -7 325 -7 m 140 967 l 140 988 l 403 988 l 403 967 l 140 967 z "},"Ų":{"ha":544,"x_min":92,"x_max":453,"o":"m 272 -7 q 183 6 224 -7 q 117 47 142 18 q 92 124 92 75 l 92 861 l 119 861 l 119 135 q 132 77 119 104 q 177 33 144 50 q 272 17 210 17 q 372 33 339 17 q 415 77 404 50 q 425 135 425 104 l 425 861 l 453 861 l 453 124 q 430 47 453 75 q 366 6 407 18 q 272 -7 325 -7 m 253 -225 q 192 -197 215 -225 q 169 -129 169 -169 q 199 -55 169 -93 q 293 6 229 -17 l 313 0 q 227 -52 261 -22 q 193 -128 193 -82 q 212 -181 193 -158 q 261 -204 231 -204 q 305 -198 286 -204 q 346 -174 324 -192 l 349 -194 q 302 -219 324 -212 q 253 -225 281 -225 z "},"Ů":{"ha":544,"x_min":92,"x_max":453,"o":"m 272 -7 q 183 6 224 -7 q 117 47 142 18 q 92 124 92 75 l 92 861 l 119 861 l 119 135 q 132 77 119 104 q 177 33 144 50 q 272 17 210 17 q 372 33 339 17 q 415 77 404 50 q 425 135 425 104 l 425 861 l 453 861 l 453 124 q 430 47 453 75 q 366 6 407 18 q 272 -7 325 -7 m 272 949 q 206 974 232 949 q 179 1035 179 1000 q 206 1097 179 1071 q 272 1122 232 1122 q 336 1097 310 1122 q 363 1035 363 1071 q 336 974 363 1000 q 272 949 310 949 m 272 964 q 324 985 301 964 q 346 1033 346 1006 q 324 1086 346 1064 q 272 1108 301 1108 q 219 1086 240 1108 q 197 1033 197 1064 q 219 985 197 1006 q 272 964 240 964 z "},"Ũ":{"ha":544,"x_min":92,"x_max":453,"o":"m 272 -7 q 183 6 224 -7 q 117 47 142 18 q 92 124 92 75 l 92 861 l 119 861 l 119 135 q 132 77 119 104 q 177 33 144 50 q 272 17 210 17 q 372 33 339 17 q 415 77 404 50 q 425 135 425 104 l 425 861 l 453 861 l 453 124 q 430 47 453 75 q 366 6 407 18 q 272 -7 325 -7 m 147 947 q 166 1017 147 996 q 211 1039 185 1039 q 257 1023 239 1039 q 292 991 275 1007 q 331 975 310 975 q 370 997 363 975 q 378 1036 378 1018 l 397 1036 q 377 971 397 989 q 333 953 357 953 q 288 969 307 953 q 251 1002 268 986 q 214 1018 235 1018 q 178 999 189 1018 q 167 947 167 979 l 147 947 z "},"V":{"ha":486,"x_min":42,"x_max":444,"o":"m 225 0 l 42 861 l 69 861 l 242 47 l 243 33 l 244 33 l 244 47 l 415 861 l 444 861 l 261 0 l 225 0 z "},"W":{"ha":758,"x_min":39,"x_max":719,"o":"m 199 0 l 39 861 l 68 861 l 215 56 l 217 42 l 218 42 l 218 56 l 375 814 l 400 814 l 543 56 l 544 42 l 546 42 l 547 56 l 692 861 l 719 861 l 563 0 l 528 0 l 390 743 l 390 751 l 389 751 l 388 743 l 233 0 l 199 0 z "},"Ẃ":{"ha":758,"x_min":39,"x_max":719,"o":"m 199 0 l 39 861 l 68 861 l 215 56 l 217 42 l 218 42 l 218 56 l 375 814 l 400 814 l 543 56 l 544 42 l 546 42 l 547 56 l 692 861 l 719 861 l 563 0 l 528 0 l 390 743 l 390 751 l 389 751 l 388 743 l 233 0 l 199 0 m 339 956 l 469 1069 l 507 1069 l 360 956 l 339 956 z "},"Ŵ":{"ha":758,"x_min":39,"x_max":719,"o":"m 199 0 l 39 861 l 68 861 l 215 56 l 217 42 l 218 42 l 218 56 l 375 814 l 400 814 l 543 56 l 544 42 l 546 42 l 547 56 l 692 861 l 719 861 l 563 0 l 528 0 l 390 743 l 390 751 l 389 751 l 388 743 l 233 0 l 199 0 m 251 956 l 368 1074 l 407 1074 l 524 956 l 503 956 l 389 1056 l 275 956 l 251 956 z "},"Ẅ":{"ha":758,"x_min":39,"x_max":719,"o":"m 199 0 l 39 861 l 68 861 l 215 56 l 217 42 l 218 42 l 218 56 l 375 814 l 400 814 l 543 56 l 544 42 l 546 42 l 547 56 l 692 861 l 719 861 l 563 0 l 528 0 l 390 743 l 390 751 l 389 751 l 388 743 l 233 0 l 199 0 m 446 951 q 428 958 431 951 q 425 974 425 964 q 428 991 425 985 q 446 997 431 997 q 467 991 464 997 q 469 974 469 985 q 467 958 469 964 q 446 951 464 951 m 329 951 q 310 958 313 951 q 307 974 307 964 q 310 991 307 985 q 329 997 313 997 q 349 991 346 997 q 351 974 351 985 q 349 958 351 964 q 329 951 346 951 z "},"Ẁ":{"ha":758,"x_min":39,"x_max":719,"o":"m 199 0 l 39 861 l 68 861 l 215 56 l 217 42 l 218 42 l 218 56 l 375 814 l 400 814 l 543 56 l 544 42 l 546 42 l 547 56 l 692 861 l 719 861 l 563 0 l 528 0 l 390 743 l 390 751 l 389 751 l 388 743 l 233 0 l 199 0 m 396 956 l 249 1069 l 286 1069 l 417 956 l 396 956 z "},"X":{"ha":497,"x_min":42,"x_max":456,"o":"m 42 0 l 226 451 l 50 861 l 81 861 l 244 476 l 249 465 l 250 465 l 254 476 l 417 861 l 446 861 l 271 451 l 456 0 l 426 0 l 253 424 l 250 438 l 249 438 l 244 424 l 71 0 l 42 0 z "},"Y":{"ha":454,"x_min":22,"x_max":432,"o":"m 213 0 l 213 381 l 22 861 l 49 861 l 224 425 l 226 411 l 228 411 l 231 425 l 404 861 l 432 861 l 240 381 l 240 0 l 213 0 z "},"Ý":{"ha":454,"x_min":22,"x_max":432,"o":"m 213 0 l 213 381 l 22 861 l 49 861 l 224 425 l 226 411 l 228 411 l 231 425 l 404 861 l 432 861 l 240 381 l 240 0 l 213 0 m 176 956 l 307 1069 l 344 1069 l 197 956 l 176 956 z "},"Ŷ":{"ha":454,"x_min":22,"x_max":432,"o":"m 213 0 l 213 381 l 22 861 l 49 861 l 224 425 l 226 411 l 228 411 l 231 425 l 404 861 l 432 861 l 240 381 l 240 0 l 213 0 m 89 956 l 206 1074 l 244 1074 l 361 956 l 340 956 l 226 1056 l 113 956 l 89 956 z "},"Ÿ":{"ha":454,"x_min":22,"x_max":432,"o":"m 213 0 l 213 381 l 22 861 l 49 861 l 224 425 l 226 411 l 228 411 l 231 425 l 404 861 l 432 861 l 240 381 l 240 0 l 213 0 m 283 951 q 265 958 268 951 q 263 974 263 964 q 265 991 263 985 q 283 997 268 997 q 304 991 301 997 q 307 974 307 985 q 304 958 307 964 q 283 951 301 951 m 167 951 q 147 958 150 951 q 144 974 144 964 q 147 991 144 985 q 167 997 150 997 q 186 991 183 997 q 189 974 189 985 q 186 958 189 964 q 167 951 183 951 z "},"Ỵ":{"ha":454,"x_min":22,"x_max":432,"o":"m 213 0 l 213 381 l 22 861 l 49 861 l 224 425 l 226 411 l 228 411 l 231 425 l 404 861 l 432 861 l 240 381 l 240 0 l 213 0 m 225 -114 q 206 -108 208 -114 q 203 -92 203 -101 q 206 -74 203 -81 q 225 -67 208 -67 q 244 -74 242 -67 q 247 -92 247 -81 q 244 -108 247 -101 q 225 -114 242 -114 z "},"Ỳ":{"ha":454,"x_min":22,"x_max":432,"o":"m 213 0 l 213 381 l 22 861 l 49 861 l 224 425 l 226 411 l 228 411 l 231 425 l 404 861 l 432 861 l 240 381 l 240 0 l 213 0 m 233 956 l 86 1069 l 124 1069 l 254 956 l 233 956 z "},"Ỷ":{"ha":454,"x_min":22,"x_max":432,"o":"m 213 0 l 213 381 l 22 861 l 49 861 l 224 425 l 226 411 l 228 411 l 231 425 l 404 861 l 432 861 l 240 381 l 240 0 l 213 0 m 213 956 q 224 984 213 972 q 252 1006 236 996 q 280 1031 268 1017 q 292 1065 292 1044 q 272 1103 292 1089 q 228 1117 251 1117 q 176 1097 192 1117 q 156 1053 160 1078 l 139 1058 q 165 1115 142 1094 q 231 1135 189 1135 q 292 1115 271 1135 q 313 1067 313 1094 q 301 1025 313 1040 q 274 1000 289 1010 q 248 981 260 990 q 236 956 236 971 l 213 956 z "},"Ȳ":{"ha":454,"x_min":22,"x_max":432,"o":"m 213 0 l 213 381 l 22 861 l 49 861 l 224 425 l 226 411 l 228 411 l 231 425 l 404 861 l 432 861 l 240 381 l 240 0 l 213 0 m 94 967 l 94 988 l 357 988 l 357 967 l 94 967 z "},"Ỹ":{"ha":454,"x_min":22,"x_max":432,"o":"m 213 0 l 213 381 l 22 861 l 49 861 l 224 425 l 226 411 l 228 411 l 231 425 l 404 861 l 432 861 l 240 381 l 240 0 l 213 0 m 101 947 q 120 1017 101 996 q 165 1039 139 1039 q 211 1023 193 1039 q 247 991 229 1007 q 285 975 264 975 q 324 997 317 975 q 332 1036 332 1018 l 351 1036 q 331 971 351 989 q 288 953 311 953 q 242 969 261 953 q 206 1002 222 986 q 168 1018 189 1018 q 132 999 143 1018 q 121 947 121 979 l 101 947 z "},"Z":{"ha":392,"x_min":22,"x_max":358,"o":"m 22 0 l 311 838 l 46 838 l 46 861 l 346 861 l 58 24 l 358 24 l 358 0 l 22 0 z "},"Ź":{"ha":392,"x_min":22,"x_max":358,"o":"m 22 0 l 311 838 l 46 838 l 46 861 l 346 861 l 58 24 l 358 24 l 358 0 l 22 0 m 146 956 l 276 1069 l 314 1069 l 167 956 l 146 956 z "},"Ž":{"ha":392,"x_min":22,"x_max":358,"o":"m 58 1074 l 82 1074 l 196 974 l 310 1074 l 331 1074 l 214 956 l 175 956 l 58 1074 m 22 0 l 311 838 l 46 838 l 46 861 l 346 861 l 58 24 l 358 24 l 358 0 l 22 0 z "},"Ż":{"ha":392,"x_min":22,"x_max":358,"o":"m 22 0 l 311 838 l 46 838 l 46 861 l 346 861 l 58 24 l 358 24 l 358 0 l 22 0 m 194 953 q 175 959 178 953 q 172 975 172 965 q 175 993 172 986 q 194 1000 178 1000 q 214 993 211 1000 q 217 975 217 986 q 214 959 217 965 q 194 953 211 953 z "},"a":{"ha":550,"x_min":89,"x_max":453,"o":"m 185 0 q 117 13 138 0 q 93 63 97 25 q 89 174 89 100 l 89 538 q 99 616 89 592 q 139 647 108 640 q 232 653 169 653 l 453 653 l 453 0 l 425 0 l 425 629 l 204 629 q 139 617 157 629 q 119 578 121 606 q 117 503 117 551 l 117 143 q 121 69 117 94 q 141 33 125 43 q 192 24 157 24 l 372 24 l 367 0 l 185 0 z "},"á":{"ha":550,"x_min":89,"x_max":453,"o":"m 185 0 q 117 13 138 0 q 93 63 97 25 q 89 174 89 100 l 89 538 q 99 616 89 592 q 139 647 108 640 q 232 653 169 653 l 453 653 l 453 0 l 425 0 l 425 629 l 204 629 q 139 617 157 629 q 119 578 121 606 q 117 503 117 551 l 117 143 q 121 69 117 94 q 141 33 125 43 q 192 24 157 24 l 372 24 l 367 0 l 185 0 m 224 747 l 340 875 l 378 875 l 244 747 l 224 747 z "},"ă":{"ha":550,"x_min":89,"x_max":453,"o":"m 185 0 q 117 13 138 0 q 93 63 97 25 q 89 174 89 100 l 89 538 q 99 616 89 592 q 139 647 108 640 q 232 653 169 653 l 453 653 l 453 0 l 425 0 l 425 629 l 204 629 q 139 617 157 629 q 119 578 121 606 q 117 503 117 551 l 117 143 q 121 69 117 94 q 141 33 125 43 q 192 24 157 24 l 372 24 l 367 0 l 185 0 m 271 742 q 195 761 221 742 q 161 808 169 781 q 153 860 153 836 l 172 860 q 194 792 172 822 q 271 763 215 763 q 352 792 329 763 q 375 860 375 821 l 394 860 q 367 777 394 813 q 271 742 339 742 z "},"ắ":{"ha":550,"x_min":89,"x_max":453,"o":"m 185 0 q 117 13 138 0 q 93 63 97 25 q 89 174 89 100 l 89 538 q 99 616 89 592 q 139 647 108 640 q 232 653 169 653 l 453 653 l 453 0 l 425 0 l 425 629 l 204 629 q 139 617 157 629 q 119 578 121 606 q 117 503 117 551 l 117 143 q 121 69 117 94 q 141 33 125 43 q 192 24 157 24 l 372 24 l 367 0 l 185 0 m 271 742 q 195 761 221 742 q 161 808 169 781 q 153 860 153 836 l 172 860 q 194 792 172 822 q 271 763 215 763 q 352 792 329 763 q 375 860 375 821 l 394 860 q 367 777 394 813 q 271 742 339 742 m 224 893 l 340 1021 l 378 1021 l 244 893 l 224 893 z "},"ặ":{"ha":550,"x_min":89,"x_max":453,"o":"m 185 0 q 117 13 138 0 q 93 63 97 25 q 89 174 89 100 l 89 538 q 99 616 89 592 q 139 647 108 640 q 232 653 169 653 l 453 653 l 453 0 l 425 0 l 425 629 l 204 629 q 139 617 157 629 q 119 578 121 606 q 117 503 117 551 l 117 143 q 121 69 117 94 q 141 33 125 43 q 192 24 157 24 l 372 24 l 367 0 l 185 0 m 274 -114 q 254 -108 257 -114 q 251 -92 251 -101 q 254 -74 251 -81 q 274 -67 257 -67 q 293 -74 290 -67 q 296 -92 296 -81 q 293 -108 296 -101 q 274 -114 290 -114 m 271 742 q 195 761 221 742 q 161 808 169 781 q 153 860 153 836 l 172 860 q 194 792 172 822 q 271 763 215 763 q 352 792 329 763 q 375 860 375 821 l 394 860 q 367 777 394 813 q 271 742 339 742 z "},"ằ":{"ha":550,"x_min":89,"x_max":453,"o":"m 185 0 q 117 13 138 0 q 93 63 97 25 q 89 174 89 100 l 89 538 q 99 616 89 592 q 139 647 108 640 q 232 653 169 653 l 453 653 l 453 0 l 425 0 l 425 629 l 204 629 q 139 617 157 629 q 119 578 121 606 q 117 503 117 551 l 117 143 q 121 69 117 94 q 141 33 125 43 q 192 24 157 24 l 372 24 l 367 0 l 185 0 m 271 742 q 195 761 221 742 q 161 808 169 781 q 153 860 153 836 l 172 860 q 194 792 172 822 q 271 763 215 763 q 352 792 329 763 q 375 860 375 821 l 394 860 q 367 777 394 813 q 271 742 339 742 m 282 893 l 149 1021 l 186 1021 l 303 893 l 282 893 z "},"ẳ":{"ha":550,"x_min":89,"x_max":453,"o":"m 185 0 q 117 13 138 0 q 93 63 97 25 q 89 174 89 100 l 89 538 q 99 616 89 592 q 139 647 108 640 q 232 653 169 653 l 453 653 l 453 0 l 425 0 l 425 629 l 204 629 q 139 617 157 629 q 119 578 121 606 q 117 503 117 551 l 117 143 q 121 69 117 94 q 141 33 125 43 q 192 24 157 24 l 372 24 l 367 0 l 185 0 m 271 742 q 195 761 221 742 q 161 808 169 781 q 153 860 153 836 l 172 860 q 194 792 172 822 q 271 763 215 763 q 352 792 329 763 q 375 860 375 821 l 394 860 q 367 777 394 813 q 271 742 339 742 m 260 893 q 272 922 260 910 q 299 944 283 933 q 327 968 315 954 q 339 1003 339 982 q 319 1040 339 1026 q 275 1054 299 1054 q 223 1035 239 1054 q 203 990 207 1015 l 186 996 q 213 1052 189 1032 q 278 1072 236 1072 q 339 1052 318 1072 q 360 1004 360 1032 q 348 963 360 978 q 322 938 336 947 q 295 918 307 928 q 283 893 283 908 l 260 893 z "},"ẵ":{"ha":550,"x_min":89,"x_max":453,"o":"m 185 0 q 117 13 138 0 q 93 63 97 25 q 89 174 89 100 l 89 538 q 99 616 89 592 q 139 647 108 640 q 232 653 169 653 l 453 653 l 453 0 l 425 0 l 425 629 l 204 629 q 139 617 157 629 q 119 578 121 606 q 117 503 117 551 l 117 143 q 121 69 117 94 q 141 33 125 43 q 192 24 157 24 l 372 24 l 367 0 l 185 0 m 271 742 q 195 761 221 742 q 161 808 169 781 q 153 860 153 836 l 172 860 q 194 792 172 822 q 271 763 215 763 q 352 792 329 763 q 375 860 375 821 l 394 860 q 367 777 394 813 q 271 742 339 742 m 149 885 q 167 955 149 933 q 213 976 186 976 q 258 960 240 976 q 294 928 276 944 q 332 913 311 913 q 372 934 364 913 q 379 974 379 956 l 399 974 q 378 908 399 926 q 335 890 358 890 q 289 907 308 890 q 253 940 269 924 q 215 956 236 956 q 179 936 190 956 q 168 885 168 917 l 149 885 z "},"ǎ":{"ha":550,"x_min":89,"x_max":453,"o":"m 136 865 l 160 865 l 274 765 l 388 865 l 408 865 l 292 747 l 253 747 l 136 865 m 185 0 q 117 13 138 0 q 93 63 97 25 q 89 174 89 100 l 89 538 q 99 616 89 592 q 139 647 108 640 q 232 653 169 653 l 453 653 l 453 0 l 425 0 l 425 629 l 204 629 q 139 617 157 629 q 119 578 121 606 q 117 503 117 551 l 117 143 q 121 69 117 94 q 141 33 125 43 q 192 24 157 24 l 372 24 l 367 0 l 185 0 z "},"â":{"ha":550,"x_min":89,"x_max":453,"o":"m 185 0 q 117 13 138 0 q 93 63 97 25 q 89 174 89 100 l 89 538 q 99 616 89 592 q 139 647 108 640 q 232 653 169 653 l 453 653 l 453 0 l 425 0 l 425 629 l 204 629 q 139 617 157 629 q 119 578 121 606 q 117 503 117 551 l 117 143 q 121 69 117 94 q 141 33 125 43 q 192 24 157 24 l 372 24 l 367 0 l 185 0 m 136 747 l 253 865 l 292 865 l 408 747 l 388 747 l 274 847 l 160 747 l 136 747 z "},"ấ":{"ha":550,"x_min":89,"x_max":551,"o":"m 185 0 q 117 13 138 0 q 93 63 97 25 q 89 174 89 100 l 89 538 q 99 616 89 592 q 139 647 108 640 q 232 653 169 653 l 453 653 l 453 0 l 425 0 l 425 629 l 204 629 q 139 617 157 629 q 119 578 121 606 q 117 503 117 551 l 117 143 q 121 69 117 94 q 141 33 125 43 q 192 24 157 24 l 372 24 l 367 0 l 185 0 m 136 747 l 253 865 l 292 865 l 408 747 l 388 747 l 274 847 l 160 747 l 136 747 m 397 850 l 514 978 l 551 978 l 418 850 l 397 850 z "},"ậ":{"ha":550,"x_min":89,"x_max":453,"o":"m 185 0 q 117 13 138 0 q 93 63 97 25 q 89 174 89 100 l 89 538 q 99 616 89 592 q 139 647 108 640 q 232 653 169 653 l 453 653 l 453 0 l 425 0 l 425 629 l 204 629 q 139 617 157 629 q 119 578 121 606 q 117 503 117 551 l 117 143 q 121 69 117 94 q 141 33 125 43 q 192 24 157 24 l 372 24 l 367 0 l 185 0 m 274 -114 q 254 -108 257 -114 q 251 -92 251 -101 q 254 -74 251 -81 q 274 -67 257 -67 q 293 -74 290 -67 q 296 -92 296 -81 q 293 -108 296 -101 q 274 -114 290 -114 m 136 747 l 253 865 l 292 865 l 408 747 l 388 747 l 274 847 l 160 747 l 136 747 z "},"ầ":{"ha":550,"x_min":89,"x_max":456,"o":"m 185 0 q 117 13 138 0 q 93 63 97 25 q 89 174 89 100 l 89 538 q 99 616 89 592 q 139 647 108 640 q 232 653 169 653 l 453 653 l 453 0 l 425 0 l 425 629 l 204 629 q 139 617 157 629 q 119 578 121 606 q 117 503 117 551 l 117 143 q 121 69 117 94 q 141 33 125 43 q 192 24 157 24 l 372 24 l 367 0 l 185 0 m 136 747 l 253 865 l 292 865 l 408 747 l 388 747 l 274 847 l 160 747 l 136 747 m 435 850 l 301 978 l 339 978 l 456 850 l 435 850 z "},"ẩ":{"ha":550,"x_min":89,"x_max":528,"o":"m 185 0 q 117 13 138 0 q 93 63 97 25 q 89 174 89 100 l 89 538 q 99 616 89 592 q 139 647 108 640 q 232 653 169 653 l 453 653 l 453 0 l 425 0 l 425 629 l 204 629 q 139 617 157 629 q 119 578 121 606 q 117 503 117 551 l 117 143 q 121 69 117 94 q 141 33 125 43 q 192 24 157 24 l 372 24 l 367 0 l 185 0 m 136 747 l 253 865 l 292 865 l 408 747 l 388 747 l 274 847 l 160 747 l 136 747 m 428 850 q 440 878 428 867 q 467 901 451 890 q 495 925 483 911 q 507 960 507 939 q 487 997 507 983 q 443 1011 467 1011 q 391 992 407 1011 q 371 947 375 972 l 354 953 q 381 1009 357 989 q 446 1029 404 1029 q 507 1009 486 1029 q 528 961 528 989 q 516 919 528 935 q 490 894 504 904 q 463 875 475 885 q 451 850 451 865 l 428 850 z "},"ẫ":{"ha":550,"x_min":89,"x_max":453,"o":"m 185 0 q 117 13 138 0 q 93 63 97 25 q 89 174 89 100 l 89 538 q 99 616 89 592 q 139 647 108 640 q 232 653 169 653 l 453 653 l 453 0 l 425 0 l 425 629 l 204 629 q 139 617 157 629 q 119 578 121 606 q 117 503 117 551 l 117 143 q 121 69 117 94 q 141 33 125 43 q 192 24 157 24 l 372 24 l 367 0 l 185 0 m 136 747 l 253 865 l 292 865 l 408 747 l 388 747 l 274 847 l 160 747 l 136 747 m 146 899 q 165 969 146 947 q 210 990 183 990 q 256 974 238 990 q 291 942 274 958 q 329 926 308 926 q 369 948 361 926 q 376 988 376 969 l 396 988 q 376 922 396 940 q 332 904 356 904 q 286 921 306 904 q 250 953 267 938 q 213 969 233 969 q 176 950 188 969 q 165 899 165 931 l 146 899 z "},"´":{"ha":154,"x_min":0,"x_max":154,"o":"m 0 747 l 117 875 l 154 875 l 21 747 l 0 747 z "},"́":{"ha":0,"x_min":0,"x_max":154,"o":"m 0 747 l 117 875 l 154 875 l 21 747 l 0 747 z "},"ȁ":{"ha":550,"x_min":89,"x_max":453,"o":"m 185 0 q 117 13 138 0 q 93 63 97 25 q 89 174 89 100 l 89 538 q 99 616 89 592 q 139 647 108 640 q 232 653 169 653 l 453 653 l 453 0 l 425 0 l 425 629 l 204 629 q 139 617 157 629 q 119 578 121 606 q 117 503 117 551 l 117 143 q 121 69 117 94 q 141 33 125 43 q 192 24 157 24 l 372 24 l 367 0 l 185 0 m 222 747 l 89 875 l 126 875 l 243 747 l 222 747 m 307 747 l 174 875 l 211 875 l 328 747 l 307 747 z "},"ä":{"ha":550,"x_min":89,"x_max":453,"o":"m 185 0 q 117 13 138 0 q 93 63 97 25 q 89 174 89 100 l 89 538 q 99 616 89 592 q 139 647 108 640 q 232 653 169 653 l 453 653 l 453 0 l 425 0 l 425 629 l 204 629 q 139 617 157 629 q 119 578 121 606 q 117 503 117 551 l 117 143 q 121 69 117 94 q 141 33 125 43 q 192 24 157 24 l 372 24 l 367 0 l 185 0 m 331 743 q 313 749 315 743 q 310 765 310 756 q 313 783 310 776 q 331 789 315 789 q 351 783 349 789 q 354 765 354 776 q 351 749 354 756 q 331 743 349 743 m 214 743 q 194 749 197 743 q 192 765 192 756 q 194 783 192 776 q 214 789 197 789 q 233 783 231 789 q 236 765 236 776 q 233 749 236 756 q 214 743 231 743 z "},"ạ":{"ha":550,"x_min":89,"x_max":453,"o":"m 185 0 q 117 13 138 0 q 93 63 97 25 q 89 174 89 100 l 89 538 q 99 616 89 592 q 139 647 108 640 q 232 653 169 653 l 453 653 l 453 0 l 425 0 l 425 629 l 204 629 q 139 617 157 629 q 119 578 121 606 q 117 503 117 551 l 117 143 q 121 69 117 94 q 141 33 125 43 q 192 24 157 24 l 372 24 l 367 0 l 185 0 m 274 -114 q 254 -108 257 -114 q 251 -92 251 -101 q 254 -74 251 -81 q 274 -67 257 -67 q 293 -74 290 -67 q 296 -92 296 -81 q 293 -108 296 -101 q 274 -114 290 -114 z "},"æ":{"ha":806,"x_min":89,"x_max":783,"o":"m 185 0 q 117 13 138 0 q 93 63 97 25 q 89 174 89 100 l 89 538 q 99 616 89 592 q 139 647 108 640 q 232 653 169 653 l 453 653 l 453 0 l 425 0 l 425 629 l 204 629 q 139 617 157 629 q 119 578 121 606 q 117 503 117 551 l 117 143 q 121 69 117 94 q 141 33 125 43 q 192 24 157 24 l 372 24 l 367 0 l 185 0 m 589 0 q 481 22 518 0 q 432 78 444 44 q 419 142 419 111 l 419 524 q 433 588 419 556 q 485 643 446 621 q 601 665 524 665 q 717 643 678 665 q 769 588 756 621 q 783 524 783 556 l 783 350 l 756 350 l 756 519 q 713 614 756 585 q 601 643 669 643 q 491 615 535 643 q 447 519 447 586 l 447 146 q 490 52 447 81 q 589 24 532 24 q 711 54 667 24 q 756 158 756 85 l 756 240 l 783 246 l 783 164 q 769 85 783 122 q 713 24 754 47 q 589 0 671 0 m 428 336 l 428 356 l 783 356 l 783 336 l 428 336 z "},"ǽ":{"ha":806,"x_min":89,"x_max":783,"o":"m 185 0 q 117 13 138 0 q 93 63 97 25 q 89 174 89 100 l 89 538 q 99 616 89 592 q 139 647 108 640 q 232 653 169 653 l 453 653 l 453 0 l 425 0 l 425 629 l 204 629 q 139 617 157 629 q 119 578 121 606 q 117 503 117 551 l 117 143 q 121 69 117 94 q 141 33 125 43 q 192 24 157 24 l 372 24 l 367 0 l 185 0 m 589 0 q 481 22 518 0 q 432 78 444 44 q 419 142 419 111 l 419 524 q 433 588 419 556 q 485 643 446 621 q 601 665 524 665 q 717 643 678 665 q 769 588 756 621 q 783 524 783 556 l 783 350 l 756 350 l 756 519 q 713 614 756 585 q 601 643 669 643 q 491 615 535 643 q 447 519 447 586 l 447 146 q 490 52 447 81 q 589 24 532 24 q 711 54 667 24 q 756 158 756 85 l 756 240 l 783 246 l 783 164 q 769 85 783 122 q 713 24 754 47 q 589 0 671 0 m 428 336 l 428 356 l 783 356 l 783 336 l 428 336 m 353 747 l 469 875 l 507 875 l 374 747 l 353 747 z "},"à":{"ha":550,"x_min":89,"x_max":453,"o":"m 185 0 q 117 13 138 0 q 93 63 97 25 q 89 174 89 100 l 89 538 q 99 616 89 592 q 139 647 108 640 q 232 653 169 653 l 453 653 l 453 0 l 425 0 l 425 629 l 204 629 q 139 617 157 629 q 119 578 121 606 q 117 503 117 551 l 117 143 q 121 69 117 94 q 141 33 125 43 q 192 24 157 24 l 372 24 l 367 0 l 185 0 m 281 747 l 147 875 l 185 875 l 301 747 l 281 747 z "},"ả":{"ha":550,"x_min":89,"x_max":453,"o":"m 185 0 q 117 13 138 0 q 93 63 97 25 q 89 174 89 100 l 89 538 q 99 616 89 592 q 139 647 108 640 q 232 653 169 653 l 453 653 l 453 0 l 425 0 l 425 629 l 204 629 q 139 617 157 629 q 119 578 121 606 q 117 503 117 551 l 117 143 q 121 69 117 94 q 141 33 125 43 q 192 24 157 24 l 372 24 l 367 0 l 185 0 m 260 747 q 272 776 260 764 q 299 798 283 788 q 327 822 315 808 q 339 857 339 836 q 319 894 339 881 q 275 908 299 908 q 223 889 239 908 q 203 844 207 869 l 186 850 q 213 906 189 886 q 278 926 236 926 q 339 906 318 926 q 360 858 360 886 q 348 817 360 832 q 322 792 336 801 q 295 772 307 782 q 283 747 283 763 l 260 747 z "},"ȃ":{"ha":550,"x_min":89,"x_max":453,"o":"m 271 857 q 367 822 339 857 q 394 739 394 786 l 375 739 q 352 808 375 779 q 271 836 329 836 q 194 806 215 836 q 172 739 172 776 l 153 739 q 161 790 153 763 q 195 838 169 818 q 271 857 221 857 m 185 0 q 117 13 138 0 q 93 63 97 25 q 89 174 89 100 l 89 538 q 99 616 89 592 q 139 647 108 640 q 232 653 169 653 l 453 653 l 453 0 l 425 0 l 425 629 l 204 629 q 139 617 157 629 q 119 578 121 606 q 117 503 117 551 l 117 143 q 121 69 117 94 q 141 33 125 43 q 192 24 157 24 l 372 24 l 367 0 l 185 0 z "},"ā":{"ha":550,"x_min":89,"x_max":453,"o":"m 185 0 q 117 13 138 0 q 93 63 97 25 q 89 174 89 100 l 89 538 q 99 616 89 592 q 139 647 108 640 q 232 653 169 653 l 453 653 l 453 0 l 425 0 l 425 629 l 204 629 q 139 617 157 629 q 119 578 121 606 q 117 503 117 551 l 117 143 q 121 69 117 94 q 141 33 125 43 q 192 24 157 24 l 372 24 l 367 0 l 185 0 m 142 758 l 142 779 l 404 779 l 404 758 l 142 758 z "},"&":{"ha":653,"x_min":121,"x_max":586,"o":"m 301 8 q 176 29 214 8 q 129 86 138 50 q 121 167 121 122 l 121 322 q 129 402 121 368 q 172 456 138 436 q 285 475 207 475 q 177 492 211 476 q 134 540 143 508 q 125 617 125 571 l 125 743 q 139 824 125 797 q 192 858 153 850 q 303 867 231 867 q 421 857 382 867 q 472 820 460 847 q 485 743 485 793 l 485 582 l 457 569 l 457 739 q 447 800 457 778 q 405 831 438 822 q 301 840 372 840 q 204 831 236 840 q 163 801 172 822 q 153 740 153 779 l 153 618 q 164 538 153 567 q 213 497 175 508 q 331 485 251 485 l 438 485 l 438 467 l 331 467 q 214 453 253 467 q 163 410 175 439 q 149 335 150 382 l 149 169 q 150 123 149 147 q 163 78 151 99 q 206 44 175 57 q 299 32 238 32 q 396 44 363 32 q 442 78 429 57 q 456 123 454 99 q 457 169 457 147 l 457 433 l 586 433 l 575 411 l 485 411 l 485 174 q 481 110 485 140 q 461 58 478 81 q 407 22 444 35 q 301 8 369 8 z "},"ą":{"ha":550,"x_min":89,"x_max":486,"o":"m 185 0 q 117 13 138 0 q 93 63 97 25 q 89 174 89 100 l 89 538 q 99 616 89 592 q 139 647 108 640 q 232 653 169 653 l 453 653 l 453 0 l 425 0 l 425 629 l 204 629 q 139 617 157 629 q 119 578 121 606 q 117 503 117 551 l 117 143 q 121 69 117 94 q 141 33 125 43 q 192 24 157 24 l 372 24 l 367 0 l 185 0 m 390 -217 q 330 -189 353 -217 q 307 -121 307 -161 q 337 -47 307 -85 q 431 14 367 -8 l 450 8 q 365 -44 399 -14 q 331 -119 331 -74 q 349 -173 331 -150 q 399 -196 368 -196 q 442 -190 424 -196 q 483 -165 461 -183 l 486 -186 q 440 -210 461 -204 q 390 -217 418 -217 z "},"ʼ":{"ha":79,"x_min":0,"x_max":58,"o":"m 0 604 q 28 669 18 633 q 38 743 38 704 q 18 749 21 743 q 15 761 15 754 q 16 774 15 768 q 22 784 17 781 q 38 788 26 788 q 55 781 51 788 q 58 764 58 774 q 53 706 58 736 q 39 649 47 675 q 18 604 31 622 l 0 604 z "},"":{"ha":593,"x_min":56,"x_max":538,"o":"m 204 -21 q 206 -18 206 -21 q 205 -15 206 -17 q 204 -12 204 -14 q 207 -8 204 -11 l 207 -1 q 204 4 204 0 q 190 8 204 8 q 181 6 185 7 q 172 6 176 6 l 172 10 l 171 10 l 171 25 q 165 33 169 29 q 157 38 160 36 l 157 42 l 156 42 l 156 44 l 142 57 l 119 57 q 114 65 118 61 q 110 75 110 69 l 110 81 l 94 92 l 94 125 q 98 138 97 132 q 104 153 99 144 l 110 161 l 110 179 q 110 194 110 188 q 108 207 110 201 l 101 231 l 101 244 q 99 251 100 250 q 97 257 97 253 l 97 276 l 99 276 l 99 283 l 97 283 l 97 293 l 93 293 l 86 296 q 87 294 86 296 q 85 293 88 292 l 81 293 l 81 306 l 86 306 q 87 309 86 308 q 88 315 88 310 l 93 315 q 94 313 93 313 l 94 314 q 95 314 94 314 q 97 313 96 314 l 97 308 l 107 308 l 107 315 q 109 316 108 315 q 110 317 110 317 l 110 321 l 111 321 l 111 325 q 118 331 118 325 l 118 344 q 117 346 118 343 q 110 350 115 349 l 110 363 q 111 363 111 364 q 113 365 111 361 l 117 381 q 117 383 117 382 q 118 385 118 383 q 115 389 118 389 q 111 393 111 389 l 97 393 l 97 389 l 85 389 l 85 396 q 86 395 86 396 q 86 394 86 394 q 89 397 88 394 q 90 400 90 400 l 97 400 l 97 401 l 101 401 l 101 408 l 106 408 l 106 431 l 101 431 q 93 438 99 438 l 93 442 l 88 442 l 88 451 l 85 451 q 83 456 85 456 q 79 457 81 456 l 79 461 q 72 463 78 463 l 65 463 l 65 488 q 67 494 65 493 q 68 501 68 494 l 60 529 q 56 557 56 544 l 56 579 q 60 591 56 586 q 65 600 64 596 l 65 626 q 69 631 68 628 q 74 633 71 633 l 74 638 q 76 642 74 640 l 97 664 l 97 665 l 101 665 q 106 664 103 664 l 114 668 l 118 674 l 118 678 l 124 678 l 126 681 q 128 682 128 681 q 129 683 129 683 l 139 693 q 144 699 140 694 q 150 703 149 703 l 151 701 q 153 702 151 701 q 156 703 154 703 l 156 706 q 160 715 156 706 q 168 725 165 725 l 168 729 q 171 733 168 733 l 171 732 q 179 740 174 732 q 194 747 185 747 l 194 751 l 233 751 l 244 757 q 256 767 247 760 q 275 774 265 774 q 281 772 279 774 l 286 769 q 295 764 290 768 q 301 760 300 760 q 310 761 304 760 q 319 764 317 763 q 325 763 324 764 q 335 766 328 763 q 361 769 342 769 q 374 765 369 769 l 389 751 l 414 751 l 436 740 l 436 738 q 455 731 442 735 q 468 726 468 726 l 468 715 q 475 710 469 713 q 483 706 481 708 q 491 697 483 697 q 506 692 499 697 q 513 664 513 688 l 519 653 q 522 647 519 651 q 525 643 525 643 l 528 633 q 525 625 528 625 l 525 610 q 521 606 521 610 l 521 588 l 529 576 q 537 554 536 568 q 538 525 538 540 l 538 508 l 532 508 l 532 494 l 529 494 q 531 494 531 494 q 531 493 531 493 l 526 493 l 526 488 q 524 482 524 485 q 525 473 524 479 q 528 464 526 467 q 526 460 528 463 q 525 458 525 458 l 525 401 l 526 401 l 526 394 l 529 394 q 525 382 525 386 l 521 382 q 515 369 517 376 l 515 357 l 513 357 q 512 352 513 353 q 511 347 511 351 l 511 343 q 508 341 510 342 q 507 339 507 340 l 507 333 q 504 332 507 332 l 500 332 q 497 325 497 326 q 496 327 496 328 q 493 331 496 326 l 494 331 q 493 332 494 332 l 489 332 l 493 338 q 488 339 489 338 q 488 342 488 342 q 493 344 488 343 q 492 347 493 346 q 490 347 490 347 q 492 349 490 349 q 494 354 494 350 l 494 357 l 500 357 q 497 363 500 363 q 501 365 497 365 l 501 471 q 503 483 501 478 q 507 489 506 489 l 507 493 q 509 494 508 493 q 511 494 510 494 l 511 501 l 513 501 l 513 529 q 511 533 511 529 l 511 543 l 507 543 l 507 547 q 504 548 506 546 q 501 550 503 550 l 497 550 l 497 553 l 494 553 l 494 556 l 493 556 l 493 563 l 489 563 l 489 572 l 488 572 l 488 576 q 483 582 483 576 q 479 579 482 579 l 469 579 q 468 585 469 582 l 464 588 q 465 589 465 588 l 464 588 l 464 589 l 461 594 l 446 594 l 436 608 l 435 608 l 435 607 q 431 609 432 607 q 426 611 429 611 q 420 610 424 611 q 418 608 417 610 l 413 608 l 413 606 l 407 606 q 406 603 407 604 q 397 601 404 601 q 385 602 390 601 q 375 603 379 603 l 375 606 q 374 607 374 604 q 371 610 374 610 l 368 610 l 368 614 l 358 614 l 358 615 l 356 615 l 356 621 l 351 621 q 353 626 351 625 q 356 628 356 626 q 350 638 351 632 q 343 642 349 643 l 343 646 q 321 644 335 646 q 307 635 307 642 l 307 633 l 306 633 q 305 631 306 633 q 303 629 304 629 q 300 632 300 629 l 300 626 l 283 626 l 281 631 l 281 633 l 274 633 q 267 630 268 633 q 261 625 265 626 l 261 621 q 256 625 258 621 l 256 618 q 245 615 249 618 q 236 608 242 613 l 232 608 l 232 606 l 204 606 q 199 599 203 604 q 196 590 196 593 q 197 589 196 589 q 197 588 197 589 l 194 585 l 192 581 q 190 581 192 581 q 188 579 189 581 q 187 581 188 581 q 186 583 186 582 q 179 579 179 583 q 175 582 175 579 l 171 579 l 163 579 q 160 581 161 579 q 157 582 160 582 q 151 578 153 582 q 149 574 149 574 l 149 572 l 157 564 q 157 565 157 564 q 158 565 157 565 l 161 565 q 163 562 161 564 q 164 557 164 560 q 161 556 164 556 l 161 538 q 162 535 161 536 q 163 533 163 535 l 163 529 l 171 524 q 181 521 171 521 q 185 524 182 524 q 188 529 188 524 l 188 533 l 192 538 q 196 543 196 542 l 194 544 l 201 544 l 201 540 l 204 540 l 204 525 q 206 522 206 525 q 207 515 207 518 l 211 515 q 214 507 211 514 q 217 497 217 500 q 213 493 213 496 l 214 488 q 213 486 214 486 q 213 483 213 486 l 210 481 q 208 480 208 481 q 207 479 207 479 l 201 479 l 201 476 l 200 476 l 200 450 l 201 451 l 201 447 l 217 447 l 217 446 q 228 451 219 450 q 247 451 238 451 q 284 451 272 451 q 308 450 296 451 l 311 447 l 319 447 q 330 431 322 440 q 339 415 338 422 q 335 410 339 415 q 329 406 332 404 l 326 399 q 311 383 326 383 l 275 383 l 265 376 l 265 375 l 250 375 l 250 376 l 244 376 q 243 378 244 378 l 243 381 q 242 382 242 381 l 238 382 q 236 383 238 383 l 224 383 q 219 387 224 386 q 217 390 214 388 l 217 393 l 213 393 q 211 396 211 393 l 211 400 l 194 400 q 194 403 194 401 q 192 407 193 404 l 188 414 l 175 414 q 171 410 171 410 q 169 410 169 410 q 163 411 169 411 q 155 402 158 404 q 151 393 151 400 q 153 387 151 388 q 156 383 156 386 l 161 383 q 171 379 168 378 q 174 374 174 381 q 165 367 174 364 q 156 358 156 369 q 156 351 156 354 q 157 343 157 347 l 161 332 q 164 323 164 325 q 167 317 164 321 l 171 313 q 176 312 174 313 q 181 311 179 311 q 185 311 182 311 q 188 313 188 311 l 192 313 l 196 308 q 210 307 201 307 q 224 309 217 307 q 235 311 231 311 l 238 311 l 247 313 l 247 315 l 251 315 q 258 322 256 319 q 267 331 260 325 l 267 332 l 268 332 q 269 332 269 333 q 271 331 269 331 q 274 331 272 331 q 275 332 275 332 q 279 321 279 328 l 279 301 q 281 301 281 301 q 283 300 282 300 l 301 300 l 311 301 l 311 300 l 319 300 l 319 299 l 325 299 l 325 293 l 333 293 l 336 289 l 363 289 q 370 291 367 289 q 381 293 374 293 l 381 288 l 383 288 l 383 276 q 381 276 382 276 q 381 275 381 275 l 381 269 q 378 271 379 271 q 366 269 368 269 q 361 261 364 269 l 356 261 l 356 257 q 347 260 350 260 q 342 258 344 260 q 333 256 340 256 l 333 250 q 336 246 333 249 l 343 242 l 343 239 l 336 239 q 333 238 333 239 q 331 238 332 238 l 331 239 q 316 238 324 239 q 301 238 308 238 q 300 240 300 239 q 297 243 300 242 l 294 247 l 288 247 l 288 250 l 274 250 l 274 247 q 270 247 272 246 q 268 244 268 247 l 268 231 l 272 226 q 273 224 272 225 q 274 219 274 222 l 294 219 q 296 219 296 219 q 297 218 296 218 l 297 215 q 292 214 296 214 l 281 214 q 263 219 268 214 q 253 228 258 224 q 236 233 249 233 l 236 231 q 234 229 235 231 q 232 229 233 228 l 232 224 l 229 219 q 226 215 229 218 q 218 218 224 218 l 218 215 l 213 215 q 207 206 213 211 l 211 201 l 211 161 l 207 161 q 210 154 207 156 q 213 153 214 153 l 211 151 q 213 151 211 151 q 217 150 214 150 l 224 150 q 229 153 226 153 l 232 147 q 233 144 233 146 q 233 143 233 143 q 232 133 232 140 l 232 124 q 234 121 233 124 q 236 118 235 118 q 238 117 238 118 l 251 106 q 253 103 251 103 q 256 104 254 103 q 257 106 257 106 l 261 106 l 261 101 l 268 101 q 275 99 269 101 q 281 101 278 99 q 286 103 285 103 q 288 101 288 103 l 288 99 l 297 99 l 300 93 l 333 93 q 334 92 332 93 q 336 89 336 92 l 338 90 q 343 85 339 89 q 349 81 347 82 l 368 81 l 372 83 q 371 84 371 83 q 371 85 371 85 q 375 88 371 88 q 381 75 381 83 l 379 75 q 381 69 381 74 q 370 63 371 69 q 356 56 369 56 q 357 53 357 54 q 357 53 357 53 q 357 52 357 53 q 356 51 357 51 l 351 51 q 349 44 351 50 l 343 44 l 343 38 l 339 38 l 339 31 q 337 31 338 31 q 335 32 336 32 q 331 28 335 33 q 328 18 328 24 l 319 6 l 307 6 l 307 3 q 302 1 306 1 q 296 -3 299 0 q 297 -8 296 -7 l 294 -11 l 288 -11 l 288 -14 l 283 -14 l 283 -15 l 281 -15 l 281 -25 l 204 -25 l 204 -21 m 85 333 q 81 340 81 338 l 81 344 l 76 347 q 76 348 76 347 q 75 350 75 349 l 75 354 l 72 354 l 72 357 q 71 365 71 358 l 72 365 l 72 367 l 76 367 q 79 363 79 364 l 81 361 l 83 361 l 83 357 q 86 351 85 354 q 88 347 88 349 l 88 343 l 86 343 q 87 341 86 342 q 88 339 88 340 l 94 339 q 90 337 92 338 q 85 333 88 336 m 75 393 q 71 399 71 396 q 75 404 75 401 l 74 404 l 74 413 l 71 413 l 71 424 l 72 424 l 74 425 l 74 424 l 75 424 l 75 418 q 76 417 75 417 q 76 415 76 417 q 79 414 76 414 l 79 411 l 81 410 q 82 409 82 410 q 83 408 82 408 l 83 397 l 82 397 q 79 394 82 397 l 79 393 l 75 393 m 307 175 q 300 181 300 179 q 298 180 299 181 q 297 179 297 179 q 296 182 296 179 l 288 182 l 283 185 q 285 189 283 189 l 285 194 l 286 194 q 290 194 289 194 q 299 193 292 193 q 301 197 299 197 l 306 197 q 307 198 307 197 q 310 199 307 199 l 314 199 q 307 201 310 201 q 304 204 304 200 l 300 204 q 297 204 299 203 q 296 207 296 206 l 297 208 l 297 213 l 313 213 q 313 214 314 213 q 314 215 313 215 q 318 213 318 213 l 325 213 q 329 215 325 215 q 335 212 332 215 q 339 206 339 208 l 339 204 l 328 204 q 322 201 328 201 l 322 197 q 325 199 324 197 l 331 199 q 333 200 332 199 q 339 196 333 199 q 344 188 344 193 q 340 184 347 188 q 325 181 332 181 l 321 181 q 313 179 319 179 l 313 176 q 307 175 308 176 m 331 219 q 329 225 329 219 l 332 225 q 333 225 332 225 q 335 224 333 225 l 335 226 l 349 226 q 350 224 350 225 q 350 224 350 224 q 335 219 346 219 l 331 219 m 399 103 q 396 103 399 103 q 393 107 393 104 l 396 113 q 396 115 394 113 q 394 118 397 117 l 400 118 l 400 121 l 401 121 l 401 124 l 404 124 q 409 131 404 124 q 419 139 414 138 l 414 143 q 415 144 414 143 q 417 144 415 144 l 419 144 l 419 154 l 422 158 q 419 161 419 161 l 421 161 q 422 162 421 161 q 424 167 424 163 l 424 169 l 426 169 l 426 176 l 429 176 q 431 178 429 179 q 433 179 433 178 l 433 182 l 439 182 l 439 183 l 446 183 q 451 192 449 185 q 464 200 454 200 q 469 193 469 200 l 469 189 q 469 188 469 188 q 468 186 468 188 l 469 186 q 468 183 469 185 l 465 183 l 465 179 q 461 176 464 176 q 456 174 458 176 l 447 168 q 439 161 443 161 l 436 158 q 433 153 435 156 q 429 147 432 150 l 429 143 l 426 139 q 425 140 425 139 q 424 140 425 140 q 418 133 418 140 q 419 126 419 131 q 419 121 419 121 l 419 111 l 413 111 l 413 107 l 404 107 q 402 105 403 107 q 399 103 401 103 m 413 361 q 406 368 411 361 q 399 375 401 375 l 375 375 q 374 376 375 376 q 375 382 374 381 q 376 386 376 383 q 376 388 376 386 q 375 390 376 389 l 368 396 q 369 399 369 397 q 369 400 369 400 l 368 408 q 371 411 371 408 l 371 413 q 373 414 371 413 q 374 417 375 415 l 374 421 l 375 421 l 381 426 q 385 428 381 426 q 393 431 389 431 l 393 433 q 394 438 393 436 l 404 438 l 404 440 l 414 442 l 419 438 l 432 438 l 436 431 l 443 431 q 449 425 443 425 q 456 428 451 425 q 461 431 460 431 q 464 424 461 426 q 467 422 467 422 l 468 424 l 468 418 l 474 418 l 474 415 q 479 413 479 415 l 479 408 l 476 406 l 478 406 q 475 401 478 404 q 472 396 472 399 q 474 394 472 394 q 475 393 475 394 q 462 384 475 383 q 443 379 449 385 l 443 376 q 440 376 442 376 q 436 375 439 375 l 436 371 q 432 367 435 369 q 429 363 429 365 l 413 363 l 413 361 z "},"≈":{"ha":589,"x_min":81,"x_max":508,"o":"m 81 460 q 111 530 81 508 q 188 551 142 551 q 263 535 232 551 q 322 503 293 519 q 385 486 350 486 q 452 508 433 486 q 471 550 471 531 l 494 550 q 479 499 494 518 q 440 472 464 479 q 388 464 415 464 q 331 474 356 464 q 283 497 306 483 q 239 519 261 510 q 190 529 217 529 q 128 510 150 529 q 107 460 107 492 l 81 460 m 94 200 q 125 270 94 249 q 201 292 156 292 q 276 276 246 292 q 335 243 307 260 q 399 226 364 226 q 466 249 447 226 q 485 290 485 271 l 508 290 q 493 239 508 258 q 453 212 478 219 q 401 204 429 204 q 344 214 369 204 q 297 237 319 224 q 253 260 275 250 q 204 269 231 269 q 142 251 164 269 q 121 200 121 232 l 94 200 z "},"å":{"ha":550,"x_min":89,"x_max":453,"o":"m 185 0 q 117 13 138 0 q 93 63 97 25 q 89 174 89 100 l 89 538 q 99 616 89 592 q 139 647 108 640 q 232 653 169 653 l 453 653 l 453 0 l 425 0 l 425 629 l 204 629 q 139 617 157 629 q 119 578 121 606 q 117 503 117 551 l 117 143 q 121 69 117 94 q 141 33 125 43 q 192 24 157 24 l 372 24 l 367 0 l 185 0 m 274 740 q 207 766 233 740 q 181 826 181 792 q 207 888 181 863 q 274 914 233 914 q 338 888 311 914 q 364 826 364 863 q 338 766 364 792 q 274 740 311 740 m 274 756 q 325 776 303 756 q 347 825 347 797 q 325 878 347 856 q 274 900 303 900 q 220 878 242 900 q 199 825 199 856 q 220 776 199 797 q 274 756 242 756 z "},"ǻ":{"ha":550,"x_min":89,"x_max":453,"o":"m 185 0 q 117 13 138 0 q 93 63 97 25 q 89 174 89 100 l 89 538 q 99 616 89 592 q 139 647 108 640 q 232 653 169 653 l 453 653 l 453 0 l 425 0 l 425 629 l 204 629 q 139 617 157 629 q 119 578 121 606 q 117 503 117 551 l 117 143 q 121 69 117 94 q 141 33 125 43 q 192 24 157 24 l 372 24 l 367 0 l 185 0 m 274 740 q 207 766 233 740 q 181 826 181 792 q 207 888 181 863 q 274 914 233 914 q 338 888 311 914 q 364 826 364 863 q 338 766 364 792 q 274 740 311 740 m 274 756 q 325 776 303 756 q 347 825 347 797 q 325 878 347 856 q 274 900 303 900 q 220 878 242 900 q 199 825 199 856 q 220 776 199 797 q 274 756 242 756 m 224 936 l 340 1064 l 378 1064 l 244 936 l 224 936 z "},"^":{"ha":363,"x_min":44,"x_max":319,"o":"m 44 901 l 163 1026 l 200 1026 l 319 901 l 297 901 l 182 1011 l 65 901 l 44 901 z "},"~":{"ha":564,"x_min":81,"x_max":483,"o":"m 81 874 q 110 944 81 922 q 185 967 140 967 q 258 951 228 967 q 315 918 288 935 q 378 901 343 901 q 444 924 426 901 q 461 964 461 946 l 483 964 q 451 898 483 917 q 379 879 419 879 q 307 896 338 879 q 249 929 276 913 q 188 946 221 946 q 126 926 147 946 q 104 874 104 906 l 81 874 z "},"*":{"ha":576,"x_min":83,"x_max":493,"o":"m 174 461 l 149 479 l 281 638 l 83 688 l 90 713 l 286 649 l 274 849 l 304 849 l 296 649 l 486 719 l 493 697 l 300 638 l 429 479 l 404 461 l 290 632 l 174 461 z "},"@":{"ha":743,"x_min":50,"x_max":693,"o":"m 374 -97 q 190 -58 261 -96 q 84 72 118 -19 q 50 318 50 163 q 69 519 50 439 q 126 644 88 599 q 226 710 165 690 q 372 729 288 729 q 545 696 474 729 q 655 583 617 663 q 693 365 693 504 q 690 285 693 329 q 676 199 686 242 q 649 122 667 157 q 604 66 632 88 q 536 44 576 44 q 476 68 493 44 q 460 163 460 92 q 436 124 453 138 q 385 110 419 110 l 342 110 q 288 125 306 110 q 265 167 271 140 q 260 228 260 194 l 260 256 q 273 345 260 314 q 326 376 286 376 l 454 376 l 454 449 q 441 512 453 489 q 390 535 429 535 l 354 535 q 294 450 294 535 l 294 415 l 271 415 l 271 451 q 289 526 271 500 q 344 551 307 551 l 382 551 q 442 539 421 551 q 471 503 463 526 q 479 443 479 479 l 479 214 q 483 117 479 149 q 499 74 488 85 q 536 64 511 64 q 597 92 572 64 q 638 165 622 119 q 659 262 653 210 q 665 363 665 314 q 654 492 665 429 q 613 603 643 554 q 524 681 582 653 q 372 710 467 710 q 201 674 267 710 q 107 552 136 638 q 78 318 78 467 q 101 107 78 196 q 188 -29 124 18 q 375 -76 253 -76 q 437 -71 404 -76 q 497 -56 469 -65 q 536 -39 525 -47 l 544 -53 q 473 -84 522 -71 q 374 -97 424 -97 m 383 128 q 436 149 418 128 q 454 208 454 169 l 454 360 l 342 360 q 297 342 311 360 q 283 272 283 325 l 283 219 q 301 145 283 163 q 351 128 319 128 l 383 128 z "},"ã":{"ha":550,"x_min":89,"x_max":453,"o":"m 185 0 q 117 13 138 0 q 93 63 97 25 q 89 174 89 100 l 89 538 q 99 616 89 592 q 139 647 108 640 q 232 653 169 653 l 453 653 l 453 0 l 425 0 l 425 629 l 204 629 q 139 617 157 629 q 119 578 121 606 q 117 503 117 551 l 117 143 q 121 69 117 94 q 141 33 125 43 q 192 24 157 24 l 372 24 l 367 0 l 185 0 m 149 739 q 167 809 149 788 q 213 831 186 831 q 258 815 240 831 q 294 783 276 799 q 332 767 311 767 q 372 788 364 767 q 379 828 379 810 l 399 828 q 378 763 399 781 q 335 744 358 744 q 289 761 308 744 q 253 794 269 778 q 215 810 236 810 q 179 790 190 810 q 168 739 168 771 l 149 739 z "},"b":{"ha":549,"x_min":97,"x_max":460,"o":"m 97 0 l 97 875 l 125 875 l 125 653 l 318 653 q 410 647 381 653 q 450 616 440 640 q 460 538 460 592 l 460 176 q 456 63 460 101 q 431 13 451 25 q 363 0 411 0 l 97 0 m 125 24 l 357 24 q 407 33 392 24 q 427 69 422 43 q 432 143 432 94 l 432 503 q 430 578 432 551 q 410 617 428 606 q 344 629 392 629 l 125 629 l 125 24 z "},"\\":{"ha":606,"x_min":56,"x_max":550,"o":"m 531 -61 l 56 875 l 78 875 l 550 -61 l 531 -61 z "},"|":{"ha":294,"x_min":135,"x_max":160,"o":"m 135 901 l 160 901 l 160 -101 l 135 -101 l 135 901 z "},"{":{"ha":417,"x_min":49,"x_max":336,"o":"m 336 -187 q 207 -168 256 -187 q 133 -119 158 -149 q 98 -60 107 -90 q 89 -10 89 -31 q 100 86 89 42 q 122 172 111 131 q 132 253 132 213 q 110 334 132 306 q 49 363 89 363 l 49 374 q 110 403 89 374 q 132 483 132 432 q 122 567 132 528 q 100 649 111 607 q 89 746 89 692 q 98 797 89 767 q 133 856 107 826 q 207 904 158 885 q 336 924 256 924 l 336 904 q 222 887 265 904 q 157 844 179 869 q 126 791 135 818 q 118 743 118 764 q 128 655 118 696 q 149 574 139 614 q 160 488 160 533 q 142 410 160 440 q 89 368 125 379 q 142 328 125 358 q 160 249 160 297 q 149 164 160 203 q 128 85 139 125 q 118 -7 118 44 q 126 -55 118 -28 q 157 -108 135 -82 q 222 -151 179 -133 q 336 -168 265 -168 l 336 -187 z "},"}":{"ha":417,"x_min":81,"x_max":368,"o":"m 81 -187 l 81 -168 q 194 -151 151 -168 q 260 -108 238 -133 q 290 -55 282 -82 q 299 -7 299 -28 q 288 85 299 44 q 267 164 278 125 q 257 249 257 203 q 275 328 257 297 q 328 368 293 358 q 275 410 293 379 q 257 488 257 440 q 267 574 257 533 q 288 655 278 614 q 299 743 299 696 q 290 791 299 764 q 260 844 282 818 q 194 887 238 869 q 81 904 151 904 l 81 924 q 210 904 161 924 q 284 856 258 885 q 319 797 310 826 q 328 746 328 767 q 317 649 328 692 q 296 567 307 607 q 285 483 285 528 q 306 403 285 432 q 368 374 328 374 l 368 363 q 306 334 328 363 q 285 253 285 306 q 296 172 285 213 q 317 86 307 131 q 328 -10 328 42 q 319 -60 328 -31 q 284 -119 310 -90 q 210 -168 258 -149 q 81 -187 161 -187 z "},"[":{"ha":263,"x_min":49,"x_max":207,"o":"m 49 875 l 207 875 l 207 858 l 76 858 l 76 -62 l 207 -62 l 207 -79 l 49 -79 l 49 875 z "},"]":{"ha":263,"x_min":56,"x_max":213,"o":"m 56 -62 l 185 -62 l 185 858 l 56 858 l 56 875 l 213 875 l 213 -79 l 56 -79 l 56 -62 z "},"˘":{"ha":247,"x_min":3,"x_max":244,"o":"m 121 742 q 45 761 71 742 q 11 808 19 781 q 3 860 3 836 l 22 860 q 44 792 22 822 q 121 763 65 763 q 202 792 179 763 q 225 860 225 821 l 244 860 q 217 777 244 813 q 121 742 189 742 z "},"̮":{"ha":0,"x_min":3,"x_max":244,"o":"m 121 -182 q 45 -162 71 -182 q 11 -115 19 -143 q 3 -64 3 -87 l 22 -64 q 44 -131 22 -101 q 121 -161 65 -161 q 202 -132 179 -161 q 225 -64 225 -103 l 244 -64 q 217 -147 244 -111 q 121 -182 189 -182 z "},"̆":{"ha":0,"x_min":3,"x_max":244,"o":"m 121 742 q 45 761 71 742 q 11 808 19 781 q 3 860 3 836 l 22 860 q 44 792 22 822 q 121 763 65 763 q 202 792 179 763 q 225 860 225 821 l 244 860 q 217 777 244 813 q 121 742 189 742 z "},"̑":{"ha":0,"x_min":3,"x_max":244,"o":"m 121 857 q 217 822 189 857 q 244 739 244 786 l 225 739 q 202 808 225 779 q 121 836 179 836 q 44 806 65 836 q 22 739 22 776 l 3 739 q 11 790 3 763 q 45 838 19 818 q 121 857 71 857 z "},"¦":{"ha":294,"x_min":135,"x_max":160,"o":"m 135 -101 l 135 331 l 160 331 l 160 -101 l 135 -101 m 135 485 l 135 901 l 160 901 l 160 485 l 135 485 z "},"•":{"ha":438,"x_min":93,"x_max":344,"o":"m 217 264 q 129 301 165 264 q 93 394 93 339 q 130 483 93 447 q 218 518 167 518 q 308 481 271 518 q 344 392 344 444 q 308 301 344 338 q 217 264 271 264 z "},"∙":{"ha":483,"x_min":164,"x_max":313,"o":"m 238 318 q 185 340 206 318 q 164 396 164 363 q 185 448 164 426 q 238 469 207 469 q 291 447 269 469 q 313 394 313 425 q 291 340 313 361 q 238 318 269 318 z "},"c":{"ha":525,"x_min":83,"x_max":447,"o":"m 253 -6 q 145 17 182 -6 q 96 72 108 39 q 83 136 83 106 l 83 518 q 97 583 83 550 q 149 638 110 615 q 265 660 188 660 q 381 638 342 660 q 433 583 419 615 q 447 518 447 550 l 447 426 l 419 418 l 419 514 q 376 608 419 579 q 265 638 333 638 q 155 609 199 638 q 111 514 111 581 l 111 140 q 153 47 111 75 q 253 18 196 18 q 375 49 331 18 q 419 153 419 79 l 419 238 l 447 244 l 447 158 q 433 79 447 117 q 376 18 418 42 q 253 -6 335 -6 z "},"ć":{"ha":525,"x_min":83,"x_max":447,"o":"m 253 -6 q 145 17 182 -6 q 96 72 108 39 q 83 136 83 106 l 83 518 q 97 583 83 550 q 149 638 110 615 q 265 660 188 660 q 381 638 342 660 q 433 583 419 615 q 447 518 447 550 l 447 426 l 419 418 l 419 514 q 376 608 419 579 q 265 638 333 638 q 155 609 199 638 q 111 514 111 581 l 111 140 q 153 47 111 75 q 253 18 196 18 q 375 49 331 18 q 419 153 419 79 l 419 238 l 447 244 l 447 158 q 433 79 447 117 q 376 18 418 42 q 253 -6 335 -6 m 213 747 l 329 875 l 367 875 l 233 747 l 213 747 z "},"ˇ":{"ha":274,"x_min":0,"x_max":272,"o":"m 0 865 l 24 865 l 138 765 l 251 865 l 272 865 l 156 747 l 117 747 l 0 865 z "},"̌":{"ha":0,"x_min":0,"x_max":272,"o":"m 0 865 l 24 865 l 138 765 l 251 865 l 272 865 l 156 747 l 117 747 l 0 865 z "},"č":{"ha":525,"x_min":83,"x_max":447,"o":"m 125 865 l 149 865 l 263 765 l 376 865 l 397 865 l 281 747 l 242 747 l 125 865 m 253 -6 q 145 17 182 -6 q 96 72 108 39 q 83 136 83 106 l 83 518 q 97 583 83 550 q 149 638 110 615 q 265 660 188 660 q 381 638 342 660 q 433 583 419 615 q 447 518 447 550 l 447 426 l 419 418 l 419 514 q 376 608 419 579 q 265 638 333 638 q 155 609 199 638 q 111 514 111 581 l 111 140 q 153 47 111 75 q 253 18 196 18 q 375 49 331 18 q 419 153 419 79 l 419 238 l 447 244 l 447 158 q 433 79 447 117 q 376 18 418 42 q 253 -6 335 -6 z "},"ç":{"ha":525,"x_min":83,"x_max":447,"o":"m 253 -6 q 145 17 182 -6 q 96 72 108 39 q 83 136 83 106 l 83 518 q 97 583 83 550 q 149 638 110 615 q 265 660 188 660 q 381 638 342 660 q 433 583 419 615 q 447 518 447 550 l 447 426 l 419 418 l 419 514 q 376 608 419 579 q 265 638 333 638 q 155 609 199 638 q 111 514 111 581 l 111 140 q 153 47 111 75 q 253 18 196 18 q 375 49 331 18 q 419 153 419 79 l 419 238 l 447 244 l 447 158 q 433 79 447 117 q 376 18 418 42 q 253 -6 335 -6 m 279 -232 q 231 -221 253 -232 q 199 -199 210 -210 l 213 -183 q 238 -204 219 -193 q 278 -215 257 -215 q 334 -190 314 -215 q 354 -137 354 -164 q 338 -91 354 -112 q 285 -69 322 -69 q 242 -80 261 -69 q 208 -106 222 -90 l 190 -89 l 263 0 l 282 0 l 222 -76 q 288 -53 254 -53 q 356 -79 336 -53 q 376 -135 376 -106 q 351 -200 376 -168 q 279 -232 326 -232 z "},"ĉ":{"ha":525,"x_min":83,"x_max":447,"o":"m 253 -6 q 145 17 182 -6 q 96 72 108 39 q 83 136 83 106 l 83 518 q 97 583 83 550 q 149 638 110 615 q 265 660 188 660 q 381 638 342 660 q 433 583 419 615 q 447 518 447 550 l 447 426 l 419 418 l 419 514 q 376 608 419 579 q 265 638 333 638 q 155 609 199 638 q 111 514 111 581 l 111 140 q 153 47 111 75 q 253 18 196 18 q 375 49 331 18 q 419 153 419 79 l 419 238 l 447 244 l 447 158 q 433 79 447 117 q 376 18 418 42 q 253 -6 335 -6 m 125 747 l 242 865 l 281 865 l 397 747 l 376 747 l 263 847 l 149 747 l 125 747 z "},"ċ":{"ha":525,"x_min":83,"x_max":447,"o":"m 253 -6 q 145 17 182 -6 q 96 72 108 39 q 83 136 83 106 l 83 518 q 97 583 83 550 q 149 638 110 615 q 265 660 188 660 q 381 638 342 660 q 433 583 419 615 q 447 518 447 550 l 447 426 l 419 418 l 419 514 q 376 608 419 579 q 265 638 333 638 q 155 609 199 638 q 111 514 111 581 l 111 140 q 153 47 111 75 q 253 18 196 18 q 375 49 331 18 q 419 153 419 79 l 419 238 l 447 244 l 447 158 q 433 79 447 117 q 376 18 418 42 q 253 -6 335 -6 m 261 744 q 242 751 244 744 q 239 767 239 757 q 242 785 239 778 q 261 792 244 792 q 281 785 278 792 q 283 767 283 778 q 281 751 283 757 q 261 744 278 744 z "},"₵":{"ha":464,"x_min":53,"x_max":411,"o":"m 231 -8 q 99 25 146 -8 q 53 128 53 58 l 53 728 q 94 835 53 797 q 226 872 135 872 q 367 836 324 872 q 411 726 411 800 l 411 542 l 386 536 l 386 721 q 353 813 386 778 q 231 847 321 847 q 112 813 143 847 q 81 722 81 778 l 81 132 q 117 48 81 81 q 231 15 153 15 q 349 48 311 15 q 386 133 386 81 l 386 311 l 411 318 l 411 129 q 364 25 411 58 q 231 -8 317 -8 m 193 -118 l 263 942 l 278 942 l 210 -118 l 193 -118 z "},"¸":{"ha":219,"x_min":0,"x_max":186,"o":"m 89 -232 q 41 -221 63 -232 q 8 -199 19 -210 l 22 -183 q 48 -204 29 -193 q 88 -215 67 -215 q 144 -190 124 -215 q 164 -137 164 -164 q 148 -91 164 -112 q 94 -69 132 -69 q 51 -80 71 -69 q 18 -106 32 -90 l 0 -89 l 72 0 l 92 0 l 32 -76 q 97 -53 64 -53 q 166 -79 146 -53 q 186 -135 186 -106 q 161 -200 186 -168 q 89 -232 136 -232 z "},"̧":{"ha":0,"x_min":0,"x_max":186,"o":"m 89 -232 q 41 -221 63 -232 q 8 -199 19 -210 l 22 -183 q 48 -204 29 -193 q 88 -215 67 -215 q 144 -190 124 -215 q 164 -137 164 -164 q 148 -91 164 -112 q 94 -69 132 -69 q 51 -80 71 -69 q 18 -106 32 -90 l 0 -89 l 72 0 l 92 0 l 32 -76 q 97 -53 64 -53 q 166 -79 146 -53 q 186 -135 186 -106 q 161 -200 186 -168 q 89 -232 136 -232 z "},"¢":{"ha":469,"x_min":53,"x_max":417,"o":"m 222 129 q 115 151 151 129 q 66 207 79 174 q 53 271 53 240 l 53 650 q 66 715 53 682 q 119 769 79 747 q 236 792 158 792 q 351 769 313 792 q 403 715 389 747 q 417 650 417 682 l 417 557 l 389 550 l 389 646 q 346 740 389 711 q 236 768 303 768 q 125 740 169 768 q 81 646 81 711 l 81 275 q 124 181 81 208 q 222 153 167 153 q 344 183 300 153 q 389 288 389 213 l 389 372 l 417 378 l 417 293 q 403 213 417 250 q 347 152 389 175 q 222 129 306 129 m 186 -118 l 254 942 l 271 942 l 201 -118 l 186 -118 z "},"ˆ":{"ha":274,"x_min":0,"x_max":272,"o":"m 0 747 l 117 865 l 156 865 l 272 747 l 251 747 l 138 847 l 24 747 l 0 747 z "},"̂":{"ha":0,"x_min":0,"x_max":272,"o":"m 0 747 l 117 865 l 156 865 l 272 747 l 251 747 l 138 847 l 24 747 l 0 747 z "},":":{"ha":214,"x_min":69,"x_max":115,"o":"m 92 496 q 72 502 75 496 q 69 518 69 508 q 72 536 69 529 q 92 543 75 543 q 112 536 108 543 q 115 518 115 529 q 112 502 115 508 q 92 496 108 496 m 92 10 q 72 16 75 10 q 69 32 69 22 q 72 50 69 43 q 92 57 75 57 q 112 50 108 57 q 115 32 115 43 q 112 16 115 22 q 92 10 108 10 z "},"₡":{"ha":464,"x_min":53,"x_max":411,"o":"m 231 -8 q 99 25 146 -8 q 53 128 53 58 l 53 728 q 94 835 53 797 q 226 872 135 872 q 367 836 324 872 q 411 726 411 800 l 411 542 l 386 536 l 386 721 q 353 813 386 778 q 231 847 321 847 q 110 813 142 847 q 79 722 79 778 l 79 132 q 116 48 79 81 q 231 15 153 15 q 349 48 313 15 q 386 133 386 81 l 386 311 l 411 318 l 411 129 q 364 25 411 58 q 231 -8 317 -8 m 136 -118 l 207 942 l 222 942 l 151 -118 l 136 -118 m 232 -118 l 301 942 l 318 942 l 247 -118 l 232 -118 z "},",":{"ha":250,"x_min":56,"x_max":117,"o":"m 56 -136 q 85 -67 75 -104 q 94 11 94 -31 q 74 17 78 11 q 71 29 71 22 q 72 44 71 38 q 78 53 72 50 q 94 57 83 57 q 113 50 110 57 q 117 32 117 43 q 111 -29 117 3 q 97 -89 106 -61 q 75 -136 88 -117 l 56 -136 z "},"̦":{"ha":0,"x_min":0,"x_max":58,"o":"m 0 -207 q 28 -157 17 -183 q 39 -100 39 -131 q 17 -96 21 -100 q 14 -86 14 -92 q 17 -72 14 -78 q 38 -67 19 -67 q 56 -72 53 -67 q 58 -85 58 -76 q 53 -128 58 -106 q 40 -172 49 -151 q 18 -207 31 -192 l 0 -207 z "},"̒":{"ha":0,"x_min":0,"x_max":60,"o":"m 21 747 q 3 752 7 747 q 0 765 0 757 q 5 808 0 785 q 19 851 10 831 q 40 886 29 872 l 60 886 q 32 838 42 864 q 22 781 22 811 q 41 777 38 781 q 44 768 44 774 q 42 753 44 760 q 21 747 39 747 z "},"⁒":{"ha":818,"x_min":67,"x_max":746,"o":"m 140 522 q 88 544 108 522 q 67 600 67 567 q 88 652 67 631 q 140 674 110 674 q 194 651 172 674 q 215 599 215 629 q 194 544 215 565 q 140 522 172 522 m 671 239 q 618 261 639 239 q 597 317 597 283 q 619 369 597 347 q 671 390 640 390 q 724 368 703 390 q 746 315 746 346 q 724 260 746 282 q 671 239 703 239 m 154 18 l 617 893 l 632 890 l 167 17 l 154 18 z "},"©":{"ha":1065,"x_min":69,"x_max":996,"o":"m 536 -4 q 350 30 435 -4 q 202 124 265 64 q 104 261 139 183 q 69 426 69 339 q 104 600 69 519 q 202 742 139 681 q 350 837 265 803 q 536 871 435 871 q 713 837 629 871 q 860 742 796 803 q 960 600 924 681 q 996 426 996 519 q 960 261 996 339 q 860 124 924 183 q 713 30 796 64 q 536 -4 629 -4 m 536 15 q 701 48 622 15 q 842 138 781 81 q 940 269 904 194 q 976 426 976 343 q 940 592 976 515 q 842 726 904 668 q 701 817 781 785 q 536 850 622 850 q 364 817 444 850 q 222 726 283 785 q 125 592 160 668 q 90 426 90 515 q 125 269 90 343 q 222 138 160 194 q 364 48 283 81 q 536 15 444 15 m 524 168 q 438 185 467 168 q 398 229 408 203 q 388 279 388 256 l 388 576 q 399 627 388 601 q 441 670 410 653 q 535 688 472 688 q 625 670 594 688 q 667 627 656 653 q 678 576 678 601 l 678 504 l 654 499 l 654 572 q 621 647 654 624 q 535 669 588 669 q 447 647 482 669 q 413 572 413 625 l 413 283 q 446 210 413 232 q 524 188 479 188 q 619 211 585 188 q 654 292 654 235 l 654 358 l 678 364 l 678 296 q 667 234 678 264 q 622 186 656 204 q 524 168 589 168 z "},"¤":{"ha":421,"x_min":33,"x_max":390,"o":"m 215 346 q 138 367 172 346 q 82 423 103 388 q 61 500 61 458 q 82 578 61 543 q 138 633 103 613 q 215 654 172 654 q 292 633 257 654 q 347 578 326 613 q 368 500 368 543 q 347 423 368 458 q 292 367 326 388 q 215 346 257 346 m 213 369 q 303 409 265 371 q 342 500 342 447 q 304 592 342 554 q 213 631 267 631 q 120 592 158 631 q 82 500 82 554 q 120 408 82 446 q 213 369 158 369 m 53 324 l 39 338 l 106 406 l 121 393 l 53 324 m 368 329 l 307 392 l 321 406 l 383 344 l 368 329 m 321 594 l 307 608 l 374 675 l 390 661 l 321 594 m 107 592 l 33 664 l 47 679 l 119 607 l 107 592 z "},"d":{"ha":550,"x_min":89,"x_max":453,"o":"m 185 0 q 124 8 144 0 q 96 47 103 17 q 89 140 89 76 l 89 538 q 98 613 89 588 q 135 645 107 638 q 221 653 163 653 l 425 653 l 425 875 l 453 875 l 453 0 l 185 0 m 425 24 l 425 629 l 208 629 q 133 614 150 629 q 117 542 117 599 l 117 114 q 133 40 117 56 q 192 24 149 24 l 425 24 z "},"†":{"ha":426,"x_min":54,"x_max":374,"o":"m 200 901 l 225 901 l 225 -101 l 200 -101 l 200 901 m 54 546 l 54 571 l 374 571 l 374 546 l 54 546 z "},"‡":{"ha":426,"x_min":56,"x_max":371,"o":"m 200 901 l 225 901 l 225 -101 l 200 -101 l 200 901 m 56 440 l 56 463 l 371 463 l 371 440 l 56 440 m 56 631 l 56 654 l 371 654 l 371 631 l 56 631 z "},"̏":{"ha":0,"x_min":-7,"x_max":232,"o":"m 126 747 l -7 875 l 31 875 l 147 747 l 126 747 m 211 747 l 78 875 l 115 875 l 232 747 l 211 747 z "},"ď":{"ha":522,"x_min":89,"x_max":568,"o":"m 185 0 q 124 8 144 0 q 96 47 103 17 q 89 140 89 76 l 89 538 q 98 613 89 588 q 135 645 107 638 q 221 653 163 653 l 425 653 l 425 875 l 453 875 l 453 0 l 185 0 m 425 24 l 425 629 l 208 629 q 133 614 150 629 q 117 542 117 599 l 117 114 q 133 40 117 56 q 192 24 149 24 l 425 24 m 506 707 l 543 901 l 568 901 l 521 707 l 506 707 z "},"đ":{"ha":550,"x_min":89,"x_max":508,"o":"m 185 0 q 124 8 144 0 q 96 47 103 17 q 89 140 89 76 l 89 538 q 98 613 89 588 q 135 645 107 638 q 221 653 163 653 l 425 653 l 425 875 l 453 875 l 453 0 l 185 0 m 425 24 l 425 629 l 208 629 q 133 614 150 629 q 117 542 117 599 l 117 114 q 133 40 117 56 q 192 24 149 24 l 425 24 m 213 740 l 213 758 l 508 758 l 508 740 l 213 740 z "},"°":{"ha":344,"x_min":51,"x_max":293,"o":"m 172 790 q 110 806 138 790 q 67 846 83 821 q 51 901 51 871 q 67 961 51 935 q 110 1003 83 988 q 172 1018 138 1018 q 233 1003 206 1018 q 276 961 260 988 q 293 901 293 935 q 276 846 293 871 q 233 806 260 821 q 172 790 206 790 m 172 808 q 242 835 213 808 q 271 900 271 861 q 242 969 271 940 q 172 999 213 999 q 103 969 131 999 q 75 900 75 940 q 103 835 75 861 q 172 808 131 808 z "},"¨":{"ha":218,"x_min":28,"x_max":190,"o":"m 167 743 q 149 749 151 743 q 146 765 146 756 q 149 783 146 776 q 167 789 151 789 q 188 783 185 789 q 190 765 190 776 q 188 749 190 756 q 167 743 185 743 m 50 743 q 31 749 33 743 q 28 765 28 756 q 31 783 28 776 q 50 789 33 789 q 69 783 67 789 q 72 765 72 776 q 69 749 72 756 q 50 743 67 743 z "},"̤":{"ha":0,"x_min":28,"x_max":190,"o":"m 167 -114 q 149 -108 151 -114 q 146 -92 146 -101 q 149 -74 146 -81 q 167 -68 151 -68 q 188 -74 185 -68 q 190 -92 190 -81 q 188 -108 190 -101 q 167 -114 185 -114 m 50 -114 q 31 -108 33 -114 q 28 -92 28 -101 q 31 -74 28 -81 q 50 -68 33 -68 q 69 -74 67 -68 q 72 -92 72 -81 q 69 -108 72 -101 q 50 -114 67 -114 z "},"̈":{"ha":0,"x_min":28,"x_max":190,"o":"m 167 743 q 149 749 151 743 q 146 765 146 756 q 149 783 146 776 q 167 789 151 789 q 188 783 185 789 q 190 765 190 776 q 188 749 190 756 q 167 743 185 743 m 50 743 q 31 749 33 743 q 28 765 28 756 q 31 783 28 776 q 50 789 33 789 q 69 783 67 789 q 72 765 72 776 q 69 749 72 756 q 50 743 67 743 z "},"÷":{"ha":515,"x_min":81,"x_max":435,"o":"m 81 271 l 81 292 l 435 292 l 435 271 l 81 271 m 254 493 q 235 499 238 493 q 232 515 232 506 q 235 533 232 526 q 254 540 238 540 q 274 533 271 540 q 278 515 278 526 q 274 499 278 506 q 254 493 271 493 m 254 7 q 235 13 238 7 q 232 29 232 19 q 235 47 232 40 q 254 54 238 54 q 274 47 271 54 q 278 29 278 40 q 274 13 278 19 q 254 7 271 7 z "},"∕":{"ha":615,"x_min":56,"x_max":550,"o":"m 56 -61 l 528 875 l 550 875 l 75 -61 l 56 -61 z "},"$":{"ha":469,"x_min":53,"x_max":417,"o":"m 243 -3 q 142 8 185 -1 q 76 40 100 17 q 53 108 53 64 l 53 279 l 81 286 l 81 114 q 117 44 81 68 q 242 21 153 21 q 335 33 303 21 q 378 72 367 44 q 389 143 389 99 l 389 288 q 360 376 389 346 q 283 421 332 407 l 169 451 q 80 499 107 469 q 53 588 53 528 l 53 726 q 76 815 53 786 q 141 854 99 844 q 243 864 183 864 q 340 854 301 864 q 397 821 378 844 q 417 753 417 797 l 417 582 l 389 574 l 389 746 q 360 818 389 794 q 242 842 332 842 q 115 814 150 842 q 81 721 81 786 l 81 585 q 113 508 81 533 q 185 472 144 483 l 300 442 q 390 390 364 425 q 417 293 417 356 l 417 139 q 398 48 417 78 q 341 8 379 18 q 243 -3 303 -1 m 143 -129 l 160 15 l 183 11 l 167 -129 l 143 -129 m 286 849 l 264 853 l 282 992 l 306 992 l 286 849 z "},"₫":{"ha":493,"x_min":89,"x_max":507,"o":"m 136 -94 l 136 -75 l 432 -75 l 432 -94 l 136 -94 m 185 0 q 124 8 144 0 q 96 47 103 17 q 89 140 89 76 l 89 538 q 98 613 89 588 q 135 645 107 638 q 221 653 163 653 l 425 653 l 425 875 l 453 875 l 453 0 l 185 0 m 425 24 l 425 629 l 208 629 q 133 614 150 629 q 117 542 117 599 l 117 114 q 133 40 117 56 q 192 24 149 24 l 425 24 m 213 740 l 213 758 l 507 758 l 507 740 l 213 740 z "},"˙":{"ha":44,"x_min":0,"x_max":44,"o":"m 22 744 q 3 751 6 744 q 0 767 0 757 q 3 785 0 778 q 22 792 6 792 q 42 785 39 792 q 44 767 44 778 q 42 751 44 757 q 22 744 39 744 z "},"̇":{"ha":0,"x_min":0,"x_max":44,"o":"m 22 744 q 3 751 6 744 q 0 767 0 757 q 3 785 0 778 q 22 792 6 792 q 42 785 39 792 q 44 767 44 778 q 42 751 44 757 q 22 744 39 744 z "},"̣":{"ha":0,"x_min":0,"x_max":44,"o":"m 22 -114 q 3 -108 6 -114 q 0 -92 0 -101 q 3 -74 0 -81 q 22 -67 6 -67 q 42 -74 39 -67 q 44 -92 44 -81 q 42 -108 44 -101 q 22 -114 39 -114 z "},"ʺ":{"ha":179,"x_min":0,"x_max":179,"o":"m 131 635 q 153 690 144 660 q 161 753 161 719 q 144 757 147 753 q 142 767 142 761 q 144 783 142 776 q 161 789 147 789 q 176 783 174 789 q 179 769 179 778 q 174 720 179 746 q 163 672 169 694 q 146 635 156 650 l 131 635 m 0 635 q 22 690 14 660 q 31 753 31 719 q 14 757 17 753 q 11 767 11 761 q 14 783 11 776 q 31 789 17 789 q 46 783 43 789 q 49 769 49 778 q 44 720 49 746 q 32 672 39 694 q 15 635 25 650 l 0 635 z "},"ǆ":{"ha":936,"x_min":89,"x_max":906,"o":"m 607 865 l 631 865 l 744 765 l 858 865 l 879 865 l 763 747 l 724 747 l 607 865 m 185 0 q 124 8 144 0 q 96 47 103 17 q 89 140 89 76 l 89 538 q 98 613 89 588 q 135 645 107 638 q 221 653 163 653 l 425 653 l 425 875 l 453 875 l 453 0 l 185 0 m 425 24 l 425 629 l 208 629 q 133 614 150 629 q 117 542 117 599 l 117 114 q 133 40 117 56 q 192 24 149 24 l 425 24 m 585 13 l 863 629 l 586 629 l 594 653 l 894 653 l 894 633 l 619 24 l 906 24 l 892 0 l 585 0 l 585 13 z "},"e":{"ha":531,"x_min":83,"x_max":447,"o":"m 253 -6 q 145 17 182 -6 q 96 72 108 39 q 83 136 83 106 l 83 518 q 97 583 83 550 q 149 638 110 615 q 265 660 188 660 q 381 638 342 660 q 433 583 419 615 q 447 518 447 550 l 447 344 l 419 344 l 419 514 q 376 608 419 579 q 265 638 333 638 q 155 609 199 638 q 111 514 111 581 l 111 140 q 153 47 111 75 q 253 18 196 18 q 375 49 331 18 q 419 153 419 79 l 419 235 l 447 240 l 447 158 q 433 79 447 117 q 376 18 418 42 q 253 -6 335 -6 m 92 331 l 92 350 l 447 350 l 447 331 l 92 331 z "},"é":{"ha":531,"x_min":83,"x_max":447,"o":"m 253 -6 q 145 17 182 -6 q 96 72 108 39 q 83 136 83 106 l 83 518 q 97 583 83 550 q 149 638 110 615 q 265 660 188 660 q 381 638 342 660 q 433 583 419 615 q 447 518 447 550 l 447 344 l 419 344 l 419 514 q 376 608 419 579 q 265 638 333 638 q 155 609 199 638 q 111 514 111 581 l 111 140 q 153 47 111 75 q 253 18 196 18 q 375 49 331 18 q 419 153 419 79 l 419 235 l 447 240 l 447 158 q 433 79 447 117 q 376 18 418 42 q 253 -6 335 -6 m 92 331 l 92 350 l 447 350 l 447 331 l 92 331 m 215 747 l 332 875 l 369 875 l 236 747 l 215 747 z "},"ĕ":{"ha":531,"x_min":83,"x_max":447,"o":"m 253 -6 q 145 17 182 -6 q 96 72 108 39 q 83 136 83 106 l 83 518 q 97 583 83 550 q 149 638 110 615 q 265 660 188 660 q 381 638 342 660 q 433 583 419 615 q 447 518 447 550 l 447 344 l 419 344 l 419 514 q 376 608 419 579 q 265 638 333 638 q 155 609 199 638 q 111 514 111 581 l 111 140 q 153 47 111 75 q 253 18 196 18 q 375 49 331 18 q 419 153 419 79 l 419 235 l 447 240 l 447 158 q 433 79 447 117 q 376 18 418 42 q 253 -6 335 -6 m 92 331 l 92 350 l 447 350 l 447 331 l 92 331 m 263 742 q 187 761 213 742 q 153 808 161 781 q 144 860 144 836 l 164 860 q 185 792 164 822 q 263 763 207 763 q 344 792 321 763 q 367 860 367 821 l 386 860 q 358 777 386 813 q 263 742 331 742 z "},"ě":{"ha":531,"x_min":83,"x_max":447,"o":"m 128 865 l 151 865 l 265 765 l 379 865 l 400 865 l 283 747 l 244 747 l 128 865 m 253 -6 q 145 17 182 -6 q 96 72 108 39 q 83 136 83 106 l 83 518 q 97 583 83 550 q 149 638 110 615 q 265 660 188 660 q 381 638 342 660 q 433 583 419 615 q 447 518 447 550 l 447 344 l 419 344 l 419 514 q 376 608 419 579 q 265 638 333 638 q 155 609 199 638 q 111 514 111 581 l 111 140 q 153 47 111 75 q 253 18 196 18 q 375 49 331 18 q 419 153 419 79 l 419 235 l 447 240 l 447 158 q 433 79 447 117 q 376 18 418 42 q 253 -6 335 -6 m 92 331 l 92 350 l 447 350 l 447 331 l 92 331 z "},"ê":{"ha":531,"x_min":83,"x_max":447,"o":"m 253 -6 q 145 17 182 -6 q 96 72 108 39 q 83 136 83 106 l 83 518 q 97 583 83 550 q 149 638 110 615 q 265 660 188 660 q 381 638 342 660 q 433 583 419 615 q 447 518 447 550 l 447 344 l 419 344 l 419 514 q 376 608 419 579 q 265 638 333 638 q 155 609 199 638 q 111 514 111 581 l 111 140 q 153 47 111 75 q 253 18 196 18 q 375 49 331 18 q 419 153 419 79 l 419 235 l 447 240 l 447 158 q 433 79 447 117 q 376 18 418 42 q 253 -6 335 -6 m 92 331 l 92 350 l 447 350 l 447 331 l 92 331 m 128 747 l 244 865 l 283 865 l 400 747 l 379 747 l 265 847 l 151 747 l 128 747 z "},"ế":{"ha":531,"x_min":83,"x_max":543,"o":"m 253 -6 q 145 17 182 -6 q 96 72 108 39 q 83 136 83 106 l 83 518 q 97 583 83 550 q 149 638 110 615 q 265 660 188 660 q 381 638 342 660 q 433 583 419 615 q 447 518 447 550 l 447 344 l 419 344 l 419 514 q 376 608 419 579 q 265 638 333 638 q 155 609 199 638 q 111 514 111 581 l 111 140 q 153 47 111 75 q 253 18 196 18 q 375 49 331 18 q 419 153 419 79 l 419 235 l 447 240 l 447 158 q 433 79 447 117 q 376 18 418 42 q 253 -6 335 -6 m 92 331 l 92 350 l 447 350 l 447 331 l 92 331 m 128 747 l 244 865 l 283 865 l 400 747 l 379 747 l 265 847 l 151 747 l 128 747 m 389 850 l 506 978 l 543 978 l 410 850 l 389 850 z "},"ệ":{"ha":531,"x_min":83,"x_max":447,"o":"m 253 -6 q 145 17 182 -6 q 96 72 108 39 q 83 136 83 106 l 83 518 q 97 583 83 550 q 149 638 110 615 q 265 660 188 660 q 381 638 342 660 q 433 583 419 615 q 447 518 447 550 l 447 344 l 419 344 l 419 514 q 376 608 419 579 q 265 638 333 638 q 155 609 199 638 q 111 514 111 581 l 111 140 q 153 47 111 75 q 253 18 196 18 q 375 49 331 18 q 419 153 419 79 l 419 235 l 447 240 l 447 158 q 433 79 447 117 q 376 18 418 42 q 253 -6 335 -6 m 92 331 l 92 350 l 447 350 l 447 331 l 92 331 m 264 -114 q 244 -108 247 -114 q 242 -92 242 -101 q 244 -74 242 -81 q 264 -67 247 -67 q 283 -74 281 -67 q 286 -92 286 -81 q 283 -108 286 -101 q 264 -114 281 -114 m 128 747 l 244 865 l 283 865 l 400 747 l 379 747 l 265 847 l 151 747 l 128 747 z "},"ề":{"ha":531,"x_min":83,"x_max":447,"o":"m 253 -6 q 145 17 182 -6 q 96 72 108 39 q 83 136 83 106 l 83 518 q 97 583 83 550 q 149 638 110 615 q 265 660 188 660 q 381 638 342 660 q 433 583 419 615 q 447 518 447 550 l 447 344 l 419 344 l 419 514 q 376 608 419 579 q 265 638 333 638 q 155 609 199 638 q 111 514 111 581 l 111 140 q 153 47 111 75 q 253 18 196 18 q 375 49 331 18 q 419 153 419 79 l 419 235 l 447 240 l 447 158 q 433 79 447 117 q 376 18 418 42 q 253 -6 335 -6 m 92 331 l 92 350 l 447 350 l 447 331 l 92 331 m 128 747 l 244 865 l 283 865 l 400 747 l 379 747 l 265 847 l 151 747 l 128 747 m 426 850 l 293 978 l 331 978 l 447 850 l 426 850 z "},"ể":{"ha":531,"x_min":83,"x_max":519,"o":"m 253 -6 q 145 17 182 -6 q 96 72 108 39 q 83 136 83 106 l 83 518 q 97 583 83 550 q 149 638 110 615 q 265 660 188 660 q 381 638 342 660 q 433 583 419 615 q 447 518 447 550 l 447 344 l 419 344 l 419 514 q 376 608 419 579 q 265 638 333 638 q 155 609 199 638 q 111 514 111 581 l 111 140 q 153 47 111 75 q 253 18 196 18 q 375 49 331 18 q 419 153 419 79 l 419 235 l 447 240 l 447 158 q 433 79 447 117 q 376 18 418 42 q 253 -6 335 -6 m 92 331 l 92 350 l 447 350 l 447 331 l 92 331 m 128 747 l 244 865 l 283 865 l 400 747 l 379 747 l 265 847 l 151 747 l 128 747 m 419 850 q 431 878 419 867 q 459 901 443 890 q 487 925 475 911 q 499 960 499 939 q 478 997 499 983 q 435 1011 458 1011 q 383 992 399 1011 q 363 947 367 972 l 346 953 q 372 1009 349 989 q 438 1029 396 1029 q 499 1009 478 1029 q 519 961 519 989 q 508 919 519 935 q 481 894 496 904 q 455 875 467 885 q 443 850 443 865 l 419 850 z "},"ễ":{"ha":531,"x_min":83,"x_max":447,"o":"m 253 -6 q 145 17 182 -6 q 96 72 108 39 q 83 136 83 106 l 83 518 q 97 583 83 550 q 149 638 110 615 q 265 660 188 660 q 381 638 342 660 q 433 583 419 615 q 447 518 447 550 l 447 344 l 419 344 l 419 514 q 376 608 419 579 q 265 638 333 638 q 155 609 199 638 q 111 514 111 581 l 111 140 q 153 47 111 75 q 253 18 196 18 q 375 49 331 18 q 419 153 419 79 l 419 235 l 447 240 l 447 158 q 433 79 447 117 q 376 18 418 42 q 253 -6 335 -6 m 92 331 l 92 350 l 447 350 l 447 331 l 92 331 m 128 747 l 244 865 l 283 865 l 400 747 l 379 747 l 265 847 l 151 747 l 128 747 m 138 899 q 156 969 138 947 q 201 990 175 990 q 247 974 229 990 q 283 942 265 958 q 321 926 300 926 q 360 948 353 926 q 368 988 368 969 l 388 988 q 367 922 388 940 q 324 904 347 904 q 278 921 297 904 q 242 953 258 938 q 204 969 225 969 q 168 950 179 969 q 157 899 157 931 l 138 899 z "},"ȅ":{"ha":531,"x_min":81,"x_max":447,"o":"m 253 -6 q 145 17 182 -6 q 96 72 108 39 q 83 136 83 106 l 83 518 q 97 583 83 550 q 149 638 110 615 q 265 660 188 660 q 381 638 342 660 q 433 583 419 615 q 447 518 447 550 l 447 344 l 419 344 l 419 514 q 376 608 419 579 q 265 638 333 638 q 155 609 199 638 q 111 514 111 581 l 111 140 q 153 47 111 75 q 253 18 196 18 q 375 49 331 18 q 419 153 419 79 l 419 235 l 447 240 l 447 158 q 433 79 447 117 q 376 18 418 42 q 253 -6 335 -6 m 92 331 l 92 350 l 447 350 l 447 331 l 92 331 m 214 747 l 81 875 l 118 875 l 235 747 l 214 747 m 299 747 l 165 875 l 203 875 l 319 747 l 299 747 z "},"ë":{"ha":531,"x_min":83,"x_max":447,"o":"m 253 -6 q 145 17 182 -6 q 96 72 108 39 q 83 136 83 106 l 83 518 q 97 583 83 550 q 149 638 110 615 q 265 660 188 660 q 381 638 342 660 q 433 583 419 615 q 447 518 447 550 l 447 344 l 419 344 l 419 514 q 376 608 419 579 q 265 638 333 638 q 155 609 199 638 q 111 514 111 581 l 111 140 q 153 47 111 75 q 253 18 196 18 q 375 49 331 18 q 419 153 419 79 l 419 235 l 447 240 l 447 158 q 433 79 447 117 q 376 18 418 42 q 253 -6 335 -6 m 92 331 l 92 350 l 447 350 l 447 331 l 92 331 m 322 743 q 304 749 307 743 q 301 765 301 756 q 304 783 301 776 q 322 789 307 789 q 343 783 340 789 q 346 765 346 776 q 343 749 346 756 q 322 743 340 743 m 206 743 q 186 749 189 743 q 183 765 183 756 q 186 783 183 776 q 206 789 189 789 q 225 783 222 789 q 228 765 228 776 q 225 749 228 756 q 206 743 222 743 z "},"ė":{"ha":531,"x_min":83,"x_max":447,"o":"m 253 -6 q 145 17 182 -6 q 96 72 108 39 q 83 136 83 106 l 83 518 q 97 583 83 550 q 149 638 110 615 q 265 660 188 660 q 381 638 342 660 q 433 583 419 615 q 447 518 447 550 l 447 344 l 419 344 l 419 514 q 376 608 419 579 q 265 638 333 638 q 155 609 199 638 q 111 514 111 581 l 111 140 q 153 47 111 75 q 253 18 196 18 q 375 49 331 18 q 419 153 419 79 l 419 235 l 447 240 l 447 158 q 433 79 447 117 q 376 18 418 42 q 253 -6 335 -6 m 92 331 l 92 350 l 447 350 l 447 331 l 92 331 m 264 744 q 244 751 247 744 q 242 767 242 757 q 244 785 242 778 q 264 792 247 792 q 283 785 281 792 q 286 767 286 778 q 283 751 286 757 q 264 744 281 744 z "},"ẹ":{"ha":531,"x_min":83,"x_max":447,"o":"m 253 -6 q 145 17 182 -6 q 96 72 108 39 q 83 136 83 106 l 83 518 q 97 583 83 550 q 149 638 110 615 q 265 660 188 660 q 381 638 342 660 q 433 583 419 615 q 447 518 447 550 l 447 344 l 419 344 l 419 514 q 376 608 419 579 q 265 638 333 638 q 155 609 199 638 q 111 514 111 581 l 111 140 q 153 47 111 75 q 253 18 196 18 q 375 49 331 18 q 419 153 419 79 l 419 235 l 447 240 l 447 158 q 433 79 447 117 q 376 18 418 42 q 253 -6 335 -6 m 92 331 l 92 350 l 447 350 l 447 331 l 92 331 m 264 -114 q 244 -108 247 -114 q 242 -92 242 -101 q 244 -74 242 -81 q 264 -67 247 -67 q 283 -74 281 -67 q 286 -92 286 -81 q 283 -108 286 -101 q 264 -114 281 -114 z "},"è":{"ha":531,"x_min":83,"x_max":447,"o":"m 253 -6 q 145 17 182 -6 q 96 72 108 39 q 83 136 83 106 l 83 518 q 97 583 83 550 q 149 638 110 615 q 265 660 188 660 q 381 638 342 660 q 433 583 419 615 q 447 518 447 550 l 447 344 l 419 344 l 419 514 q 376 608 419 579 q 265 638 333 638 q 155 609 199 638 q 111 514 111 581 l 111 140 q 153 47 111 75 q 253 18 196 18 q 375 49 331 18 q 419 153 419 79 l 419 235 l 447 240 l 447 158 q 433 79 447 117 q 376 18 418 42 q 253 -6 335 -6 m 92 331 l 92 350 l 447 350 l 447 331 l 92 331 m 272 747 l 139 875 l 176 875 l 293 747 l 272 747 z "},"ẻ":{"ha":531,"x_min":83,"x_max":447,"o":"m 253 -6 q 145 17 182 -6 q 96 72 108 39 q 83 136 83 106 l 83 518 q 97 583 83 550 q 149 638 110 615 q 265 660 188 660 q 381 638 342 660 q 433 583 419 615 q 447 518 447 550 l 447 344 l 419 344 l 419 514 q 376 608 419 579 q 265 638 333 638 q 155 609 199 638 q 111 514 111 581 l 111 140 q 153 47 111 75 q 253 18 196 18 q 375 49 331 18 q 419 153 419 79 l 419 235 l 447 240 l 447 158 q 433 79 447 117 q 376 18 418 42 q 253 -6 335 -6 m 92 331 l 92 350 l 447 350 l 447 331 l 92 331 m 251 747 q 263 776 251 764 q 291 798 275 788 q 319 822 307 808 q 331 857 331 836 q 310 894 331 881 q 267 908 290 908 q 215 889 231 908 q 194 844 199 869 l 178 850 q 204 906 181 886 q 269 926 228 926 q 331 906 310 926 q 351 858 351 886 q 340 817 351 832 q 313 792 328 801 q 287 772 299 782 q 275 747 275 763 l 251 747 z "},"ȇ":{"ha":531,"x_min":83,"x_max":447,"o":"m 263 857 q 358 822 331 857 q 386 739 386 786 l 367 739 q 344 808 367 779 q 263 836 321 836 q 185 806 207 836 q 164 739 164 776 l 144 739 q 153 790 144 763 q 187 838 161 818 q 263 857 213 857 m 253 -6 q 145 17 182 -6 q 96 72 108 39 q 83 136 83 106 l 83 518 q 97 583 83 550 q 149 638 110 615 q 265 660 188 660 q 381 638 342 660 q 433 583 419 615 q 447 518 447 550 l 447 344 l 419 344 l 419 514 q 376 608 419 579 q 265 638 333 638 q 155 609 199 638 q 111 514 111 581 l 111 140 q 153 47 111 75 q 253 18 196 18 q 375 49 331 18 q 419 153 419 79 l 419 235 l 447 240 l 447 158 q 433 79 447 117 q 376 18 418 42 q 253 -6 335 -6 m 92 331 l 92 350 l 447 350 l 447 331 l 92 331 z "},"…":{"ha":485,"x_min":69,"x_max":394,"o":"m 92 10 q 72 16 75 10 q 69 32 69 22 q 72 50 69 43 q 92 57 75 57 q 112 50 108 57 q 115 32 115 43 q 112 16 115 22 q 92 10 108 10 m 233 10 q 214 16 217 10 q 211 32 211 22 q 214 50 211 43 q 233 57 217 57 q 253 50 250 57 q 257 32 257 43 q 253 16 257 22 q 233 10 250 10 m 371 10 q 351 16 354 10 q 349 32 349 22 q 351 50 349 43 q 371 57 354 57 q 391 50 388 57 q 394 32 394 43 q 391 16 394 22 q 371 10 388 10 z "},"ē":{"ha":531,"x_min":83,"x_max":447,"o":"m 253 -6 q 145 17 182 -6 q 96 72 108 39 q 83 136 83 106 l 83 518 q 97 583 83 550 q 149 638 110 615 q 265 660 188 660 q 381 638 342 660 q 433 583 419 615 q 447 518 447 550 l 447 344 l 419 344 l 419 514 q 376 608 419 579 q 265 638 333 638 q 155 609 199 638 q 111 514 111 581 l 111 140 q 153 47 111 75 q 253 18 196 18 q 375 49 331 18 q 419 153 419 79 l 419 235 l 447 240 l 447 158 q 433 79 447 117 q 376 18 418 42 q 253 -6 335 -6 m 92 331 l 92 350 l 447 350 l 447 331 l 92 331 m 133 758 l 133 779 l 396 779 l 396 758 l 133 758 z "},"—":{"ha":865,"x_min":101,"x_max":765,"o":"m 101 408 l 101 433 l 765 433 l 765 408 l 101 408 z "},"–":{"ha":596,"x_min":101,"x_max":496,"o":"m 101 408 l 101 433 l 496 433 l 496 408 l 101 408 z "},"ŋ":{"ha":815,"x_min":56,"x_max":418,"o":"m 56 653 l 78 653 l 81 585 q 142 640 104 619 q 243 660 181 660 q 356 637 318 660 q 406 581 393 614 q 418 517 418 547 l 418 0 l 390 0 l 390 510 q 348 606 390 576 q 236 636 306 636 q 140 613 175 636 q 83 558 106 590 l 83 0 l 56 0 l 56 653 m 236 -240 l 231 -217 l 325 -217 q 378 -195 365 -217 q 390 -128 390 -174 l 390 371 l 418 371 l 418 -132 q 399 -216 418 -192 q 326 -240 379 -240 l 236 -240 z "},"ę":{"ha":531,"x_min":83,"x_max":447,"o":"m 253 -6 q 145 17 182 -6 q 96 72 108 39 q 83 136 83 106 l 83 518 q 97 583 83 550 q 149 638 110 615 q 265 660 188 660 q 381 638 342 660 q 433 583 419 615 q 447 518 447 550 l 447 344 l 419 344 l 419 514 q 376 608 419 579 q 265 638 333 638 q 155 609 199 638 q 111 514 111 581 l 111 140 q 153 47 111 75 q 253 18 196 18 q 375 49 331 18 q 419 153 419 79 l 419 235 l 447 240 l 447 158 q 433 79 447 117 q 376 18 418 42 q 253 -6 335 -6 m 92 331 l 92 350 l 447 350 l 447 331 l 92 331 m 301 -217 q 241 -189 264 -217 q 218 -121 218 -161 q 248 -47 218 -85 q 342 14 278 -8 l 361 8 q 276 -44 310 -14 q 242 -119 242 -74 q 260 -173 242 -150 q 310 -196 279 -196 q 353 -190 335 -196 q 394 -165 372 -183 l 397 -186 q 351 -210 372 -204 q 301 -217 329 -217 z "},"=":{"ha":508,"x_min":81,"x_max":432,"o":"m 81 413 l 81 433 l 432 433 l 432 413 l 81 413 m 81 153 l 81 174 l 432 174 l 432 153 l 81 153 z "},"ð":{"ha":525,"x_min":81,"x_max":443,"o":"m 258 -1 q 149 15 188 -1 q 95 77 110 31 q 81 214 81 124 l 81 453 q 118 606 81 560 q 264 653 156 653 q 358 636 321 653 q 414 588 394 619 l 408 585 q 347 769 399 696 q 197 842 296 842 l 96 842 l 96 861 l 206 861 q 326 825 272 861 q 411 708 379 789 q 443 492 443 626 l 443 161 q 435 84 443 115 q 406 34 426 53 q 350 7 386 15 q 258 -1 314 -1 m 258 22 q 383 53 351 22 q 415 161 415 83 l 415 513 q 383 597 415 563 q 263 631 351 631 q 179 617 214 631 q 126 567 144 604 q 108 456 108 529 l 108 190 q 124 83 108 119 q 172 35 139 47 q 258 22 204 22 m 143 725 l 129 735 l 263 911 l 275 901 l 143 725 z "},"ẽ":{"ha":531,"x_min":83,"x_max":447,"o":"m 253 -6 q 145 17 182 -6 q 96 72 108 39 q 83 136 83 106 l 83 518 q 97 583 83 550 q 149 638 110 615 q 265 660 188 660 q 381 638 342 660 q 433 583 419 615 q 447 518 447 550 l 447 344 l 419 344 l 419 514 q 376 608 419 579 q 265 638 333 638 q 155 609 199 638 q 111 514 111 581 l 111 140 q 153 47 111 75 q 253 18 196 18 q 375 49 331 18 q 419 153 419 79 l 419 235 l 447 240 l 447 158 q 433 79 447 117 q 376 18 418 42 q 253 -6 335 -6 m 92 331 l 92 350 l 447 350 l 447 331 l 92 331 m 140 739 q 159 809 140 788 q 204 831 178 831 q 250 815 232 831 q 285 783 268 799 q 324 767 303 767 q 363 788 356 767 q 371 828 371 810 l 390 828 q 370 763 390 781 q 326 744 350 744 q 281 761 300 744 q 244 794 261 778 q 207 810 228 810 q 171 790 182 810 q 160 739 160 771 l 140 739 z "},"€":{"ha":517,"x_min":28,"x_max":463,"o":"m 281 -8 q 150 25 196 -8 q 104 128 104 58 l 104 728 q 144 835 104 797 q 276 872 185 872 q 419 836 375 872 q 463 726 463 800 l 463 582 l 435 576 l 435 721 q 402 813 435 778 q 281 847 369 847 q 163 813 194 847 q 132 722 132 778 l 132 132 q 168 48 132 81 q 281 15 204 15 q 397 48 360 15 q 435 133 435 81 l 435 272 l 463 279 l 463 129 q 415 25 463 58 q 281 -8 367 -8 m 28 342 l 28 360 l 307 360 l 296 342 l 28 342 m 28 476 l 28 493 l 382 493 l 372 476 l 28 476 z "},"!":{"ha":294,"x_min":111,"x_max":157,"o":"m 128 261 l 119 861 l 150 861 l 142 261 l 128 261 m 133 10 q 114 16 117 10 q 111 32 111 22 q 114 50 111 43 q 133 57 117 57 q 153 50 150 57 q 157 32 157 43 q 153 16 157 22 q 133 10 150 10 z "},"¡":{"ha":294,"x_min":125,"x_max":171,"o":"m 147 657 q 167 651 164 657 q 171 635 171 644 q 167 617 171 624 q 147 610 164 610 q 128 617 131 610 q 125 635 125 624 q 128 651 125 644 q 147 657 131 657 m 142 406 l 156 406 l 164 -194 l 133 -194 l 142 406 z "},"f":{"ha":271,"x_min":46,"x_max":304,"o":"m 106 633 l 46 633 l 46 653 l 106 653 l 106 771 q 129 840 106 819 q 215 861 153 861 l 304 861 l 304 842 l 222 842 q 152 825 171 842 q 133 768 133 808 l 133 653 l 256 653 l 251 633 l 133 633 l 133 0 l 106 0 l 106 633 z "},"ﬁ":{"ha":506,"x_min":46,"x_max":432,"o":"m 106 633 l 46 633 l 46 653 l 106 653 l 106 771 q 129 840 106 819 q 215 861 153 861 l 304 861 l 304 842 l 224 842 q 153 825 172 842 q 135 768 135 808 l 135 653 l 418 653 l 414 633 l 135 633 l 135 0 l 106 0 l 106 633 m 404 653 l 432 653 l 432 0 l 404 0 l 404 653 z "},"ﬂ":{"ha":510,"x_min":46,"x_max":413,"o":"m 106 633 l 46 633 l 46 653 l 106 653 l 106 771 q 129 840 106 819 q 215 861 153 861 l 410 861 l 403 842 l 224 842 q 153 825 172 842 q 135 768 135 808 l 135 653 l 256 653 l 251 633 l 135 633 l 135 0 l 106 0 l 106 633 m 385 861 l 413 861 l 413 0 l 385 0 l 385 861 z "},"ƒ":{"ha":336,"x_min":-140,"x_max":325,"o":"m -136 -236 l -140 -214 l -50 -214 q 4 -192 -10 -214 q 24 -125 18 -169 l 104 633 l 44 633 l 46 653 l 106 653 l 118 771 q 134 823 122 803 q 170 852 146 843 q 236 861 194 861 l 325 861 l 322 842 l 242 842 q 170 825 190 842 q 146 768 150 808 l 133 653 l 256 653 l 247 633 l 132 633 l 51 -129 q 23 -212 46 -189 q -53 -236 0 -236 l -136 -236 z "},"⁴":{"ha":358,"x_min":7,"x_max":358,"o":"m 258 311 l 258 424 l 18 424 l 7 446 l 257 871 l 286 871 l 286 446 l 358 446 l 354 424 l 286 424 l 286 311 l 258 311 m 36 446 l 258 446 l 258 831 l 36 446 z "},"⁄":{"ha":207,"x_min":-158,"x_max":397,"o":"m -158 -61 l 369 875 l 397 875 l -133 -61 l -158 -61 z "},"₣":{"ha":514,"x_min":0,"x_max":472,"o":"m 0 242 l 0 261 l 293 261 l 293 242 l 0 242 m 111 861 l 472 861 l 472 838 l 139 838 l 139 503 l 453 503 l 446 481 l 139 481 l 139 0 l 111 0 l 111 861 z "},"g":{"ha":550,"x_min":89,"x_max":453,"o":"m 167 -236 l 161 -214 l 358 -214 q 413 -192 400 -214 q 425 -125 425 -169 l 425 629 l 204 629 q 139 617 157 629 q 119 578 121 606 q 117 503 117 551 l 117 143 q 121 69 117 94 q 141 33 125 43 q 192 24 157 24 l 372 24 l 367 0 l 185 0 q 117 13 138 0 q 93 63 97 25 q 89 174 89 100 l 89 538 q 99 616 89 592 q 139 647 108 640 q 232 653 169 653 l 453 653 l 453 -129 q 433 -212 453 -189 q 360 -236 413 -236 l 167 -236 z "},"ğ":{"ha":550,"x_min":89,"x_max":453,"o":"m 167 -236 l 161 -214 l 358 -214 q 413 -192 400 -214 q 425 -125 425 -169 l 425 629 l 204 629 q 139 617 157 629 q 119 578 121 606 q 117 503 117 551 l 117 143 q 121 69 117 94 q 141 33 125 43 q 192 24 157 24 l 372 24 l 367 0 l 185 0 q 117 13 138 0 q 93 63 97 25 q 89 174 89 100 l 89 538 q 99 616 89 592 q 139 647 108 640 q 232 653 169 653 l 453 653 l 453 -129 q 433 -212 453 -189 q 360 -236 413 -236 l 167 -236 m 272 742 q 197 761 222 742 q 163 808 171 781 q 154 860 154 836 l 174 860 q 195 792 174 822 q 272 763 217 763 q 353 792 331 763 q 376 860 376 821 l 396 860 q 368 777 396 813 q 272 742 340 742 z "},"ǧ":{"ha":550,"x_min":89,"x_max":453,"o":"m 138 865 l 161 865 l 275 765 l 389 865 l 410 865 l 293 747 l 254 747 l 138 865 m 167 -236 l 161 -214 l 358 -214 q 413 -192 400 -214 q 425 -125 425 -169 l 425 629 l 204 629 q 139 617 157 629 q 119 578 121 606 q 117 503 117 551 l 117 143 q 121 69 117 94 q 141 33 125 43 q 192 24 157 24 l 372 24 l 367 0 l 185 0 q 117 13 138 0 q 93 63 97 25 q 89 174 89 100 l 89 538 q 99 616 89 592 q 139 647 108 640 q 232 653 169 653 l 453 653 l 453 -129 q 433 -212 453 -189 q 360 -236 413 -236 l 167 -236 z "},"ĝ":{"ha":550,"x_min":89,"x_max":453,"o":"m 167 -236 l 161 -214 l 358 -214 q 413 -192 400 -214 q 425 -125 425 -169 l 425 629 l 204 629 q 139 617 157 629 q 119 578 121 606 q 117 503 117 551 l 117 143 q 121 69 117 94 q 141 33 125 43 q 192 24 157 24 l 372 24 l 367 0 l 185 0 q 117 13 138 0 q 93 63 97 25 q 89 174 89 100 l 89 538 q 99 616 89 592 q 139 647 108 640 q 232 653 169 653 l 453 653 l 453 -129 q 433 -212 453 -189 q 360 -236 413 -236 l 167 -236 m 138 747 l 254 865 l 293 865 l 410 747 l 389 747 l 275 847 l 161 747 l 138 747 z "},"ģ":{"ha":550,"x_min":89,"x_max":453,"o":"m 167 -236 l 161 -214 l 358 -214 q 413 -192 400 -214 q 425 -125 425 -169 l 425 629 l 204 629 q 139 617 157 629 q 119 578 121 606 q 117 503 117 551 l 117 143 q 121 69 117 94 q 141 33 125 43 q 192 24 157 24 l 372 24 l 367 0 l 185 0 q 117 13 138 0 q 93 63 97 25 q 89 174 89 100 l 89 538 q 99 616 89 592 q 139 647 108 640 q 232 653 169 653 l 453 653 l 453 -129 q 433 -212 453 -189 q 360 -236 413 -236 l 167 -236 m 268 747 q 251 752 254 747 q 247 765 247 757 q 252 808 247 785 q 267 851 257 831 q 288 886 276 872 l 307 886 q 279 838 289 864 q 269 781 269 811 q 288 777 285 781 q 292 768 292 774 q 289 753 292 760 q 268 747 286 747 z "},"ġ":{"ha":550,"x_min":89,"x_max":453,"o":"m 167 -236 l 161 -214 l 358 -214 q 413 -192 400 -214 q 425 -125 425 -169 l 425 629 l 204 629 q 139 617 157 629 q 119 578 121 606 q 117 503 117 551 l 117 143 q 121 69 117 94 q 141 33 125 43 q 192 24 157 24 l 372 24 l 367 0 l 185 0 q 117 13 138 0 q 93 63 97 25 q 89 174 89 100 l 89 538 q 99 616 89 592 q 139 647 108 640 q 232 653 169 653 l 453 653 l 453 -129 q 433 -212 453 -189 q 360 -236 413 -236 l 167 -236 m 274 744 q 254 751 257 744 q 251 767 251 757 q 254 785 251 778 q 274 792 257 792 q 293 785 290 792 q 296 767 296 778 q 293 751 296 757 q 274 744 290 744 z "},"ß":{"ha":607,"x_min":-50,"x_max":540,"o":"m -43 -236 l -50 -214 l 39 -214 q 93 -192 81 -214 q 106 -125 106 -169 l 106 633 l 46 633 l 46 653 l 106 653 l 106 751 q 132 838 106 814 q 242 861 158 861 l 271 861 q 350 851 321 861 q 392 816 379 840 q 404 749 404 792 l 404 667 q 400 653 404 657 q 385 647 396 649 q 317 624 340 646 q 285 570 293 603 q 276 504 276 538 q 288 427 276 454 q 338 379 299 400 q 403 342 382 354 q 442 322 425 331 q 507 277 486 299 q 534 228 528 256 q 540 157 540 200 l 540 149 q 501 32 540 72 q 356 -8 463 -8 q 222 33 263 -8 q 182 147 182 74 l 182 246 l 208 251 l 208 147 q 220 84 208 115 q 264 33 232 53 q 357 14 296 14 q 473 39 431 14 q 515 147 515 64 q 510 217 515 190 q 486 263 504 243 q 428 304 468 282 q 379 331 411 314 q 322 361 347 347 q 278 392 294 375 q 256 435 263 408 q 250 504 250 463 q 281 624 250 582 q 376 667 311 665 l 376 749 q 351 824 376 806 q 263 842 326 842 l 251 842 q 156 823 178 842 q 133 749 133 804 l 133 -129 q 114 -212 133 -189 q 42 -236 94 -236 l -43 -236 z "},"`":{"ha":154,"x_min":0,"x_max":154,"o":"m 133 747 l 0 875 l 38 875 l 154 747 l 133 747 z "},"̀":{"ha":0,"x_min":0,"x_max":154,"o":"m 133 747 l 0 875 l 38 875 l 154 747 l 133 747 z "},">":{"ha":547,"x_min":136,"x_max":479,"o":"m 136 178 l 136 204 l 458 453 l 136 704 l 136 731 l 479 463 l 479 443 l 136 178 z "},"≥":{"ha":592,"x_min":132,"x_max":475,"o":"m 132 178 l 132 204 l 454 453 l 132 704 l 132 731 l 475 463 l 475 443 l 132 178 m 132 -3 l 132 17 l 475 17 l 475 -3 l 132 -3 z "},"₲":{"ha":469,"x_min":53,"x_max":417,"o":"m 242 -3 q 141 5 183 -3 q 76 38 99 13 q 53 114 53 63 l 53 754 q 103 845 53 824 q 240 867 154 867 q 372 844 326 867 q 417 753 417 822 l 417 594 l 392 588 l 392 750 q 351 825 392 807 q 242 843 311 843 q 124 828 169 843 q 79 751 79 813 l 79 117 q 100 52 79 72 q 158 26 121 32 q 242 21 194 21 q 318 26 285 21 q 370 52 351 32 q 389 117 389 72 l 389 439 l 231 439 l 238 463 l 417 463 l 417 114 q 397 38 417 63 q 338 5 376 13 q 242 -3 299 -3 m 192 -118 l 261 942 l 278 942 l 207 -118 l 192 -118 z "},"«":{"ha":713,"x_min":107,"x_max":606,"o":"m 568 75 l 389 332 l 574 600 l 606 600 l 421 332 l 599 75 l 568 75 m 286 75 l 107 332 l 293 600 l 324 600 l 139 332 l 317 75 l 286 75 z "},"»":{"ha":618,"x_min":60,"x_max":558,"o":"m 350 75 l 528 332 l 343 600 l 372 600 l 558 332 l 379 75 l 350 75 m 67 75 l 244 332 l 60 600 l 90 600 l 275 332 l 96 75 l 67 75 z "},"‹":{"ha":431,"x_min":107,"x_max":324,"o":"m 286 75 l 107 332 l 293 600 l 324 600 l 139 332 l 317 75 l 286 75 z "},"›":{"ha":431,"x_min":107,"x_max":324,"o":"m 114 75 l 292 332 l 107 600 l 139 600 l 324 332 l 144 75 l 114 75 z "},"h":{"ha":549,"x_min":97,"x_max":460,"o":"m 97 875 l 125 875 l 125 588 q 186 641 149 622 q 285 660 224 660 q 397 638 360 660 q 447 583 435 615 q 460 519 460 550 l 460 0 l 432 0 l 432 511 q 390 608 432 579 q 278 636 347 636 q 182 614 217 636 q 125 560 147 592 l 125 0 l 97 0 l 97 875 z "},"ħ":{"ha":549,"x_min":33,"x_max":460,"o":"m 33 740 l 33 758 l 260 758 l 260 740 l 33 740 m 97 875 l 125 875 l 125 588 q 186 641 149 622 q 285 660 224 660 q 397 638 360 660 q 447 583 435 615 q 460 519 460 550 l 460 0 l 432 0 l 432 511 q 390 608 432 579 q 278 636 347 636 q 182 614 217 636 q 125 560 147 592 l 125 0 l 97 0 l 97 875 z "},"ĥ":{"ha":549,"x_min":-28,"x_max":460,"o":"m 97 875 l 125 875 l 125 588 q 186 641 149 622 q 285 660 224 660 q 397 638 360 660 q 447 583 435 615 q 460 519 460 550 l 460 0 l 432 0 l 432 511 q 390 608 432 579 q 278 636 347 636 q 182 614 217 636 q 125 560 147 592 l 125 0 l 97 0 l 97 875 m -28 969 l 89 1088 l 128 1088 l 244 969 l 224 969 l 110 1069 l -4 969 l -28 969 z "},"̉":{"ha":0,"x_min":0,"x_max":174,"o":"m 74 747 q 85 776 74 764 q 113 798 97 788 q 141 822 129 808 q 153 857 153 836 q 133 894 153 881 q 89 908 113 908 q 37 889 53 908 q 17 844 21 869 l 0 850 q 26 906 3 886 q 92 926 50 926 q 153 906 132 926 q 174 858 174 886 q 162 817 174 832 q 135 792 150 801 q 109 772 121 782 q 97 747 97 763 l 74 747 z "},"̛":{"ha":0,"x_min":0,"x_max":107,"o":"m 3 636 l 0 653 q 70 669 53 653 q 86 722 88 686 l 107 722 q 83 653 107 671 q 3 636 60 636 z "},"˝":{"ha":168,"x_min":0,"x_max":168,"o":"m 0 747 l 49 875 l 85 875 l 21 747 l 0 747 m 82 747 l 131 875 l 168 875 l 103 747 l 82 747 z "},"̋":{"ha":0,"x_min":0,"x_max":168,"o":"m 0 747 l 49 875 l 85 875 l 21 747 l 0 747 m 82 747 l 131 875 l 168 875 l 103 747 l 82 747 z "},"-":{"ha":521,"x_min":101,"x_max":421,"o":"m 101 408 l 101 433 l 421 433 l 421 408 l 101 408 z "},"‐":{"ha":521,"x_min":101,"x_max":421,"o":"m 101 408 l 101 433 l 421 433 l 421 408 l 101 408 z "},"i":{"ha":222,"x_min":89,"x_max":132,"o":"m 97 0 l 97 653 l 125 653 l 125 0 l 97 0 m 110 758 q 92 762 96 758 q 89 778 89 765 q 92 795 89 790 q 110 800 96 800 q 128 795 124 800 q 132 778 132 790 q 128 762 132 765 q 110 758 124 758 z "},"í":{"ha":222,"x_min":61,"x_max":215,"o":"m 97 653 l 125 653 l 125 0 l 97 0 l 97 653 m 61 747 l 178 875 l 215 875 l 82 747 l 61 747 z "},"ĭ":{"ha":222,"x_min":-10,"x_max":232,"o":"m 97 653 l 125 653 l 125 0 l 97 0 l 97 653 m 108 742 q 33 761 58 742 q -1 808 7 781 q -10 860 -10 836 l 10 860 q 31 792 10 822 q 108 763 53 763 q 190 792 167 763 q 213 860 213 821 l 232 860 q 204 777 232 813 q 108 742 176 742 z "},"ǐ":{"ha":222,"x_min":-26,"x_max":246,"o":"m -26 865 l -3 865 l 111 765 l 225 865 l 246 865 l 129 747 l 90 747 l -26 865 m 97 653 l 125 653 l 125 0 l 97 0 l 97 653 z "},"î":{"ha":222,"x_min":-26,"x_max":246,"o":"m 97 653 l 125 653 l 125 0 l 97 0 l 97 653 m -26 747 l 90 865 l 129 865 l 246 747 l 225 747 l 111 847 l -3 747 l -26 747 z "},"ȉ":{"ha":222,"x_min":-74,"x_max":165,"o":"m 97 653 l 125 653 l 125 0 l 97 0 l 97 653 m 60 747 l -74 875 l -36 875 l 81 747 l 60 747 m 144 747 l 11 875 l 49 875 l 165 747 l 144 747 z "},"ï":{"ha":222,"x_min":29,"x_max":192,"o":"m 97 653 l 125 653 l 125 0 l 97 0 l 97 653 m 168 743 q 150 749 153 743 q 147 765 147 756 q 150 783 147 776 q 168 789 153 789 q 189 783 186 789 q 192 765 192 776 q 189 749 192 756 q 168 743 186 743 m 51 743 q 32 749 35 743 q 29 765 29 756 q 32 783 29 776 q 51 789 35 789 q 71 783 68 789 q 74 765 74 776 q 71 749 74 756 q 51 743 68 743 z "},"ị":{"ha":222,"x_min":88,"x_max":132,"o":"m 97 0 l 97 653 l 125 653 l 125 0 l 97 0 m 110 758 q 92 762 96 758 q 89 778 89 765 q 92 795 89 790 q 110 800 96 800 q 128 795 124 800 q 132 778 132 790 q 128 762 132 765 q 110 758 124 758 m 110 -114 q 90 -108 93 -114 q 88 -92 88 -101 q 90 -74 88 -81 q 110 -67 93 -67 q 129 -74 126 -67 q 132 -92 132 -81 q 129 -108 132 -101 q 110 -114 126 -114 z "},"ı":{"ha":222,"x_min":97,"x_max":125,"o":"m 97 653 l 125 653 l 125 0 l 97 0 l 97 653 z "},"ì":{"ha":222,"x_min":-15,"x_max":139,"o":"m 97 653 l 125 653 l 125 0 l 97 0 l 97 653 m 118 747 l -15 875 l 22 875 l 139 747 l 118 747 z "},"ỉ":{"ha":222,"x_min":24,"x_max":197,"o":"m 97 653 l 125 653 l 125 0 l 97 0 l 97 653 m 97 747 q 109 776 97 764 q 137 798 121 788 q 165 822 153 808 q 176 857 176 836 q 156 894 176 881 q 113 908 136 908 q 60 889 76 908 q 40 844 44 869 l 24 850 q 50 906 26 886 q 115 926 74 926 q 176 906 156 926 q 197 858 197 886 q 185 817 197 832 q 159 792 174 801 q 133 772 144 782 q 121 747 121 763 l 97 747 z "},"ȋ":{"ha":222,"x_min":-10,"x_max":232,"o":"m 108 857 q 204 822 176 857 q 232 739 232 786 l 213 739 q 190 808 213 779 q 108 836 167 836 q 31 806 53 836 q 10 739 10 776 l -10 739 q -1 790 -10 763 q 33 838 7 818 q 108 857 58 857 m 97 653 l 125 653 l 125 0 l 97 0 l 97 653 z "},"ī":{"ha":222,"x_min":-21,"x_max":242,"o":"m 97 653 l 125 653 l 125 0 l 97 0 l 97 653 m -21 758 l -21 779 l 242 779 l 242 758 l -21 758 z "},"∆":{"ha":643,"x_min":31,"x_max":613,"o":"m 31 0 l 308 815 l 342 815 l 613 0 l 31 0 m 576 22 l 321 790 l 58 22 l 576 22 z "},"∞":{"ha":1144,"x_min":81,"x_max":1063,"o":"m 281 104 q 129 165 178 104 q 81 344 81 225 q 129 525 81 464 q 281 586 178 586 q 378 559 333 586 q 461 492 424 532 q 527 416 499 453 q 574 358 556 379 q 618 415 592 378 q 679 491 644 451 q 758 558 714 531 q 854 586 801 586 q 1013 525 964 586 q 1063 344 1063 464 q 1012 165 1063 225 q 854 104 961 104 q 761 128 804 104 q 683 188 718 153 q 619 258 647 224 q 574 314 592 293 q 526 256 554 292 q 460 186 497 221 q 378 128 424 151 q 281 104 333 104 m 286 129 q 424 185 351 129 q 561 335 496 240 q 476 441 518 389 q 388 527 433 493 q 286 561 342 561 q 151 506 190 561 q 111 344 111 451 q 151 184 111 239 q 286 129 190 129 m 850 129 q 983 180 933 129 q 1033 344 1033 231 q 983 511 1033 461 q 850 561 933 561 q 763 535 803 561 q 690 470 724 508 q 631 394 657 432 q 586 333 606 357 q 635 276 606 311 q 699 208 664 242 q 773 152 735 175 q 850 129 811 129 z "},"∫":{"ha":336,"x_min":-140,"x_max":325,"o":"m -136 -236 l -140 -214 l -50 -214 q 4 -192 -10 -214 q 24 -125 18 -169 l 118 771 q 134 823 122 803 q 170 852 146 843 q 236 861 194 861 l 325 861 l 322 842 l 242 842 q 170 825 190 842 q 146 768 150 808 l 51 -129 q 23 -212 46 -189 q -53 -236 0 -236 l -136 -236 z "},"į":{"ha":222,"x_min":-57,"x_max":132,"o":"m 97 653 l 125 653 l 125 0 l 97 0 l 97 653 m 110 744 q 90 751 93 744 q 88 767 88 757 q 90 785 88 778 q 110 792 93 792 q 129 785 126 792 q 132 767 132 778 q 129 751 132 757 q 110 744 126 744 m 26 -217 q -34 -189 -11 -217 q -57 -121 -57 -161 q -27 -47 -57 -85 q 67 14 3 -8 l 86 8 q 1 -44 35 -14 q -33 -119 -33 -74 q -15 -173 -33 -150 q 35 -196 4 -196 q 78 -190 60 -196 q 119 -165 97 -183 l 122 -186 q 76 -210 97 -204 q 26 -217 54 -217 z "},"ĩ":{"ha":222,"x_min":-14,"x_max":236,"o":"m 97 653 l 125 653 l 125 0 l 97 0 l 97 653 m -14 739 q 5 809 -14 788 q 50 831 24 831 q 96 815 78 831 q 131 783 114 799 q 169 767 149 767 q 209 788 201 767 q 217 828 217 810 l 236 828 q 216 763 236 781 q 172 744 196 744 q 126 761 146 744 q 90 794 107 778 q 53 810 74 810 q 17 790 28 810 q 6 739 6 771 l -14 739 z "},"j":{"ha":215,"x_min":-69,"x_max":125,"o":"m -64 -236 l -69 -214 l 25 -214 q 78 -192 65 -214 q 90 -125 90 -169 l 90 653 l 118 653 l 118 -129 q 99 -212 118 -189 q 26 -236 79 -236 l -64 -236 m 104 758 q 86 762 90 758 q 82 778 82 765 q 86 795 82 790 q 104 800 90 800 q 122 795 118 800 q 125 778 125 790 q 122 762 125 765 q 104 758 118 758 z "},"ĵ":{"ha":207,"x_min":-69,"x_max":238,"o":"m -65 -236 l -69 -214 l 24 -214 q 76 -192 64 -214 q 89 -125 89 -169 l 89 653 l 117 653 l 117 -129 q 97 -212 117 -189 q 25 -236 78 -236 l -65 -236 m -35 747 l 82 865 l 121 865 l 238 747 l 217 747 l 103 847 l -11 747 l -35 747 z "},"ȷ":{"ha":207,"x_min":-69,"x_max":117,"o":"m -65 -236 l -69 -214 l 24 -214 q 76 -192 64 -214 q 89 -125 89 -169 l 89 653 l 117 653 l 117 -129 q 97 -212 117 -189 q 25 -236 78 -236 l -65 -236 z "},"k":{"ha":461,"x_min":97,"x_max":464,"o":"m 97 0 l 97 875 l 125 875 l 125 0 l 97 0 m 431 0 l 189 325 l 111 325 l 111 347 l 189 347 l 390 669 l 418 657 l 215 338 l 464 0 l 431 0 z "},"ķ":{"ha":461,"x_min":97,"x_max":464,"o":"m 97 0 l 97 875 l 125 875 l 125 0 l 97 0 m 431 0 l 189 325 l 111 325 l 111 347 l 189 347 l 390 669 l 418 657 l 215 338 l 464 0 l 431 0 m 228 -207 q 256 -157 244 -183 q 267 -100 267 -131 q 245 -96 249 -100 q 242 -86 242 -92 q 244 -72 242 -78 q 265 -67 247 -67 q 283 -72 281 -67 q 286 -85 286 -76 q 281 -128 286 -106 q 267 -172 276 -151 q 246 -207 258 -192 l 228 -207 z "},"ĸ":{"ha":449,"x_min":56,"x_max":422,"o":"m 56 0 l 56 771 l 83 771 l 83 0 l 56 0 m 69 325 l 69 347 l 154 347 l 154 325 l 69 325 m 389 0 l 140 336 l 339 653 l 374 653 l 172 338 l 422 0 l 389 0 z "},"₭":{"ha":465,"x_min":1,"x_max":458,"o":"m 1 454 l 1 478 l 442 478 l 442 454 l 1 454 m 432 -8 l 188 465 l 415 865 l 438 853 l 218 465 l 458 4 l 432 -8 m 101 861 l 129 861 l 129 0 l 101 0 l 101 861 z "},"l":{"ha":222,"x_min":97,"x_max":125,"o":"m 97 875 l 125 875 l 125 0 l 97 0 l 97 875 z "},"ĺ":{"ha":222,"x_min":61,"x_max":215,"o":"m 97 875 l 125 875 l 125 0 l 97 0 l 97 875 m 61 969 l 178 1097 l 215 1097 l 82 969 l 61 969 z "},"ľ":{"ha":222,"x_min":97,"x_max":268,"o":"m 97 875 l 125 875 l 125 0 l 97 0 l 97 875 m 206 707 l 243 901 l 268 901 l 221 707 l 206 707 z "},"ļ":{"ha":222,"x_min":81,"x_max":139,"o":"m 97 875 l 125 875 l 125 0 l 97 0 l 97 875 m 81 -207 q 108 -157 97 -183 q 119 -100 119 -131 q 98 -96 101 -100 q 94 -86 94 -92 q 97 -72 94 -78 q 118 -67 100 -67 q 136 -72 133 -67 q 139 -85 139 -76 q 134 -128 139 -106 q 120 -172 129 -151 q 99 -207 111 -192 l 81 -207 z "},"ŀ":{"ha":188,"x_min":97,"x_max":210,"o":"m 97 875 l 125 875 l 125 0 l 97 0 l 97 875 m 186 331 q 167 337 169 331 q 164 353 164 343 q 167 371 164 364 q 186 378 169 378 q 206 371 203 378 q 210 353 210 364 q 206 337 210 343 q 186 331 203 331 z "},"⟨":{"ha":371,"x_min":72,"x_max":299,"o":"m 278 -29 l 72 442 l 96 442 l 299 -29 l 278 -29 m 74 375 l 275 840 l 299 840 l 94 375 l 74 375 z "},"<":{"ha":547,"x_min":69,"x_max":413,"o":"m 413 178 l 69 443 l 69 463 l 413 731 l 413 704 l 90 453 l 413 204 l 413 178 z "},"≤":{"ha":592,"x_min":122,"x_max":465,"o":"m 465 178 l 122 443 l 122 463 l 465 731 l 465 704 l 143 453 l 465 204 l 465 178 m 138 -3 l 138 17 l 460 17 l 460 -3 l 138 -3 z "},"₤":{"ha":569,"x_min":81,"x_max":490,"o":"m 371 -3 q 308 3 349 -3 q 222 14 267 8 q 147 19 178 19 q 108 17 125 19 q 81 8 90 15 l 81 25 q 164 153 140 85 q 188 331 188 221 q 171 481 188 411 q 138 608 154 550 q 121 713 121 667 q 169 835 121 799 q 283 872 217 872 q 399 831 353 872 q 446 688 446 790 l 446 628 l 417 628 l 417 679 q 377 815 417 778 q 282 853 338 853 q 185 816 222 853 q 149 714 149 779 q 165 611 149 667 q 199 487 182 556 q 215 328 215 418 q 191 147 215 215 q 118 39 167 79 q 134 40 125 40 q 153 40 143 40 q 222 35 185 40 q 294 24 258 29 q 357 18 331 18 q 429 44 399 18 q 460 147 460 69 l 460 244 l 490 250 l 490 168 q 483 82 490 121 q 449 20 475 43 q 371 -3 424 -3 m 82 278 l 89 296 l 347 296 l 339 278 l 82 278 m 82 381 l 89 399 l 353 399 l 346 381 l 82 381 z "},"₺":{"ha":561,"x_min":4,"x_max":506,"o":"m 182 11 q 146 23 163 11 q 129 74 129 35 l 129 861 l 157 861 l 157 83 q 168 47 157 57 q 199 36 179 36 l 269 36 q 391 49 346 38 q 457 90 436 60 q 478 176 478 119 l 478 515 l 506 529 l 506 174 q 450 44 506 76 q 269 11 394 11 l 182 11 m 4 274 l 4 294 l 338 375 l 338 354 l 4 274 m 4 453 l 4 474 l 338 554 l 338 533 l 4 453 z "},"ǉ":{"ha":438,"x_min":97,"x_max":347,"o":"m 97 875 l 125 875 l 125 0 l 97 0 l 97 875 m 158 -236 l 153 -214 l 247 -214 q 300 -192 288 -214 q 313 -125 313 -169 l 313 653 l 340 653 l 340 -129 q 321 -212 340 -189 q 249 -236 301 -236 l 158 -236 m 326 758 q 308 762 313 758 q 304 778 304 765 q 308 795 304 790 q 326 800 313 800 q 344 795 340 800 q 347 778 347 790 q 344 762 347 765 q 326 758 340 758 z "},"¬":{"ha":811,"x_min":67,"x_max":743,"o":"m 715 88 l 715 428 l 67 428 l 67 450 l 743 450 l 743 88 l 715 88 z "},"◊":{"ha":744,"x_min":101,"x_max":642,"o":"m 365 0 l 101 449 l 365 893 l 383 893 l 642 449 l 383 0 l 365 0 m 374 31 l 618 449 l 374 860 l 128 449 l 374 31 z "},"ł":{"ha":343,"x_min":51,"x_max":293,"o":"m 138 875 l 165 875 l 165 0 l 138 0 l 138 875 m 58 304 l 51 326 l 286 389 l 293 367 l 58 304 z "},"m":{"ha":883,"x_min":97,"x_max":794,"o":"m 97 0 l 97 656 l 118 656 l 122 588 q 185 642 146 622 q 285 663 224 663 q 378 648 343 663 q 433 610 414 633 q 457 560 451 586 l 449 556 q 482 617 456 593 q 546 651 508 640 q 621 663 583 663 q 733 640 696 663 q 782 583 769 617 q 794 519 794 550 l 794 0 l 767 0 l 767 513 q 724 609 767 579 q 614 639 681 639 q 506 609 551 639 q 460 514 460 579 l 460 0 l 432 0 l 432 513 q 389 609 432 579 q 278 639 346 639 q 182 615 217 639 q 125 560 147 592 l 125 0 l 97 0 z "},"¯":{"ha":263,"x_min":0,"x_max":263,"o":"m 0 758 l 0 779 l 263 779 l 263 758 l 0 758 z "},"̱":{"ha":0,"x_min":0,"x_max":296,"o":"m 0 -103 l 0 -82 l 296 -82 l 296 -103 l 0 -103 z "},"̄":{"ha":0,"x_min":0,"x_max":263,"o":"m 0 758 l 0 779 l 263 779 l 263 758 l 0 758 z "},"₼":{"ha":610,"x_min":53,"x_max":556,"o":"m 53 13 l 94 750 q 156 852 99 824 q 306 881 213 881 q 457 852 404 881 q 514 750 510 824 l 556 13 l 528 13 l 486 739 q 472 796 485 769 q 422 840 460 822 q 306 857 385 857 q 190 840 229 857 q 138 797 151 824 q 124 739 125 769 l 82 13 l 53 13 m 296 897 l 310 950 l 314 253 l 300 200 l 296 897 z "},"µ":{"ha":475,"x_min":56,"x_max":418,"o":"m 231 0 q 118 22 156 0 q 68 74 81 43 q 56 136 56 106 l 56 653 l 83 653 l 83 146 q 126 51 83 78 q 238 24 168 24 l 390 24 l 390 653 l 418 653 l 418 0 l 231 0 m 146 -236 q 74 -212 93 -236 q 56 -129 56 -189 l 56 653 l 83 653 l 83 -125 q 96 -192 83 -169 q 147 -214 108 -214 l 163 -214 l 157 -236 l 146 -236 z "},"−":{"ha":515,"x_min":81,"x_max":435,"o":"m 81 413 l 81 433 l 435 433 l 435 413 l 81 413 z "},"′":{"ha":251,"x_min":107,"x_max":143,"o":"m 115 588 l 107 885 l 143 885 l 136 588 l 115 588 z "},"μ":{"ha":475,"x_min":56,"x_max":418,"o":"m 231 0 q 118 22 156 0 q 68 74 81 43 q 56 136 56 106 l 56 653 l 83 653 l 83 146 q 126 51 83 78 q 238 24 168 24 l 390 24 l 390 653 l 418 653 l 418 0 l 231 0 m 146 -236 q 74 -212 93 -236 q 56 -129 56 -189 l 56 653 l 83 653 l 83 -125 q 96 -192 83 -169 q 147 -214 108 -214 l 163 -214 l 157 -236 l 146 -236 z "},"×":{"ha":461,"x_min":94,"x_max":368,"o":"m 103 556 l 118 571 l 368 319 l 353 306 l 103 556 m 108 299 l 94 313 l 344 564 l 360 549 l 108 299 z "},"n":{"ha":549,"x_min":97,"x_max":460,"o":"m 97 656 l 118 656 l 122 588 q 184 641 144 619 q 285 663 224 663 q 417 626 374 663 q 460 519 460 589 l 460 0 l 432 0 l 432 511 q 390 608 432 578 q 278 638 347 638 q 183 615 219 638 q 125 560 147 592 l 125 0 l 97 0 l 97 656 z "},"ń":{"ha":549,"x_min":97,"x_max":460,"o":"m 97 656 l 118 656 l 122 588 q 184 641 144 619 q 285 663 224 663 q 417 626 374 663 q 460 519 460 589 l 460 0 l 432 0 l 432 511 q 390 608 432 578 q 278 638 347 638 q 183 615 219 638 q 125 560 147 592 l 125 0 l 97 0 l 97 656 m 226 747 l 343 875 l 381 875 l 247 747 l 226 747 z "},"₦":{"ha":531,"x_min":32,"x_max":501,"o":"m 79 0 l 79 861 l 108 861 l 417 51 l 417 861 l 446 861 l 446 0 l 413 0 l 107 783 l 107 0 l 79 0 m 32 376 l 38 393 l 501 393 l 496 376 l 32 376 m 32 479 l 38 496 l 501 496 l 496 479 l 32 479 z "},"ň":{"ha":549,"x_min":97,"x_max":460,"o":"m 139 865 l 163 865 l 276 765 l 390 865 l 411 865 l 294 747 l 256 747 l 139 865 m 97 656 l 118 656 l 122 588 q 184 641 144 619 q 285 663 224 663 q 417 626 374 663 q 460 519 460 589 l 460 0 l 432 0 l 432 511 q 390 608 432 578 q 278 638 347 638 q 183 615 219 638 q 125 560 147 592 l 125 0 l 97 0 l 97 656 z "},"ņ":{"ha":549,"x_min":97,"x_max":460,"o":"m 97 656 l 118 656 l 122 588 q 184 641 144 619 q 285 663 224 663 q 417 626 374 663 q 460 519 460 589 l 460 0 l 432 0 l 432 511 q 390 608 432 578 q 278 638 347 638 q 183 615 219 638 q 125 560 147 592 l 125 0 l 97 0 l 97 656 m 244 -207 q 272 -157 261 -183 q 283 -100 283 -131 q 262 -96 265 -100 q 258 -86 258 -92 q 261 -72 258 -78 q 282 -67 264 -67 q 300 -72 297 -67 q 303 -85 303 -76 q 298 -128 303 -106 q 284 -172 293 -151 q 263 -207 275 -192 l 244 -207 z "},"ǌ":{"ha":764,"x_min":97,"x_max":674,"o":"m 97 656 l 118 656 l 122 588 q 184 641 144 619 q 285 663 224 663 q 417 626 374 663 q 460 519 460 589 l 460 0 l 432 0 l 432 511 q 390 608 432 578 q 278 638 347 638 q 183 615 219 638 q 125 560 147 592 l 125 0 l 97 0 l 97 656 m 485 -236 l 479 -214 l 574 -214 q 626 -192 614 -214 q 639 -125 639 -169 l 639 653 l 667 653 l 667 -129 q 647 -212 667 -189 q 575 -236 628 -236 l 485 -236 m 653 758 q 635 762 639 758 q 631 778 631 765 q 635 795 631 790 q 653 800 639 800 q 670 795 667 800 q 674 778 674 790 q 670 762 674 765 q 653 758 667 758 z "},"≠":{"ha":508,"x_min":81,"x_max":436,"o":"m 83 -61 l 413 653 l 436 653 l 103 -61 l 83 -61 m 81 153 l 81 174 l 432 174 l 432 153 l 81 153 m 81 413 l 81 433 l 432 433 l 432 413 l 81 413 z "},"ñ":{"ha":549,"x_min":97,"x_max":460,"o":"m 97 656 l 118 656 l 122 588 q 184 641 144 619 q 285 663 224 663 q 417 626 374 663 q 460 519 460 589 l 460 0 l 432 0 l 432 511 q 390 608 432 578 q 278 638 347 638 q 183 615 219 638 q 125 560 147 592 l 125 0 l 97 0 l 97 656 m 151 739 q 170 809 151 788 q 215 831 189 831 q 261 815 243 831 q 297 783 279 799 q 335 767 314 767 q 374 788 367 767 q 382 828 382 810 l 401 828 q 381 763 401 781 q 338 744 361 744 q 292 761 311 744 q 256 794 272 778 q 218 810 239 810 q 182 790 193 810 q 171 739 171 771 l 151 739 z "},"#":{"ha":721,"x_min":8,"x_max":676,"o":"m 97 0 l 196 319 l 8 319 l 15 336 l 203 336 l 257 510 l 68 510 l 74 528 l 264 528 l 349 797 l 369 797 l 285 528 l 472 528 l 557 797 l 579 797 l 493 528 l 676 528 l 669 510 l 488 510 l 433 336 l 618 336 l 613 319 l 428 319 l 328 0 l 306 0 l 406 319 l 218 319 l 118 0 l 97 0 m 411 336 l 465 510 l 278 510 l 224 336 l 411 336 z "},"№":{"ha":1090,"x_min":97,"x_max":1007,"o":"m 97 0 l 97 861 l 126 861 l 431 68 l 433 61 l 435 58 l 435 861 l 463 861 l 463 0 l 431 0 l 129 779 l 125 789 l 125 789 l 125 0 l 97 0 m 813 -6 q 705 17 742 -6 q 656 72 668 39 q 643 136 643 106 l 643 518 q 656 583 643 550 q 708 638 669 615 q 825 660 747 660 q 940 638 901 660 q 993 583 979 615 q 1007 518 1007 550 l 1007 158 q 992 79 1007 117 q 936 18 978 42 q 813 -6 894 -6 m 813 18 q 935 49 890 18 q 979 153 979 79 l 979 514 q 936 608 979 579 q 825 638 893 638 q 715 609 758 638 q 671 514 671 581 l 671 140 q 713 47 671 75 q 813 18 756 18 z "},"o":{"ha":531,"x_min":83,"x_max":447,"o":"m 253 -6 q 145 17 182 -6 q 96 72 108 39 q 83 136 83 106 l 83 518 q 97 583 83 550 q 149 638 110 615 q 265 660 188 660 q 381 638 342 660 q 433 583 419 615 q 447 518 447 550 l 447 158 q 433 79 447 117 q 376 18 418 42 q 253 -6 335 -6 m 253 18 q 375 49 331 18 q 419 153 419 79 l 419 514 q 376 608 419 579 q 265 638 333 638 q 155 609 199 638 q 111 514 111 581 l 111 140 q 153 47 111 75 q 253 18 196 18 z "},"ó":{"ha":531,"x_min":83,"x_max":447,"o":"m 253 -6 q 145 17 182 -6 q 96 72 108 39 q 83 136 83 106 l 83 518 q 97 583 83 550 q 149 638 110 615 q 265 660 188 660 q 381 638 342 660 q 433 583 419 615 q 447 518 447 550 l 447 158 q 433 79 447 117 q 376 18 418 42 q 253 -6 335 -6 m 253 18 q 375 49 331 18 q 419 153 419 79 l 419 514 q 376 608 419 579 q 265 638 333 638 q 155 609 199 638 q 111 514 111 581 l 111 140 q 153 47 111 75 q 253 18 196 18 m 215 747 l 332 875 l 369 875 l 236 747 l 215 747 z "},"ŏ":{"ha":531,"x_min":83,"x_max":447,"o":"m 253 -6 q 145 17 182 -6 q 96 72 108 39 q 83 136 83 106 l 83 518 q 97 583 83 550 q 149 638 110 615 q 265 660 188 660 q 381 638 342 660 q 433 583 419 615 q 447 518 447 550 l 447 158 q 433 79 447 117 q 376 18 418 42 q 253 -6 335 -6 m 253 18 q 375 49 331 18 q 419 153 419 79 l 419 514 q 376 608 419 579 q 265 638 333 638 q 155 609 199 638 q 111 514 111 581 l 111 140 q 153 47 111 75 q 253 18 196 18 m 263 742 q 187 761 213 742 q 153 808 161 781 q 144 860 144 836 l 164 860 q 185 792 164 822 q 263 763 207 763 q 344 792 321 763 q 367 860 367 821 l 386 860 q 358 777 386 813 q 263 742 331 742 z "},"ǒ":{"ha":531,"x_min":83,"x_max":447,"o":"m 128 865 l 151 865 l 265 765 l 379 865 l 400 865 l 283 747 l 244 747 l 128 865 m 253 -6 q 145 17 182 -6 q 96 72 108 39 q 83 136 83 106 l 83 518 q 97 583 83 550 q 149 638 110 615 q 265 660 188 660 q 381 638 342 660 q 433 583 419 615 q 447 518 447 550 l 447 158 q 433 79 447 117 q 376 18 418 42 q 253 -6 335 -6 m 253 18 q 375 49 331 18 q 419 153 419 79 l 419 514 q 376 608 419 579 q 265 638 333 638 q 155 609 199 638 q 111 514 111 581 l 111 140 q 153 47 111 75 q 253 18 196 18 z "},"ô":{"ha":531,"x_min":83,"x_max":447,"o":"m 253 -6 q 145 17 182 -6 q 96 72 108 39 q 83 136 83 106 l 83 518 q 97 583 83 550 q 149 638 110 615 q 265 660 188 660 q 381 638 342 660 q 433 583 419 615 q 447 518 447 550 l 447 158 q 433 79 447 117 q 376 18 418 42 q 253 -6 335 -6 m 253 18 q 375 49 331 18 q 419 153 419 79 l 419 514 q 376 608 419 579 q 265 638 333 638 q 155 609 199 638 q 111 514 111 581 l 111 140 q 153 47 111 75 q 253 18 196 18 m 128 747 l 244 865 l 283 865 l 400 747 l 379 747 l 265 847 l 151 747 l 128 747 z "},"ố":{"ha":531,"x_min":83,"x_max":543,"o":"m 253 -6 q 145 17 182 -6 q 96 72 108 39 q 83 136 83 106 l 83 518 q 97 583 83 550 q 149 638 110 615 q 265 660 188 660 q 381 638 342 660 q 433 583 419 615 q 447 518 447 550 l 447 158 q 433 79 447 117 q 376 18 418 42 q 253 -6 335 -6 m 253 18 q 375 49 331 18 q 419 153 419 79 l 419 514 q 376 608 419 579 q 265 638 333 638 q 155 609 199 638 q 111 514 111 581 l 111 140 q 153 47 111 75 q 253 18 196 18 m 128 747 l 244 865 l 283 865 l 400 747 l 379 747 l 265 847 l 151 747 l 128 747 m 389 850 l 506 978 l 543 978 l 410 850 l 389 850 z "},"ộ":{"ha":531,"x_min":83,"x_max":447,"o":"m 253 -6 q 145 17 182 -6 q 96 72 108 39 q 83 136 83 106 l 83 518 q 97 583 83 550 q 149 638 110 615 q 265 660 188 660 q 381 638 342 660 q 433 583 419 615 q 447 518 447 550 l 447 158 q 433 79 447 117 q 376 18 418 42 q 253 -6 335 -6 m 253 18 q 375 49 331 18 q 419 153 419 79 l 419 514 q 376 608 419 579 q 265 638 333 638 q 155 609 199 638 q 111 514 111 581 l 111 140 q 153 47 111 75 q 253 18 196 18 m 264 -114 q 244 -108 247 -114 q 242 -92 242 -101 q 244 -74 242 -81 q 264 -67 247 -67 q 283 -74 281 -67 q 286 -92 286 -81 q 283 -108 286 -101 q 264 -114 281 -114 m 128 747 l 244 865 l 283 865 l 400 747 l 379 747 l 265 847 l 151 747 l 128 747 z "},"ồ":{"ha":531,"x_min":83,"x_max":447,"o":"m 253 -6 q 145 17 182 -6 q 96 72 108 39 q 83 136 83 106 l 83 518 q 97 583 83 550 q 149 638 110 615 q 265 660 188 660 q 381 638 342 660 q 433 583 419 615 q 447 518 447 550 l 447 158 q 433 79 447 117 q 376 18 418 42 q 253 -6 335 -6 m 253 18 q 375 49 331 18 q 419 153 419 79 l 419 514 q 376 608 419 579 q 265 638 333 638 q 155 609 199 638 q 111 514 111 581 l 111 140 q 153 47 111 75 q 253 18 196 18 m 128 747 l 244 865 l 283 865 l 400 747 l 379 747 l 265 847 l 151 747 l 128 747 m 426 850 l 293 978 l 331 978 l 447 850 l 426 850 z "},"ổ":{"ha":531,"x_min":83,"x_max":519,"o":"m 253 -6 q 145 17 182 -6 q 96 72 108 39 q 83 136 83 106 l 83 518 q 97 583 83 550 q 149 638 110 615 q 265 660 188 660 q 381 638 342 660 q 433 583 419 615 q 447 518 447 550 l 447 158 q 433 79 447 117 q 376 18 418 42 q 253 -6 335 -6 m 253 18 q 375 49 331 18 q 419 153 419 79 l 419 514 q 376 608 419 579 q 265 638 333 638 q 155 609 199 638 q 111 514 111 581 l 111 140 q 153 47 111 75 q 253 18 196 18 m 128 747 l 244 865 l 283 865 l 400 747 l 379 747 l 265 847 l 151 747 l 128 747 m 419 850 q 431 878 419 867 q 459 901 443 890 q 487 925 475 911 q 499 960 499 939 q 478 997 499 983 q 435 1011 458 1011 q 383 992 399 1011 q 363 947 367 972 l 346 953 q 372 1009 349 989 q 438 1029 396 1029 q 499 1009 478 1029 q 519 961 519 989 q 508 919 519 935 q 481 894 496 904 q 455 875 467 885 q 443 850 443 865 l 419 850 z "},"ỗ":{"ha":531,"x_min":83,"x_max":447,"o":"m 253 -6 q 145 17 182 -6 q 96 72 108 39 q 83 136 83 106 l 83 518 q 97 583 83 550 q 149 638 110 615 q 265 660 188 660 q 381 638 342 660 q 433 583 419 615 q 447 518 447 550 l 447 158 q 433 79 447 117 q 376 18 418 42 q 253 -6 335 -6 m 253 18 q 375 49 331 18 q 419 153 419 79 l 419 514 q 376 608 419 579 q 265 638 333 638 q 155 609 199 638 q 111 514 111 581 l 111 140 q 153 47 111 75 q 253 18 196 18 m 128 747 l 244 865 l 283 865 l 400 747 l 379 747 l 265 847 l 151 747 l 128 747 m 138 899 q 156 969 138 947 q 201 990 175 990 q 247 974 229 990 q 283 942 265 958 q 321 926 300 926 q 360 948 353 926 q 368 988 368 969 l 388 988 q 367 922 388 940 q 324 904 347 904 q 278 921 297 904 q 242 953 258 938 q 204 969 225 969 q 168 950 179 969 q 157 899 157 931 l 138 899 z "},"ȍ":{"ha":531,"x_min":81,"x_max":447,"o":"m 253 -6 q 145 17 182 -6 q 96 72 108 39 q 83 136 83 106 l 83 518 q 97 583 83 550 q 149 638 110 615 q 265 660 188 660 q 381 638 342 660 q 433 583 419 615 q 447 518 447 550 l 447 158 q 433 79 447 117 q 376 18 418 42 q 253 -6 335 -6 m 253 18 q 375 49 331 18 q 419 153 419 79 l 419 514 q 376 608 419 579 q 265 638 333 638 q 155 609 199 638 q 111 514 111 581 l 111 140 q 153 47 111 75 q 253 18 196 18 m 214 747 l 81 875 l 118 875 l 235 747 l 214 747 m 299 747 l 165 875 l 203 875 l 319 747 l 299 747 z "},"ö":{"ha":531,"x_min":83,"x_max":447,"o":"m 253 -6 q 145 17 182 -6 q 96 72 108 39 q 83 136 83 106 l 83 518 q 97 583 83 550 q 149 638 110 615 q 265 660 188 660 q 381 638 342 660 q 433 583 419 615 q 447 518 447 550 l 447 158 q 433 79 447 117 q 376 18 418 42 q 253 -6 335 -6 m 253 18 q 375 49 331 18 q 419 153 419 79 l 419 514 q 376 608 419 579 q 265 638 333 638 q 155 609 199 638 q 111 514 111 581 l 111 140 q 153 47 111 75 q 253 18 196 18 m 322 743 q 304 749 307 743 q 301 765 301 756 q 304 783 301 776 q 322 789 307 789 q 343 783 340 789 q 346 765 346 776 q 343 749 346 756 q 322 743 340 743 m 206 743 q 186 749 189 743 q 183 765 183 756 q 186 783 183 776 q 206 789 189 789 q 225 783 222 789 q 228 765 228 776 q 225 749 228 756 q 206 743 222 743 z "},"ȫ":{"ha":531,"x_min":83,"x_max":447,"o":"m 253 -6 q 145 17 182 -6 q 96 72 108 39 q 83 136 83 106 l 83 518 q 97 583 83 550 q 149 638 110 615 q 265 660 188 660 q 381 638 342 660 q 433 583 419 615 q 447 518 447 550 l 447 158 q 433 79 447 117 q 376 18 418 42 q 253 -6 335 -6 m 253 18 q 375 49 331 18 q 419 153 419 79 l 419 514 q 376 608 419 579 q 265 638 333 638 q 155 609 199 638 q 111 514 111 581 l 111 140 q 153 47 111 75 q 253 18 196 18 m 322 743 q 304 749 307 743 q 301 765 301 756 q 304 783 301 776 q 322 789 307 789 q 343 783 340 789 q 346 765 346 776 q 343 749 346 756 q 322 743 340 743 m 206 743 q 186 749 189 743 q 183 765 183 756 q 186 783 183 776 q 206 789 189 789 q 225 783 222 789 q 228 765 228 776 q 225 749 228 756 q 206 743 222 743 m 133 824 l 133 844 l 396 844 l 396 824 l 133 824 z "},"ȱ":{"ha":531,"x_min":83,"x_max":447,"o":"m 253 -6 q 145 17 182 -6 q 96 72 108 39 q 83 136 83 106 l 83 518 q 97 583 83 550 q 149 638 110 615 q 265 660 188 660 q 381 638 342 660 q 433 583 419 615 q 447 518 447 550 l 447 158 q 433 79 447 117 q 376 18 418 42 q 253 -6 335 -6 m 253 18 q 375 49 331 18 q 419 153 419 79 l 419 514 q 376 608 419 579 q 265 638 333 638 q 155 609 199 638 q 111 514 111 581 l 111 140 q 153 47 111 75 q 253 18 196 18 m 264 744 q 244 751 247 744 q 242 767 242 757 q 244 785 242 778 q 264 792 247 792 q 283 785 281 792 q 286 767 286 778 q 283 751 286 757 q 264 744 281 744 m 133 824 l 133 844 l 396 844 l 396 824 l 133 824 z "},"ọ":{"ha":531,"x_min":83,"x_max":447,"o":"m 253 -6 q 145 17 182 -6 q 96 72 108 39 q 83 136 83 106 l 83 518 q 97 583 83 550 q 149 638 110 615 q 265 660 188 660 q 381 638 342 660 q 433 583 419 615 q 447 518 447 550 l 447 158 q 433 79 447 117 q 376 18 418 42 q 253 -6 335 -6 m 253 18 q 375 49 331 18 q 419 153 419 79 l 419 514 q 376 608 419 579 q 265 638 333 638 q 155 609 199 638 q 111 514 111 581 l 111 140 q 153 47 111 75 q 253 18 196 18 m 264 -114 q 244 -108 247 -114 q 242 -92 242 -101 q 244 -74 242 -81 q 264 -67 247 -67 q 283 -74 281 -67 q 286 -92 286 -81 q 283 -108 286 -101 q 264 -114 281 -114 z "}}}
